<?xml version="1.0" encoding="UTF-8" standalone="no"?>
<!DOCTYPE svg PUBLIC "-//W3C//DTD SVG 1.1//EN"
"http://www.w3.org/Graphics/SVG/1.1/DTD/svg11.dtd">
<svg version="1.1" xmlns="http://www.w3.org/2000/svg" xmlns:xlink="http://www.w3.org/1999/xlink">
<defs>
<style type="text/css"><![CDATA[
.g1_7{
fill: none;
stroke: #000000;
stroke-width: 1;
stroke-linecap: butt;
stroke-linejoin: miter;
}
]]></style>
</defs>
<image x="111" y="54" width="234" height="55" xlink:href="img/1.png" />
<path d="M102.5,129.5l41,0" class="g1_7" />
<path d="M144.5,129.5l273,0" class="g1_7" />
<path d="M418.5,129.5l125,0" class="g1_7" />
<path d="M544.5,129.5l247,0" class="g1_7" />
<path d="M101.5,159.5l0,-30" class="g1_7" />
<path d="M143.5,159.5l0,-30" class="g1_7" />
<path d="M417.5,159.5l0,-30" class="g1_7" />
<path d="M543.5,159.5l0,-30" class="g1_7" />
<path d="M791.5,159.5l0,-30" class="g1_7" />
<path d="M101.5,160.5l0,-1" class="g1_7" />
<path d="M102.5,160.5l41,0" class="g1_7" />
<path d="M143.5,160.5l0,-1" class="g1_7" />
<path d="M144.5,160.5l273,0" class="g1_7" />
<path d="M417.5,160.5l0,-1" class="g1_7" />
<path d="M418.5,160.5l125,0" class="g1_7" />
<path d="M543.5,160.5l0,-1" class="g1_7" />
<path d="M544.5,160.5l247,0" class="g1_7" />
<path d="M791.5,160.5l0,-1" class="g1_7" />
<path d="M101.5,190.5l0,-30" class="g1_7" />
<path d="M143.5,190.5l0,-30" class="g1_7" />
<path d="M417.5,190.5l0,-30" class="g1_7" />
<path d="M543.5,190.5l0,-30" class="g1_7" />
<path d="M791.5,190.5l0,-30" class="g1_7" />
<path d="M102.5,190.5l41,0" class="g1_7" />
<path d="M144.5,190.5l273,0" class="g1_7" />
<path d="M418.5,190.5l125,0" class="g1_7" />
<path d="M544.5,190.5l247,0" class="g1_7" />
<path d="M101.5,220.5l0,-30" class="g1_7" />
<path d="M101.5,221.5l0,-1" class="g1_7" />
<path d="M101.5,221.5l0,-1" class="g1_7" />
<path d="M102.5,221.5l315,0" class="g1_7" />
<path d="M417.5,220.5l0,-30" class="g1_7" />
<path d="M417.5,221.5l0,-1" class="g1_7" />
<path d="M418.5,221.5l125,0" class="g1_7" />
<path d="M543.5,220.5l0,-30" class="g1_7" />
<path d="M543.5,221.5l0,-1" class="g1_7" />
<path d="M544.5,221.5l247,0" class="g1_7" />
<path d="M791.5,220.5l0,-30" class="g1_7" />
<path d="M791.5,221.5l0,-1" class="g1_7" />
<path d="M791.5,221.5l0,-1" class="g1_7" />
<path d="M111.5,269.5l150,0" class="g1_7" />
<path d="M101.5,281.5l0,-1" class="g1_7" />
<path d="M101.5,281.5l0,-1" class="g1_7" />
<path d="M102.5,281.5l349,0" class="g1_7" />
<path d="M451.5,281.5l0,-1" class="g1_7" />
<path d="M452.5,281.5l164,0" class="g1_7" />
<path d="M616.5,281.5l0,-1" class="g1_7" />
<path d="M617.5,281.5l188,0" class="g1_7" />
<path d="M805.5,281.5l0,-1" class="g1_7" />
<path d="M805.5,281.5l0,-1" class="g1_7" />
<path d="M101.5,331.5l0,-50" class="g1_7" />
<path d="M451.5,331.5l0,-50" class="g1_7" />
<path d="M616.5,331.5l0,-50" class="g1_7" />
<path d="M805.5,331.5l0,-50" class="g1_7" />
<path d="M101.5,332.5l0,-1" class="g1_7" />
<path d="M102.5,332.5l349,0" class="g1_7" />
<path d="M451.5,332.5l0,-1" class="g1_7" />
<path d="M452.5,332.5l164,0" class="g1_7" />
<path d="M616.5,332.5l0,-1" class="g1_7" />
<path d="M617.5,332.5l188,0" class="g1_7" />
<path d="M805.5,332.5l0,-1" class="g1_7" />
<path d="M101.5,362.5l0,-30" class="g1_7" />
<path d="M451.5,362.5l0,-30" class="g1_7" />
<path d="M616.5,362.5l0,-30" class="g1_7" />
<path d="M805.5,362.5l0,-30" class="g1_7" />
<path d="M101.5,363.5l0,-1" class="g1_7" />
<path d="M102.5,363.5l349,0" class="g1_7" />
<path d="M451.5,363.5l0,-1" class="g1_7" />
<path d="M452.5,363.5l164,0" class="g1_7" />
<path d="M616.5,363.5l0,-1" class="g1_7" />
<path d="M617.5,363.5l188,0" class="g1_7" />
<path d="M805.5,363.5l0,-1" class="g1_7" />
<path d="M101.5,394.5l0,-31" class="g1_7" />
<path d="M451.5,394.5l0,-31" class="g1_7" />
<path d="M616.5,394.5l0,-31" class="g1_7" />
<path d="M805.5,394.5l0,-31" class="g1_7" />
<path d="M102.5,394.5l349,0" class="g1_7" />
<path d="M452.5,394.5l164,0" class="g1_7" />
<path d="M617.5,394.5l188,0" class="g1_7" />
<path d="M101.5,425.5l0,-31" class="g1_7" />
<path d="M451.5,425.5l0,-31" class="g1_7" />
<path d="M616.5,425.5l0,-31" class="g1_7" />
<path d="M805.5,425.5l0,-31" class="g1_7" />
<path d="M102.5,425.5l349,0" class="g1_7" />
<path d="M452.5,425.5l164,0" class="g1_7" />
<path d="M617.5,425.5l188,0" class="g1_7" />
<path d="M101.5,456.5l0,-31" class="g1_7" />
<path d="M451.5,456.5l0,-31" class="g1_7" />
<path d="M616.5,456.5l0,-31" class="g1_7" />
<path d="M805.5,456.5l0,-31" class="g1_7" />
<path d="M101.5,457.5l0,-1" class="g1_7" />
<path d="M102.5,457.5l349,0" class="g1_7" />
<path d="M451.5,457.5l0,-1" class="g1_7" />
<path d="M452.5,457.5l164,0" class="g1_7" />
<path d="M616.5,457.5l0,-1" class="g1_7" />
<path d="M617.5,457.5l188,0" class="g1_7" />
<path d="M805.5,457.5l0,-1" class="g1_7" />
<path d="M101.5,487.5l0,-30" class="g1_7" />
<path d="M451.5,487.5l0,-30" class="g1_7" />
<path d="M616.5,487.5l0,-30" class="g1_7" />
<path d="M805.5,487.5l0,-30" class="g1_7" />
<path d="M101.5,488.5l0,-1" class="g1_7" />
<path d="M102.5,488.5l349,0" class="g1_7" />
<path d="M451.5,488.5l0,-1" class="g1_7" />
<path d="M452.5,488.5l164,0" class="g1_7" />
<path d="M616.5,488.5l0,-1" class="g1_7" />
<path d="M617.5,488.5l188,0" class="g1_7" />
<path d="M805.5,488.5l0,-1" class="g1_7" />
<path d="M101.5,518.5l0,-30" class="g1_7" />
<path d="M451.5,518.5l0,-30" class="g1_7" />
<path d="M616.5,518.5l0,-30" class="g1_7" />
<path d="M805.5,518.5l0,-30" class="g1_7" />
<path d="M101.5,519.5l0,-1" class="g1_7" />
<path d="M102.5,519.5l349,0" class="g1_7" />
<path d="M451.5,519.5l0,-1" class="g1_7" />
<path d="M452.5,519.5l164,0" class="g1_7" />
<path d="M616.5,519.5l0,-1" class="g1_7" />
<path d="M617.5,519.5l188,0" class="g1_7" />
<path d="M805.5,519.5l0,-1" class="g1_7" />
<path d="M101.5,549.5l0,-30" class="g1_7" />
<path d="M451.5,549.5l0,-30" class="g1_7" />
<path d="M616.5,549.5l0,-30" class="g1_7" />
<path d="M805.5,549.5l0,-30" class="g1_7" />
<path d="M101.5,550.5l0,-1" class="g1_7" />
<path d="M102.5,550.5l349,0" class="g1_7" />
<path d="M451.5,550.5l0,-1" class="g1_7" />
<path d="M452.5,550.5l164,0" class="g1_7" />
<path d="M616.5,550.5l0,-1" class="g1_7" />
<path d="M617.5,550.5l188,0" class="g1_7" />
<path d="M805.5,550.5l0,-1" class="g1_7" />
<path d="M101.5,580.5l0,-30" class="g1_7" />
<path d="M451.5,580.5l0,-30" class="g1_7" />
<path d="M616.5,580.5l0,-30" class="g1_7" />
<path d="M805.5,580.5l0,-30" class="g1_7" />
<path d="M101.5,581.5l0,-1" class="g1_7" />
<path d="M102.5,581.5l349,0" class="g1_7" />
<path d="M451.5,581.5l0,-1" class="g1_7" />
<path d="M452.5,581.5l164,0" class="g1_7" />
<path d="M616.5,581.5l0,-1" class="g1_7" />
<path d="M617.5,581.5l188,0" class="g1_7" />
<path d="M805.5,581.5l0,-1" class="g1_7" />
<path d="M101.5,611.5l0,-30" class="g1_7" />
<path d="M101.5,612.5l0,-1" class="g1_7" />
<path d="M101.5,612.5l0,-1" class="g1_7" />
<path d="M102.5,612.5l349,0" class="g1_7" />
<path d="M451.5,611.5l0,-30" class="g1_7" />
<path d="M451.5,612.5l0,-1" class="g1_7" />
<path d="M452.5,612.5l164,0" class="g1_7" />
<path d="M616.5,611.5l0,-30" class="g1_7" />
<path d="M616.5,612.5l0,-1" class="g1_7" />
<path d="M617.5,612.5l188,0" class="g1_7" />
<path d="M805.5,611.5l0,-30" class="g1_7" />
<path d="M805.5,612.5l0,-1" class="g1_7" />
<path d="M805.5,612.5l0,-1" class="g1_7" />
<path d="M111.5,690.5l96,0" class="g1_7" />
<path d="M101.5,702.5l0,-1" class="g1_7" />
<path d="M101.5,702.5l0,-1" class="g1_7" />
<path d="M102.5,702.5l335,0" class="g1_7" />
<path d="M437.5,702.5l0,-1" class="g1_7" />
<path d="M438.5,702.5l199,0" class="g1_7" />
<path d="M637.5,702.5l0,-1" class="g1_7" />
<path d="M638.5,702.5l173,0" class="g1_7" />
<path d="M811.5,702.5l0,-1" class="g1_7" />
<path d="M811.5,702.5l0,-1" class="g1_7" />
<path d="M101.5,731.5l0,-29" class="g1_7" />
<path d="M437.5,731.5l0,-29" class="g1_7" />
<path d="M637.5,731.5l0,-29" class="g1_7" />
<path d="M811.5,731.5l0,-29" class="g1_7" />
<path d="M447.5,758.5l84,0" class="g1_7" />
<path d="M647.5,758.5l58,0" class="g1_7" />
<path d="M101.5,732.5l0,-1" class="g1_7" />
<path d="M102.5,732.5l335,0" class="g1_7" />
<path d="M437.5,732.5l0,-1" class="g1_7" />
<path d="M438.5,732.5l199,0" class="g1_7" />
<path d="M637.5,732.5l0,-1" class="g1_7" />
<path d="M638.5,732.5l173,0" class="g1_7" />
<path d="M811.5,732.5l0,-1" class="g1_7" />
<path d="M101.5,777.5l0,-45" class="g1_7" />
<path d="M437.5,777.5l0,-45" class="g1_7" />
<path d="M637.5,777.5l0,-45" class="g1_7" />
<path d="M811.5,777.5l0,-45" class="g1_7" />
<path d="M447.5,796.5l88,0" class="g1_7" />
<path d="M102.5,777.5l335,0" class="g1_7" />
<path d="M438.5,777.5l199,0" class="g1_7" />
<path d="M638.5,777.5l173,0" class="g1_7" />
<path d="M101.5,807.5l0,-30" class="g1_7" />
<path d="M437.5,807.5l0,-30" class="g1_7" />
<path d="M637.5,807.5l0,-30" class="g1_7" />
<path d="M811.5,807.5l0,-30" class="g1_7" />
<path d="M101.5,808.5l0,-1" class="g1_7" />
<path d="M102.5,808.5l335,0" class="g1_7" />
<path d="M437.5,808.5l0,-1" class="g1_7" />
<path d="M438.5,808.5l199,0" class="g1_7" />
<path d="M637.5,808.5l0,-1" class="g1_7" />
<path d="M638.5,808.5l173,0" class="g1_7" />
<path d="M811.5,808.5l0,-1" class="g1_7" />
<path d="M101.5,838.5l0,-30" class="g1_7" />
<path d="M437.5,838.5l0,-30" class="g1_7" />
<path d="M637.5,838.5l0,-30" class="g1_7" />
<path d="M811.5,838.5l0,-30" class="g1_7" />
<path d="M102.5,838.5l335,0" class="g1_7" />
<path d="M438.5,838.5l199,0" class="g1_7" />
<path d="M638.5,838.5l173,0" class="g1_7" />
<path d="M101.5,889.5l0,-51" class="g1_7" />
<path d="M637.5,889.5l0,-51" class="g1_7" />
<path d="M811.5,889.5l0,-51" class="g1_7" />
<path d="M102.5,889.5l535,0" class="g1_7" />
<path d="M638.5,889.5l173,0" class="g1_7" />
<path d="M101.5,919.5l0,-30" class="g1_7" />
<path d="M637.5,919.5l0,-30" class="g1_7" />
<path d="M811.5,919.5l0,-30" class="g1_7" />
<path d="M101.5,920.5l0,-1" class="g1_7" />
<path d="M102.5,920.5l535,0" class="g1_7" />
<path d="M637.5,920.5l0,-1" class="g1_7" />
<path d="M638.5,920.5l173,0" class="g1_7" />
<path d="M811.5,920.5l0,-1" class="g1_7" />
<path d="M101.5,950.5l0,-30" class="g1_7" />
<path d="M637.5,950.5l0,-30" class="g1_7" />
<path d="M811.5,950.5l0,-30" class="g1_7" />
<path d="M102.5,950.5l535,0" class="g1_7" />
<path d="M638.5,950.5l173,0" class="g1_7" />
<path d="M101.5,1021.5l0,-71" class="g1_7" />
<path d="M811.5,1021.5l0,-71" class="g1_7" />
<path d="M101.5,1022.5l0,-1" class="g1_7" />
<path d="M102.5,1022.5l241,0" class="g1_7" />
<path d="M343.5,1022.5l0,-1" class="g1_7" />
<path d="M344.5,1022.5l246,0" class="g1_7" />
<path d="M590.5,1022.5l0,-1" class="g1_7" />
<path d="M591.5,1022.5l220,0" class="g1_7" />
<path d="M811.5,1022.5l0,-1" class="g1_7" />
<path d="M101.5,1051.5l0,-29" class="g1_7" />
<path d="M343.5,1051.5l0,-29" class="g1_7" />
<path d="M590.5,1051.5l0,-29" class="g1_7" />
<path d="M811.5,1051.5l0,-29" class="g1_7" />
<path d="M101.5,1052.5l0,-1" class="g1_7" />
<path d="M102.5,1052.5l241,0" class="g1_7" />
<path d="M343.5,1052.5l0,-1" class="g1_7" />
<path d="M344.5,1052.5l246,0" class="g1_7" />
<path d="M590.5,1052.5l0,-1" class="g1_7" />
<path d="M591.5,1052.5l220,0" class="g1_7" />
<path d="M811.5,1052.5l0,-1" class="g1_7" />
<path d="M101.5,1082.5l0,-30" class="g1_7" />
<path d="M343.5,1082.5l0,-30" class="g1_7" />
<path d="M590.5,1082.5l0,-30" class="g1_7" />
<path d="M811.5,1082.5l0,-30" class="g1_7" />
<path d="M101.5,1083.5l0,-1" class="g1_7" />
<path d="M102.5,1083.5l241,0" class="g1_7" />
<path d="M343.5,1083.5l0,-1" class="g1_7" />
<path d="M344.5,1083.5l246,0" class="g1_7" />
<path d="M590.5,1083.5l0,-1" class="g1_7" />
<path d="M591.5,1083.5l220,0" class="g1_7" />
<path d="M811.5,1083.5l0,-1" class="g1_7" />
<path d="M101.5,1112.5l0,-29" class="g1_7" />
<path d="M343.5,1112.5l0,-29" class="g1_7" />
<path d="M590.5,1112.5l0,-29" class="g1_7" />
<path d="M811.5,1112.5l0,-29" class="g1_7" />
<path d="M101.5,1113.5l0,-1" class="g1_7" />
<path d="M102.5,1113.5l241,0" class="g1_7" />
<path d="M343.5,1113.5l0,-1" class="g1_7" />
<path d="M344.5,1113.5l246,0" class="g1_7" />
<path d="M590.5,1113.5l0,-1" class="g1_7" />
<path d="M591.5,1113.5l220,0" class="g1_7" />
<path d="M811.5,1113.5l0,-1" class="g1_7" />
<path d="M101.5,1143.5l0,-30" class="g1_7" />
<path d="M102.5,1143.5l241,0" class="g1_7" />
<path d="M343.5,1143.5l0,-30" class="g1_7" />
<path d="M344.5,1143.5l246,0" class="g1_7" />
<path d="M590.5,1143.5l0,-30" class="g1_7" />
<path d="M591.5,1143.5l220,0" class="g1_7" />
<path d="M811.5,1143.5l0,-30" class="g1_7" />
</svg>