<?xml version="1.0" encoding="UTF-8" standalone="no"?>
<!DOCTYPE svg PUBLIC "-//W3C//DTD SVG 1.1//EN"
"http://www.w3.org/Graphics/SVG/1.1/DTD/svg11.dtd">
<svg version="1.1" xmlns="http://www.w3.org/2000/svg" xmlns:xlink="http://www.w3.org/1999/xlink">
<defs>
<style type="text/css"><![CDATA[
.g2_1{
fill: #F1F1F1;
}
.g3_1{
fill: #44546A;
}
.g1_1{
fill: none;
stroke: #000000;
stroke-width: 1;
stroke-linecap: butt;
stroke-linejoin: miter;
}
]]></style>
</defs>
<image x="110" y="54" width="238" height="56" xlink:href="img/1.png" />
<path d="M363.5,151.5l182,0" class="g1_1" />
<path fill-rule="evenodd" d="M101,173l346,0l0,-5l-346,0l0,5Z" class="g2_1" />
<path fill-rule="evenodd" d="M101,191l8,0l0,-18l-8,0l0,18Z" class="g2_1" />
<path fill-rule="evenodd" d="M439,191l8,0l0,-18l-8,0l0,18Z" class="g2_1" />
<path fill-rule="evenodd" d="M101,196l346,0l0,-5l-346,0l0,5Z" class="g2_1" />
<path fill-rule="evenodd" d="M109,191l330,0l0,-18l-330,0l0,18Z" class="g2_1" />
<path fill-rule="evenodd" d="M448,173l343,0l0,-5l-343,0l0,5Z" class="g2_1" />
<path fill-rule="evenodd" d="M448,191l8,0l0,-18l-8,0l0,18Z" class="g2_1" />
<path fill-rule="evenodd" d="M783,191l8,0l0,-18l-8,0l0,18Z" class="g2_1" />
<path fill-rule="evenodd" d="M448,196l343,0l0,-5l-343,0l0,5Z" class="g2_1" />
<path fill-rule="evenodd" d="M456,191l327,0l0,-18l-327,0l0,18Z" class="g2_1" />
<path d="M101.5,168.5l346,0" class="g1_1" />
<path d="M448.5,168.5l343,0" class="g1_1" />
<path d="M101.5,196.5l0,-28" class="g1_1" />
<path d="M447.5,196.5l0,-28" class="g1_1" />
<path d="M791.5,196.5l0,-28" class="g1_1" />
<path d="M101.5,196.5l346,0" class="g1_1" />
<path d="M448.5,196.5l343,0" class="g1_1" />
<path d="M101.5,227.5l0,-31" class="g1_1" />
<path d="M447.5,227.5l0,-31" class="g1_1" />
<path d="M791.5,227.5l0,-31" class="g1_1" />
<path d="M101.5,228.5l0,-1" class="g1_1" />
<path d="M101.5,228.5l346,0" class="g1_1" />
<path d="M447.5,228.5l0,-1" class="g1_1" />
<path d="M448.5,228.5l343,0" class="g1_1" />
<path d="M791.5,228.5l0,-1" class="g1_1" />
<path d="M101.5,250.5l0,-22" class="g1_1" />
<path d="M101.5,251.5l0,-1" class="g1_1" />
<path d="M101.5,251.5l0,-1" class="g1_1" />
<path d="M101.5,251.5l346,0" class="g1_1" />
<path d="M447.5,250.5l0,-22" class="g1_1" />
<path d="M447.5,251.5l0,-1" class="g1_1" />
<path d="M448.5,251.5l343,0" class="g1_1" />
<path d="M791.5,250.5l0,-22" class="g1_1" />
<path d="M791.5,251.5l0,-1" class="g1_1" />
<path d="M791.5,251.5l0,-1" class="g1_1" />
<path fill-rule="evenodd" d="M102,307l8,0l0,-21l-8,0l0,21Z" class="g3_1" />
<path fill-rule="evenodd" d="M223,307l8,0l0,-21l-8,0l0,21Z" class="g3_1" />
<path fill-rule="evenodd" d="M110,307l113,0l0,-21l-113,0l0,21Z" class="g3_1" />
<path fill-rule="evenodd" d="M231,307l8,0l0,-21l-8,0l0,21Z" class="g2_1" />
<path fill-rule="evenodd" d="M782,307l8,0l0,-21l-8,0l0,21Z" class="g2_1" />
<path fill-rule="evenodd" d="M239,307l543,0l0,-21l-543,0l0,21Z" class="g2_1" />
<path d="M101.5,286.5l0,-1" class="g1_1" />
<path d="M101.5,286.5l0,-1" class="g1_1" />
<path d="M102.5,286.5l129,0" class="g1_1" />
<path d="M231.5,286.5l0,-1" class="g1_1" />
<path d="M231.5,286.5l559,0" class="g1_1" />
<path d="M790.5,286.5l0,-1" class="g1_1" />
<path d="M790.5,286.5l0,-1" class="g1_1" />
<path d="M101.5,307.5l0,-21" class="g1_1" />
<path d="M231.5,307.5l0,-21" class="g1_1" />
<path d="M790.5,307.5l0,-21" class="g1_1" />
<path fill-rule="evenodd" d="M102,348l8,0l0,-41l-8,0l0,41Z" class="g3_1" />
<path fill-rule="evenodd" d="M223,348l8,0l0,-41l-8,0l0,41Z" class="g3_1" />
<path fill-rule="evenodd" d="M110,328l113,0l0,-21l-113,0l0,21Z" class="g3_1" />
<path fill-rule="evenodd" d="M110,348l113,0l0,-20l-113,0l0,20Z" class="g3_1" />
<path fill-rule="evenodd" d="M231,328l8,0l0,-21l-8,0l0,21Z" class="g2_1" />
<path fill-rule="evenodd" d="M782,328l8,0l0,-21l-8,0l0,21Z" class="g2_1" />
<path fill-rule="evenodd" d="M231,348l559,0l0,-20l-559,0l0,20Z" class="g2_1" />
<path fill-rule="evenodd" d="M239,328l543,0l0,-21l-543,0l0,21Z" class="g2_1" />
<path d="M102.5,307.5l129,0" class="g1_1" />
<path d="M231.5,307.5l559,0" class="g1_1" />
<path d="M101.5,348.5l0,-41" class="g1_1" />
<path d="M231.5,348.5l0,-41" class="g1_1" />
<path d="M790.5,348.5l0,-41" class="g1_1" />
<path fill-rule="evenodd" d="M102,370l8,0l0,-21l-8,0l0,21Z" class="g3_1" />
<path fill-rule="evenodd" d="M223,370l8,0l0,-21l-8,0l0,21Z" class="g3_1" />
<path fill-rule="evenodd" d="M110,370l113,0l0,-21l-113,0l0,21Z" class="g3_1" />
<path fill-rule="evenodd" d="M231,370l8,0l0,-21l-8,0l0,21Z" class="g2_1" />
<path fill-rule="evenodd" d="M782,370l8,0l0,-21l-8,0l0,21Z" class="g2_1" />
<path fill-rule="evenodd" d="M239,370l543,0l0,-21l-543,0l0,21Z" class="g2_1" />
<path d="M101.5,349.5l0,-1" class="g1_1" />
<path d="M102.5,349.5l129,0" class="g1_1" />
<path d="M231.5,349.5l0,-1" class="g1_1" />
<path d="M231.5,349.5l559,0" class="g1_1" />
<path d="M790.5,349.5l0,-1" class="g1_1" />
<path d="M101.5,370.5l0,-21" class="g1_1" />
<path d="M231.5,370.5l0,-21" class="g1_1" />
<path d="M790.5,370.5l0,-21" class="g1_1" />
<path fill-rule="evenodd" d="M102,391l8,0l0,-21l-8,0l0,21Z" class="g3_1" />
<path fill-rule="evenodd" d="M223,391l8,0l0,-21l-8,0l0,21Z" class="g3_1" />
<path fill-rule="evenodd" d="M110,391l113,0l0,-21l-113,0l0,21Z" class="g3_1" />
<path fill-rule="evenodd" d="M231,391l8,0l0,-21l-8,0l0,21Z" class="g2_1" />
<path fill-rule="evenodd" d="M782,391l8,0l0,-21l-8,0l0,21Z" class="g2_1" />
<path fill-rule="evenodd" d="M239,391l543,0l0,-21l-543,0l0,21Z" class="g2_1" />
<path d="M102.5,370.5l129,0" class="g1_1" />
<path d="M231.5,370.5l559,0" class="g1_1" />
<path d="M101.5,391.5l0,-21" class="g1_1" />
<path d="M231.5,391.5l0,-21" class="g1_1" />
<path d="M790.5,391.5l0,-21" class="g1_1" />
<path fill-rule="evenodd" d="M102,412l8,0l0,-20l-8,0l0,20Z" class="g3_1" />
<path fill-rule="evenodd" d="M223,412l8,0l0,-20l-8,0l0,20Z" class="g3_1" />
<path fill-rule="evenodd" d="M102,641l129,0l0,-229l-129,0l0,229Z" class="g3_1" />
<path fill-rule="evenodd" d="M110,412l113,0l0,-20l-113,0l0,20Z" class="g3_1" />
<path fill-rule="evenodd" d="M231,641l8,0l0,-249l-8,0l0,249Z" class="g2_1" />
<path fill-rule="evenodd" d="M782,641l8,0l0,-249l-8,0l0,249Z" class="g2_1" />
<path fill-rule="evenodd" d="M239,412l543,0l0,-20l-543,0l0,20Z" class="g2_1" />
<path fill-rule="evenodd" d="M239,433l543,0l0,-21l-543,0l0,21Z" class="g2_1" />
<path fill-rule="evenodd" d="M239,453l543,0l0,-20l-543,0l0,20Z" class="g2_1" />
<path fill-rule="evenodd" d="M239,475l543,0l0,-22l-543,0l0,22Z" class="g2_1" />
<path fill-rule="evenodd" d="M239,495l543,0l0,-20l-543,0l0,20Z" class="g2_1" />
<path fill-rule="evenodd" d="M239,517l543,0l0,-22l-543,0l0,22Z" class="g2_1" />
<path fill-rule="evenodd" d="M239,537l543,0l0,-20l-543,0l0,20Z" class="g2_1" />
<path fill-rule="evenodd" d="M239,559l543,0l0,-22l-543,0l0,22Z" class="g2_1" />
<path fill-rule="evenodd" d="M239,579l543,0l0,-20l-543,0l0,20Z" class="g2_1" />
<path fill-rule="evenodd" d="M239,600l543,0l0,-21l-543,0l0,21Z" class="g2_1" />
<path fill-rule="evenodd" d="M239,620l543,0l0,-20l-543,0l0,20Z" class="g2_1" />
<path fill-rule="evenodd" d="M239,641l543,0l0,-21l-543,0l0,21Z" class="g2_1" />
<path d="M101.5,392.5l0,-1" class="g1_1" />
<path d="M102.5,392.5l129,0" class="g1_1" />
<path d="M231.5,392.5l0,-1" class="g1_1" />
<path d="M231.5,392.5l559,0" class="g1_1" />
<path d="M790.5,392.5l0,-1" class="g1_1" />
<path d="M101.5,641.5l0,-249" class="g1_1" />
<path d="M231.5,641.5l0,-249" class="g1_1" />
<path d="M790.5,641.5l0,-249" class="g1_1" />
<path fill-rule="evenodd" d="M102,662l8,0l0,-21l-8,0l0,21Z" class="g3_1" />
<path fill-rule="evenodd" d="M223,662l8,0l0,-21l-8,0l0,21Z" class="g3_1" />
<path fill-rule="evenodd" d="M110,662l113,0l0,-21l-113,0l0,21Z" class="g3_1" />
<path fill-rule="evenodd" d="M231,662l8,0l0,-21l-8,0l0,21Z" class="g2_1" />
<path fill-rule="evenodd" d="M782,662l8,0l0,-21l-8,0l0,21Z" class="g2_1" />
<path fill-rule="evenodd" d="M239,662l543,0l0,-21l-543,0l0,21Z" class="g2_1" />
<path d="M102.5,641.5l129,0" class="g1_1" />
<path d="M231.5,641.5l559,0" class="g1_1" />
<path d="M101.5,662.5l0,-21" class="g1_1" />
<path d="M231.5,662.5l0,-21" class="g1_1" />
<path d="M790.5,662.5l0,-21" class="g1_1" />
<path fill-rule="evenodd" d="M102,683l8,0l0,-20l-8,0l0,20Z" class="g3_1" />
<path fill-rule="evenodd" d="M223,683l8,0l0,-20l-8,0l0,20Z" class="g3_1" />
<path fill-rule="evenodd" d="M102,1158l129,0l0,-475l-129,0l0,475Z" class="g3_1" />
<path fill-rule="evenodd" d="M110,683l113,0l0,-20l-113,0l0,20Z" class="g3_1" />
<path fill-rule="evenodd" d="M231,1158l8,0l0,-495l-8,0l0,495Z" class="g2_1" />
<path fill-rule="evenodd" d="M782,1158l8,0l0,-495l-8,0l0,495Z" class="g2_1" />
<path fill-rule="evenodd" d="M239,683l543,0l0,-20l-543,0l0,20Z" class="g2_1" />
<path fill-rule="evenodd" d="M239,704l543,0l0,-21l-543,0l0,21Z" class="g2_1" />
<path fill-rule="evenodd" d="M239,724l543,0l0,-20l-543,0l0,20Z" class="g2_1" />
<path fill-rule="evenodd" d="M239,745l543,0l0,-21l-543,0l0,21Z" class="g2_1" />
<path d="M266.5,743.5l124,0" class="g1_1" />
<path fill-rule="evenodd" d="M239,765l543,0l0,-20l-543,0l0,20Z" class="g2_1" />
<path fill-rule="evenodd" d="M239,786l543,0l0,-21l-543,0l0,21Z" class="g2_1" />
<path fill-rule="evenodd" d="M239,806l543,0l0,-20l-543,0l0,20Z" class="g2_1" />
<path d="M266.5,805.5l120,0" class="g1_1" />
<path fill-rule="evenodd" d="M239,827l543,0l0,-21l-543,0l0,21Z" class="g2_1" />
<path fill-rule="evenodd" d="M239,847l543,0l0,-20l-543,0l0,20Z" class="g2_1" />
<path fill-rule="evenodd" d="M239,868l543,0l0,-21l-543,0l0,21Z" class="g2_1" />
<path fill-rule="evenodd" d="M239,888l543,0l0,-20l-543,0l0,20Z" class="g2_1" />
<path fill-rule="evenodd" d="M239,909l543,0l0,-21l-543,0l0,21Z" class="g2_1" />
<path fill-rule="evenodd" d="M239,930l543,0l0,-21l-543,0l0,21Z" class="g2_1" />
<path fill-rule="evenodd" d="M239,950l543,0l0,-20l-543,0l0,20Z" class="g2_1" />
<path fill-rule="evenodd" d="M239,971l543,0l0,-21l-543,0l0,21Z" class="g2_1" />
<path fill-rule="evenodd" d="M239,991l543,0l0,-20l-543,0l0,20Z" class="g2_1" />
<path fill-rule="evenodd" d="M239,1011l543,0l0,-20l-543,0l0,20Z" class="g2_1" />
<path fill-rule="evenodd" d="M239,1033l543,0l0,-22l-543,0l0,22Z" class="g2_1" />
<path fill-rule="evenodd" d="M239,1053l543,0l0,-20l-543,0l0,20Z" class="g2_1" />
<path fill-rule="evenodd" d="M239,1075l543,0l0,-22l-543,0l0,22Z" class="g2_1" />
<path fill-rule="evenodd" d="M239,1095l543,0l0,-20l-543,0l0,20Z" class="g2_1" />
<path fill-rule="evenodd" d="M239,1116l543,0l0,-21l-543,0l0,21Z" class="g2_1" />
<path fill-rule="evenodd" d="M239,1137l543,0l0,-21l-543,0l0,21Z" class="g2_1" />
<path fill-rule="evenodd" d="M239,1158l543,0l0,-21l-543,0l0,21Z" class="g2_1" />
<path d="M101.5,663.5l0,-1" class="g1_1" />
<path d="M102.5,663.5l129,0" class="g1_1" />
<path d="M231.5,663.5l0,-1" class="g1_1" />
<path d="M231.5,663.5l559,0" class="g1_1" />
<path d="M790.5,663.5l0,-1" class="g1_1" />
<path d="M101.5,1158.5l0,-495" class="g1_1" />
<path d="M101.5,1159.5l0,-1" class="g1_1" />
<path d="M101.5,1159.5l0,-1" class="g1_1" />
<path d="M102.5,1159.5l129,0" class="g1_1" />
<path d="M231.5,1158.5l0,-495" class="g1_1" />
<path d="M231.5,1159.5l0,-1" class="g1_1" />
<path d="M231.5,1159.5l559,0" class="g1_1" />
<path d="M790.5,1158.5l0,-495" class="g1_1" />
<path d="M790.5,1159.5l0,-1" class="g1_1" />
<path d="M790.5,1159.5l0,-1" class="g1_1" />
</svg>