<?xml version="1.0" encoding="UTF-8" standalone="no"?>
<!DOCTYPE svg PUBLIC "-//W3C//DTD SVG 1.1//EN"
"http://www.w3.org/Graphics/SVG/1.1/DTD/svg11.dtd">
<svg version="1.1" xmlns="http://www.w3.org/2000/svg" xmlns:xlink="http://www.w3.org/1999/xlink">
<defs>
<style type="text/css"><![CDATA[
.g2_1{
fill: #F1F1F1;
}
.g3_1{
fill: #44546A;
}
.g1_1{
fill: none;
stroke: #000000;
stroke-width: 1;
stroke-linecap: butt;
stroke-linejoin: miter;
}
]]></style>
</defs>
<image x="111" y="54" width="238" height="56" xlink:href="img/1.png" />
<path d="M384.5,151.5l147,0" class="g1_1" />
<path fill-rule="evenodd" d="M101,168l346,0l0,-5l-346,0l0,5Z" class="g2_1" />
<path fill-rule="evenodd" d="M101,186l8,0l0,-18l-8,0l0,18Z" class="g2_1" />
<path fill-rule="evenodd" d="M439,186l8,0l0,-18l-8,0l0,18Z" class="g2_1" />
<path fill-rule="evenodd" d="M101,191l346,0l0,-5l-346,0l0,5Z" class="g2_1" />
<path fill-rule="evenodd" d="M109,186l330,0l0,-18l-330,0l0,18Z" class="g2_1" />
<path fill-rule="evenodd" d="M448,168l361,0l0,-5l-361,0l0,5Z" class="g2_1" />
<path fill-rule="evenodd" d="M448,186l8,0l0,-18l-8,0l0,18Z" class="g2_1" />
<path fill-rule="evenodd" d="M801,186l8,0l0,-18l-8,0l0,18Z" class="g2_1" />
<path fill-rule="evenodd" d="M448,191l361,0l0,-5l-361,0l0,5Z" class="g2_1" />
<path fill-rule="evenodd" d="M456,186l345,0l0,-18l-345,0l0,18Z" class="g2_1" />
<path d="M101.5,163.5l346,0" class="g1_1" />
<path d="M448.5,163.5l361,0" class="g1_1" />
<path d="M101.5,191.5l0,-28" class="g1_1" />
<path d="M447.5,191.5l0,-28" class="g1_1" />
<path d="M809.5,191.5l0,-28" class="g1_1" />
<path d="M101.5,191.5l346,0" class="g1_1" />
<path d="M448.5,191.5l361,0" class="g1_1" />
<path d="M101.5,222.5l0,-31" class="g1_1" />
<path d="M447.5,222.5l0,-31" class="g1_1" />
<path d="M809.5,222.5l0,-31" class="g1_1" />
<path d="M101.5,223.5l0,-1" class="g1_1" />
<path d="M101.5,223.5l346,0" class="g1_1" />
<path d="M447.5,223.5l0,-1" class="g1_1" />
<path d="M448.5,223.5l361,0" class="g1_1" />
<path d="M809.5,223.5l0,-1" class="g1_1" />
<path d="M101.5,245.5l0,-22" class="g1_1" />
<path d="M101.5,246.5l0,-1" class="g1_1" />
<path d="M101.5,246.5l0,-1" class="g1_1" />
<path d="M101.5,246.5l346,0" class="g1_1" />
<path d="M447.5,245.5l0,-22" class="g1_1" />
<path d="M447.5,246.5l0,-1" class="g1_1" />
<path d="M448.5,246.5l361,0" class="g1_1" />
<path d="M809.5,245.5l0,-22" class="g1_1" />
<path d="M809.5,246.5l0,-1" class="g1_1" />
<path d="M809.5,246.5l0,-1" class="g1_1" />
<path fill-rule="evenodd" d="M102,301l8,0l0,-21l-8,0l0,21Z" class="g3_1" />
<path fill-rule="evenodd" d="M214,301l8,0l0,-21l-8,0l0,21Z" class="g3_1" />
<path fill-rule="evenodd" d="M110,301l104,0l0,-21l-104,0l0,21Z" class="g3_1" />
<path fill-rule="evenodd" d="M222,301l8,0l0,-21l-8,0l0,21Z" class="g2_1" />
<path fill-rule="evenodd" d="M805,301l8,0l0,-21l-8,0l0,21Z" class="g2_1" />
<path fill-rule="evenodd" d="M230,301l575,0l0,-21l-575,0l0,21Z" class="g2_1" />
<path d="M102.5,280.5l120,0" class="g1_1" />
<path d="M222.5,280.5l591,0" class="g1_1" />
<path d="M101.5,301.5l0,-21" class="g1_1" />
<path d="M222.5,301.5l0,-21" class="g1_1" />
<path d="M813.5,301.5l0,-21" class="g1_1" />
<path fill-rule="evenodd" d="M102,343l8,0l0,-41l-8,0l0,41Z" class="g3_1" />
<path fill-rule="evenodd" d="M214,343l8,0l0,-41l-8,0l0,41Z" class="g3_1" />
<path fill-rule="evenodd" d="M110,322l104,0l0,-20l-104,0l0,20Z" class="g3_1" />
<path fill-rule="evenodd" d="M110,343l104,0l0,-21l-104,0l0,21Z" class="g3_1" />
<path fill-rule="evenodd" d="M222,322l8,0l0,-20l-8,0l0,20Z" class="g2_1" />
<path fill-rule="evenodd" d="M805,322l8,0l0,-20l-8,0l0,20Z" class="g2_1" />
<path fill-rule="evenodd" d="M222,343l591,0l0,-21l-591,0l0,21Z" class="g2_1" />
<path fill-rule="evenodd" d="M230,322l575,0l0,-20l-575,0l0,20Z" class="g2_1" />
<path d="M101.5,302.5l0,-1" class="g1_1" />
<path d="M102.5,302.5l120,0" class="g1_1" />
<path d="M222.5,302.5l0,-1" class="g1_1" />
<path d="M222.5,302.5l591,0" class="g1_1" />
<path d="M813.5,302.5l0,-1" class="g1_1" />
<path d="M101.5,343.5l0,-41" class="g1_1" />
<path d="M222.5,343.5l0,-41" class="g1_1" />
<path d="M813.5,343.5l0,-41" class="g1_1" />
<path fill-rule="evenodd" d="M102,364l8,0l0,-21l-8,0l0,21Z" class="g3_1" />
<path fill-rule="evenodd" d="M214,364l8,0l0,-21l-8,0l0,21Z" class="g3_1" />
<path fill-rule="evenodd" d="M110,364l104,0l0,-21l-104,0l0,21Z" class="g3_1" />
<path fill-rule="evenodd" d="M222,364l8,0l0,-21l-8,0l0,21Z" class="g2_1" />
<path fill-rule="evenodd" d="M805,364l8,0l0,-21l-8,0l0,21Z" class="g2_1" />
<path fill-rule="evenodd" d="M230,364l575,0l0,-21l-575,0l0,21Z" class="g2_1" />
<path d="M102.5,343.5l120,0" class="g1_1" />
<path d="M222.5,343.5l591,0" class="g1_1" />
<path d="M101.5,364.5l0,-21" class="g1_1" />
<path d="M222.5,364.5l0,-21" class="g1_1" />
<path d="M813.5,364.5l0,-21" class="g1_1" />
<path fill-rule="evenodd" d="M102,385l8,0l0,-20l-8,0l0,20Z" class="g3_1" />
<path fill-rule="evenodd" d="M214,385l8,0l0,-20l-8,0l0,20Z" class="g3_1" />
<path fill-rule="evenodd" d="M110,385l104,0l0,-20l-104,0l0,20Z" class="g3_1" />
<path fill-rule="evenodd" d="M222,385l8,0l0,-20l-8,0l0,20Z" class="g2_1" />
<path fill-rule="evenodd" d="M805,385l8,0l0,-20l-8,0l0,20Z" class="g2_1" />
<path fill-rule="evenodd" d="M230,385l575,0l0,-20l-575,0l0,20Z" class="g2_1" />
<path d="M101.5,365.5l0,-1" class="g1_1" />
<path d="M102.5,365.5l120,0" class="g1_1" />
<path d="M222.5,365.5l0,-1" class="g1_1" />
<path d="M222.5,365.5l591,0" class="g1_1" />
<path d="M813.5,365.5l0,-1" class="g1_1" />
<path d="M101.5,385.5l0,-20" class="g1_1" />
<path d="M222.5,385.5l0,-20" class="g1_1" />
<path d="M813.5,385.5l0,-20" class="g1_1" />
<path fill-rule="evenodd" d="M102,407l8,0l0,-21l-8,0l0,21Z" class="g3_1" />
<path fill-rule="evenodd" d="M214,407l8,0l0,-21l-8,0l0,21Z" class="g3_1" />
<path fill-rule="evenodd" d="M110,407l104,0l0,-21l-104,0l0,21Z" class="g3_1" />
<path fill-rule="evenodd" d="M222,407l8,0l0,-21l-8,0l0,21Z" class="g2_1" />
<path fill-rule="evenodd" d="M805,407l8,0l0,-21l-8,0l0,21Z" class="g2_1" />
<path fill-rule="evenodd" d="M230,407l575,0l0,-21l-575,0l0,21Z" class="g2_1" />
<path d="M101.5,386.5l0,-1" class="g1_1" />
<path d="M102.5,386.5l120,0" class="g1_1" />
<path d="M222.5,386.5l0,-1" class="g1_1" />
<path d="M222.5,386.5l591,0" class="g1_1" />
<path d="M813.5,386.5l0,-1" class="g1_1" />
<path d="M101.5,407.5l0,-21" class="g1_1" />
<path d="M222.5,407.5l0,-21" class="g1_1" />
<path d="M813.5,407.5l0,-21" class="g1_1" />
<path fill-rule="evenodd" d="M102,428l8,0l0,-21l-8,0l0,21Z" class="g3_1" />
<path fill-rule="evenodd" d="M214,428l8,0l0,-21l-8,0l0,21Z" class="g3_1" />
<path fill-rule="evenodd" d="M102,1161l120,0l0,-733l-120,0l0,733Z" class="g3_1" />
<path fill-rule="evenodd" d="M110,428l104,0l0,-21l-104,0l0,21Z" class="g3_1" />
<path fill-rule="evenodd" d="M222,1161l8,0l0,-754l-8,0l0,754Z" class="g2_1" />
<path fill-rule="evenodd" d="M805,1161l8,0l0,-754l-8,0l0,754Z" class="g2_1" />
<path fill-rule="evenodd" d="M230,449l575,0l0,-42l-575,0l0,42Z" class="g2_1" />
<path fill-rule="evenodd" d="M230,470l575,0l0,-21l-575,0l0,21Z" class="g2_1" />
<path fill-rule="evenodd" d="M230,512l575,0l0,-42l-575,0l0,42Z" class="g2_1" />
<path fill-rule="evenodd" d="M230,532l575,0l0,-20l-575,0l0,20Z" class="g2_1" />
<path fill-rule="evenodd" d="M230,553l575,0l0,-21l-575,0l0,21Z" class="g2_1" />
<path fill-rule="evenodd" d="M230,594l575,0l0,-41l-575,0l0,41Z" class="g2_1" />
<path fill-rule="evenodd" d="M230,615l575,0l0,-21l-575,0l0,21Z" class="g2_1" />
<path fill-rule="evenodd" d="M230,636l575,0l0,-21l-575,0l0,21Z" class="g2_1" />
<path fill-rule="evenodd" d="M230,656l575,0l0,-20l-575,0l0,20Z" class="g2_1" />
<path fill-rule="evenodd" d="M230,677l575,0l0,-21l-575,0l0,21Z" class="g2_1" />
<path fill-rule="evenodd" d="M230,697l575,0l0,-20l-575,0l0,20Z" class="g2_1" />
<path fill-rule="evenodd" d="M230,739l575,0l0,-42l-575,0l0,42Z" class="g2_1" />
<path fill-rule="evenodd" d="M230,760l575,0l0,-21l-575,0l0,21Z" class="g2_1" />
<path fill-rule="evenodd" d="M230,780l575,0l0,-20l-575,0l0,20Z" class="g2_1" />
<path fill-rule="evenodd" d="M230,801l575,0l0,-21l-575,0l0,21Z" class="g2_1" />
<path fill-rule="evenodd" d="M230,821l575,0l0,-20l-575,0l0,20Z" class="g2_1" />
<path fill-rule="evenodd" d="M230,842l575,0l0,-21l-575,0l0,21Z" class="g2_1" />
<path fill-rule="evenodd" d="M230,884l575,0l0,-42l-575,0l0,42Z" class="g2_1" />
<path fill-rule="evenodd" d="M230,904l575,0l0,-20l-575,0l0,20Z" class="g2_1" />
<path fill-rule="evenodd" d="M230,928l575,0l0,-24l-575,0l0,24Z" class="g2_1" />
<path fill-rule="evenodd" d="M230,973l575,0l0,-45l-575,0l0,45Z" class="g2_1" />
<path fill-rule="evenodd" d="M230,993l575,0l0,-20l-575,0l0,20Z" class="g2_1" />
<path fill-rule="evenodd" d="M230,1014l575,0l0,-21l-575,0l0,21Z" class="g2_1" />
<path fill-rule="evenodd" d="M230,1034l575,0l0,-20l-575,0l0,20Z" class="g2_1" />
<path fill-rule="evenodd" d="M230,1056l575,0l0,-22l-575,0l0,22Z" class="g2_1" />
<path fill-rule="evenodd" d="M230,1077l575,0l0,-21l-575,0l0,21Z" class="g2_1" />
<path fill-rule="evenodd" d="M230,1098l575,0l0,-21l-575,0l0,21Z" class="g2_1" />
<path fill-rule="evenodd" d="M230,1119l575,0l0,-21l-575,0l0,21Z" class="g2_1" />
<path fill-rule="evenodd" d="M230,1139l575,0l0,-20l-575,0l0,20Z" class="g2_1" />
<path fill-rule="evenodd" d="M230,1161l575,0l0,-22l-575,0l0,22Z" class="g2_1" />
<path d="M102.5,407.5l120,0" class="g1_1" />
<path d="M222.5,407.5l591,0" class="g1_1" />
<path d="M101.5,1161.5l0,-754" class="g1_1" />
<path d="M101.5,1162.5l0,-1" class="g1_1" />
<path d="M101.5,1162.5l0,-1" class="g1_1" />
<path d="M102.5,1162.5l120,0" class="g1_1" />
<path d="M222.5,1161.5l0,-754" class="g1_1" />
<path d="M222.5,1162.5l0,-1" class="g1_1" />
<path d="M222.5,1162.5l591,0" class="g1_1" />
<path d="M813.5,1161.5l0,-754" class="g1_1" />
<path d="M813.5,1162.5l0,-1" class="g1_1" />
<path d="M813.5,1162.5l0,-1" class="g1_1" />
</svg>