<?xml version="1.0" encoding="UTF-8" standalone="no"?>
<!DOCTYPE svg PUBLIC "-//W3C//DTD SVG 1.1//EN"
"http://www.w3.org/Graphics/SVG/1.1/DTD/svg11.dtd">
<svg version="1.1" xmlns="http://www.w3.org/2000/svg" xmlns:xlink="http://www.w3.org/1999/xlink">
<defs>
<clipPath id="c0_2"><path d="M231.5,351.5l0,-221l559,0l0,221Z" /></clipPath>
<style type="text/css"><![CDATA[
.g2_2{
fill: #F1F1F1;
}
.g3_2{
fill: none;
stroke: #000000;
stroke-width: 1;
stroke-linecap: butt;
stroke-linejoin: miter;
}
.g1_2{
fill: #44546A;
}
]]></style>
</defs>
<image x="110" y="54" width="238" height="56" xlink:href="img/1.png" />
<path fill-rule="evenodd" d="M102,351l129,0l0,-221l-129,0l0,221Z" class="g1_2" />
<path fill-rule="evenodd" d="M231,351l8,0l0,-221l-8,0l0,221Z" class="g2_2" />
<path fill-rule="evenodd" d="M782,351l8,0l0,-221l-8,0l0,221Z" class="g2_2" />
<g clip-path="url(#c0_2)">
<path fill-rule="evenodd" d="M239,156l543,0l0,-26l-543,0l0,26Z" class="g2_2" />
</g>
<path fill-rule="evenodd" d="M239,181l543,0l0,-25l-543,0l0,25Z" class="g2_2" />
<path fill-rule="evenodd" d="M239,207l543,0l0,-26l-543,0l0,26Z" class="g2_2" />
<path fill-rule="evenodd" d="M239,233l543,0l0,-26l-543,0l0,26Z" class="g2_2" />
<path fill-rule="evenodd" d="M239,259l543,0l0,-26l-543,0l0,26Z" class="g2_2" />
<path fill-rule="evenodd" d="M239,284l543,0l0,-25l-543,0l0,25Z" class="g2_2" />
<path fill-rule="evenodd" d="M239,310l543,0l0,-26l-543,0l0,26Z" class="g2_2" />
<path fill-rule="evenodd" d="M239,351l543,0l0,-41l-543,0l0,41Z" class="g2_2" />
<path d="M101.5,130.5l0,-1" class="g3_2" />
<path d="M101.5,130.5l0,-1" class="g3_2" />
<path d="M102.5,130.5l129,0" class="g3_2" />
<path d="M231.5,130.5l0,-1" class="g3_2" />
<path d="M231.5,130.5l559,0" class="g3_2" />
<path d="M790.5,130.5l0,-1" class="g3_2" />
<path d="M790.5,130.5l0,-1" class="g3_2" />
<path d="M101.5,351.5l0,-221" class="g3_2" />
<path d="M231.5,351.5l0,-221" class="g3_2" />
<path d="M790.5,351.5l0,-221" class="g3_2" />
<path fill-rule="evenodd" d="M102,374l8,0l0,-22l-8,0l0,22Z" class="g1_2" />
<path fill-rule="evenodd" d="M223,374l8,0l0,-22l-8,0l0,22Z" class="g1_2" />
<path fill-rule="evenodd" d="M110,374l113,0l0,-22l-113,0l0,22Z" class="g1_2" />
<path fill-rule="evenodd" d="M231,374l8,0l0,-22l-8,0l0,22Z" class="g2_2" />
<path fill-rule="evenodd" d="M782,374l8,0l0,-22l-8,0l0,22Z" class="g2_2" />
<path fill-rule="evenodd" d="M239,374l543,0l0,-22l-543,0l0,22Z" class="g2_2" />
<path d="M101.5,352.5l0,-1" class="g3_2" />
<path d="M102.5,352.5l129,0" class="g3_2" />
<path d="M231.5,352.5l0,-1" class="g3_2" />
<path d="M231.5,352.5l559,0" class="g3_2" />
<path d="M790.5,352.5l0,-1" class="g3_2" />
<path d="M101.5,374.5l0,-22" class="g3_2" />
<path d="M231.5,374.5l0,-22" class="g3_2" />
<path d="M790.5,374.5l0,-22" class="g3_2" />
<path fill-rule="evenodd" d="M102,397l8,0l0,-22l-8,0l0,22Z" class="g1_2" />
<path fill-rule="evenodd" d="M223,397l8,0l0,-22l-8,0l0,22Z" class="g1_2" />
<path fill-rule="evenodd" d="M102,487l129,0l0,-90l-129,0l0,90Z" class="g1_2" />
<path fill-rule="evenodd" d="M110,397l113,0l0,-22l-113,0l0,22Z" class="g1_2" />
<path fill-rule="evenodd" d="M231,487l8,0l0,-112l-8,0l0,112Z" class="g2_2" />
<path fill-rule="evenodd" d="M782,487l8,0l0,-112l-8,0l0,112Z" class="g2_2" />
<path fill-rule="evenodd" d="M239,397l543,0l0,-22l-543,0l0,22Z" class="g2_2" />
<path fill-rule="evenodd" d="M239,420l543,0l0,-23l-543,0l0,23Z" class="g2_2" />
<path fill-rule="evenodd" d="M239,442l543,0l0,-22l-543,0l0,22Z" class="g2_2" />
<path fill-rule="evenodd" d="M239,465l543,0l0,-23l-543,0l0,23Z" class="g2_2" />
<path fill-rule="evenodd" d="M239,487l543,0l0,-22l-543,0l0,22Z" class="g2_2" />
<path d="M101.5,375.5l0,-1" class="g3_2" />
<path d="M102.5,375.5l129,0" class="g3_2" />
<path d="M231.5,375.5l0,-1" class="g3_2" />
<path d="M231.5,375.5l559,0" class="g3_2" />
<path d="M790.5,375.5l0,-1" class="g3_2" />
<path d="M101.5,487.5l0,-112" class="g3_2" />
<path d="M101.5,488.5l0,-1" class="g3_2" />
<path d="M101.5,488.5l0,-1" class="g3_2" />
<path d="M102.5,488.5l129,0" class="g3_2" />
<path d="M231.5,487.5l0,-112" class="g3_2" />
<path d="M231.5,488.5l0,-1" class="g3_2" />
<path d="M231.5,488.5l559,0" class="g3_2" />
<path d="M790.5,487.5l0,-112" class="g3_2" />
<path d="M790.5,488.5l0,-1" class="g3_2" />
<path d="M790.5,488.5l0,-1" class="g3_2" />
</svg>