<?xml version="1.0" encoding="UTF-8" standalone="no"?>
<!DOCTYPE svg PUBLIC "-//W3C//DTD SVG 1.1//EN"
"http://www.w3.org/Graphics/SVG/1.1/DTD/svg11.dtd">
<svg version="1.1" xmlns="http://www.w3.org/2000/svg" xmlns:xlink="http://www.w3.org/1999/xlink">
<defs>
<style type="text/css"><![CDATA[
.g2_2{
fill: #D5DCE4;
}
.g4_2{
fill: #F1F1F1;
}
.g3_2{
fill: none;
stroke: #000000;
stroke-width: 1;
stroke-linecap: butt;
stroke-linejoin: miter;
}
.g1_2{
}
]]></style>
</defs>
<image x="111" y="54" width="234" height="55" xlink:href="img/1.png" />
<path fill-rule="evenodd" d="M317,182l279,0l0,-2l-279,0l0,2Z" class="g1_2" />
<path fill-rule="evenodd" d="M102,288l8,0l0,-64l-8,0l0,64Z" class="g2_2" />
<path fill-rule="evenodd" d="M195,288l8,0l0,-64l-8,0l0,64Z" class="g2_2" />
<path fill-rule="evenodd" d="M110,246l85,0l0,-22l-85,0l0,22Z" class="g2_2" />
<path fill-rule="evenodd" d="M110,267l85,0l0,-21l-85,0l0,21Z" class="g2_2" />
<path fill-rule="evenodd" d="M110,288l85,0l0,-21l-85,0l0,21Z" class="g2_2" />
<path fill-rule="evenodd" d="M204,246l453,0l0,-22l-453,0l0,22Z" class="g2_2" />
<path fill-rule="evenodd" d="M204,267l8,0l0,-21l-8,0l0,21Z" class="g2_2" />
<path fill-rule="evenodd" d="M650,267l7,0l0,-21l-7,0l0,21Z" class="g2_2" />
<path fill-rule="evenodd" d="M204,288l453,0l0,-21l-453,0l0,21Z" class="g2_2" />
<path fill-rule="evenodd" d="M212,267l438,0l0,-21l-438,0l0,21Z" class="g2_2" />
<path fill-rule="evenodd" d="M658,246l165,0l0,-22l-165,0l0,22Z" class="g2_2" />
<path fill-rule="evenodd" d="M658,267l8,0l0,-21l-8,0l0,21Z" class="g2_2" />
<path fill-rule="evenodd" d="M815,267l8,0l0,-21l-8,0l0,21Z" class="g2_2" />
<path fill-rule="evenodd" d="M658,288l165,0l0,-21l-165,0l0,21Z" class="g2_2" />
<path fill-rule="evenodd" d="M666,267l149,0l0,-21l-149,0l0,21Z" class="g2_2" />
<path d="M101.5,224.5l0,-1" class="g3_2" />
<path d="M101.5,224.5l0,-1" class="g3_2" />
<path d="M102.5,224.5l101,0" class="g3_2" />
<path d="M203.5,224.5l0,-1" class="g3_2" />
<path d="M204.5,224.5l453,0" class="g3_2" />
<path d="M657.5,224.5l0,-1" class="g3_2" />
<path d="M658.5,224.5l165,0" class="g3_2" />
<path d="M823.5,224.5l0,-1" class="g3_2" />
<path d="M823.5,224.5l0,-1" class="g3_2" />
<path d="M101.5,288.5l0,-64" class="g3_2" />
<path d="M203.5,288.5l0,-64" class="g3_2" />
<path d="M657.5,288.5l0,-64" class="g3_2" />
<path d="M823.5,288.5l0,-64" class="g3_2" />
<path d="M101.5,289.5l0,-1" class="g3_2" />
<path d="M102.5,289.5l101,0" class="g3_2" />
<path d="M203.5,289.5l0,-1" class="g3_2" />
<path d="M204.5,289.5l453,0" class="g3_2" />
<path d="M657.5,289.5l0,-1" class="g3_2" />
<path d="M658.5,289.5l165,0" class="g3_2" />
<path d="M823.5,289.5l0,-1" class="g3_2" />
<path d="M101.5,375.5l0,-86" class="g3_2" />
<path d="M203.5,375.5l0,-86" class="g3_2" />
<path d="M657.5,375.5l0,-86" class="g3_2" />
<path d="M823.5,375.5l0,-86" class="g3_2" />
<path fill-rule="evenodd" d="M102,397l8,0l0,-21l-8,0l0,21Z" class="g4_2" />
<path fill-rule="evenodd" d="M815,397l8,0l0,-21l-8,0l0,21Z" class="g4_2" />
<path fill-rule="evenodd" d="M110,397l705,0l0,-21l-705,0l0,21Z" class="g4_2" />
<path d="M101.5,376.5l0,-1" class="g3_2" />
<path d="M102.5,376.5l101,0" class="g3_2" />
<path d="M203.5,376.5l0,-1" class="g3_2" />
<path d="M204.5,376.5l453,0" class="g3_2" />
<path d="M657.5,376.5l0,-1" class="g3_2" />
<path d="M658.5,376.5l165,0" class="g3_2" />
<path d="M823.5,376.5l0,-1" class="g3_2" />
<path d="M101.5,397.5l0,-21" class="g3_2" />
<path d="M823.5,397.5l0,-21" class="g3_2" />
<path d="M101.5,398.5l0,-1" class="g3_2" />
<path d="M102.5,398.5l101,0" class="g3_2" />
<path d="M203.5,398.5l0,-1" class="g3_2" />
<path d="M204.5,398.5l453,0" class="g3_2" />
<path d="M657.5,398.5l0,-1" class="g3_2" />
<path d="M658.5,398.5l165,0" class="g3_2" />
<path d="M823.5,398.5l0,-1" class="g3_2" />
<path d="M101.5,441.5l0,-43" class="g3_2" />
<path d="M203.5,441.5l0,-43" class="g3_2" />
<path d="M657.5,441.5l0,-43" class="g3_2" />
<path d="M823.5,441.5l0,-43" class="g3_2" />
<path fill-rule="evenodd" d="M102,463l8,0l0,-21l-8,0l0,21Z" class="g4_2" />
<path fill-rule="evenodd" d="M815,463l8,0l0,-21l-8,0l0,21Z" class="g4_2" />
<path fill-rule="evenodd" d="M110,463l705,0l0,-21l-705,0l0,21Z" class="g4_2" />
<path d="M101.5,442.5l0,-1" class="g3_2" />
<path d="M102.5,442.5l101,0" class="g3_2" />
<path d="M203.5,442.5l0,-1" class="g3_2" />
<path d="M204.5,442.5l453,0" class="g3_2" />
<path d="M657.5,442.5l0,-1" class="g3_2" />
<path d="M658.5,442.5l165,0" class="g3_2" />
<path d="M823.5,442.5l0,-1" class="g3_2" />
<path d="M101.5,463.5l0,-21" class="g3_2" />
<path d="M823.5,463.5l0,-21" class="g3_2" />
<path d="M101.5,464.5l0,-1" class="g3_2" />
<path d="M102.5,464.5l101,0" class="g3_2" />
<path d="M203.5,464.5l0,-1" class="g3_2" />
<path d="M204.5,464.5l453,0" class="g3_2" />
<path d="M657.5,464.5l0,-1" class="g3_2" />
<path d="M658.5,464.5l165,0" class="g3_2" />
<path d="M823.5,464.5l0,-1" class="g3_2" />
<path d="M101.5,498.5l0,-34" class="g3_2" />
<path d="M203.5,498.5l0,-34" class="g3_2" />
<path d="M657.5,498.5l0,-34" class="g3_2" />
<path d="M823.5,498.5l0,-34" class="g3_2" />
<path fill-rule="evenodd" d="M102,520l8,0l0,-22l-8,0l0,22Z" class="g4_2" />
<path fill-rule="evenodd" d="M815,520l8,0l0,-22l-8,0l0,22Z" class="g4_2" />
<path fill-rule="evenodd" d="M110,520l705,0l0,-22l-705,0l0,22Z" class="g4_2" />
<path d="M102.5,498.5l101,0" class="g3_2" />
<path d="M204.5,498.5l453,0" class="g3_2" />
<path d="M658.5,498.5l165,0" class="g3_2" />
<path d="M101.5,520.5l0,-22" class="g3_2" />
<path d="M823.5,520.5l0,-22" class="g3_2" />
<path d="M102.5,520.5l101,0" class="g3_2" />
<path d="M204.5,520.5l453,0" class="g3_2" />
<path d="M658.5,520.5l165,0" class="g3_2" />
<path d="M101.5,552.5l0,-32" class="g3_2" />
<path d="M203.5,552.5l0,-32" class="g3_2" />
<path d="M657.5,552.5l0,-32" class="g3_2" />
<path d="M823.5,552.5l0,-32" class="g3_2" />
<path fill-rule="evenodd" d="M102,574l8,0l0,-21l-8,0l0,21Z" class="g4_2" />
<path fill-rule="evenodd" d="M815,574l8,0l0,-21l-8,0l0,21Z" class="g4_2" />
<path fill-rule="evenodd" d="M110,574l705,0l0,-21l-705,0l0,21Z" class="g4_2" />
<path d="M101.5,553.5l0,-1" class="g3_2" />
<path d="M102.5,553.5l101,0" class="g3_2" />
<path d="M203.5,553.5l0,-1" class="g3_2" />
<path d="M204.5,553.5l453,0" class="g3_2" />
<path d="M657.5,553.5l0,-1" class="g3_2" />
<path d="M658.5,553.5l165,0" class="g3_2" />
<path d="M823.5,553.5l0,-1" class="g3_2" />
<path d="M101.5,574.5l0,-21" class="g3_2" />
<path d="M823.5,574.5l0,-21" class="g3_2" />
<path d="M101.5,575.5l0,-1" class="g3_2" />
<path d="M102.5,575.5l101,0" class="g3_2" />
<path d="M203.5,575.5l0,-1" class="g3_2" />
<path d="M204.5,575.5l453,0" class="g3_2" />
<path d="M657.5,575.5l0,-1" class="g3_2" />
<path d="M658.5,575.5l165,0" class="g3_2" />
<path d="M823.5,575.5l0,-1" class="g3_2" />
<path d="M101.5,621.5l0,-46" class="g3_2" />
<path d="M203.5,621.5l0,-46" class="g3_2" />
<path d="M657.5,621.5l0,-46" class="g3_2" />
<path d="M823.5,621.5l0,-46" class="g3_2" />
<path fill-rule="evenodd" d="M102,643l8,0l0,-21l-8,0l0,21Z" class="g4_2" />
<path fill-rule="evenodd" d="M815,643l8,0l0,-21l-8,0l0,21Z" class="g4_2" />
<path fill-rule="evenodd" d="M110,643l705,0l0,-21l-705,0l0,21Z" class="g4_2" />
<path d="M101.5,622.5l0,-1" class="g3_2" />
<path d="M102.5,622.5l101,0" class="g3_2" />
<path d="M203.5,622.5l0,-1" class="g3_2" />
<path d="M204.5,622.5l453,0" class="g3_2" />
<path d="M657.5,622.5l0,-1" class="g3_2" />
<path d="M658.5,622.5l165,0" class="g3_2" />
<path d="M823.5,622.5l0,-1" class="g3_2" />
<path d="M101.5,643.5l0,-21" class="g3_2" />
<path d="M823.5,643.5l0,-21" class="g3_2" />
<path d="M101.5,644.5l0,-1" class="g3_2" />
<path d="M102.5,644.5l101,0" class="g3_2" />
<path d="M203.5,644.5l0,-1" class="g3_2" />
<path d="M204.5,644.5l453,0" class="g3_2" />
<path d="M657.5,644.5l0,-1" class="g3_2" />
<path d="M658.5,644.5l165,0" class="g3_2" />
<path d="M823.5,644.5l0,-1" class="g3_2" />
<path d="M101.5,694.5l0,-50" class="g3_2" />
<path d="M203.5,694.5l0,-50" class="g3_2" />
<path d="M657.5,694.5l0,-50" class="g3_2" />
<path d="M823.5,694.5l0,-50" class="g3_2" />
<path fill-rule="evenodd" d="M102,716l8,0l0,-21l-8,0l0,21Z" class="g4_2" />
<path fill-rule="evenodd" d="M815,716l8,0l0,-21l-8,0l0,21Z" class="g4_2" />
<path fill-rule="evenodd" d="M110,716l705,0l0,-21l-705,0l0,21Z" class="g4_2" />
<path d="M101.5,695.5l0,-1" class="g3_2" />
<path d="M102.5,695.5l101,0" class="g3_2" />
<path d="M203.5,695.5l0,-1" class="g3_2" />
<path d="M204.5,695.5l453,0" class="g3_2" />
<path d="M657.5,695.5l0,-1" class="g3_2" />
<path d="M658.5,695.5l165,0" class="g3_2" />
<path d="M823.5,695.5l0,-1" class="g3_2" />
<path d="M101.5,716.5l0,-21" class="g3_2" />
<path d="M101.5,717.5l0,-1" class="g3_2" />
<path d="M101.5,717.5l0,-1" class="g3_2" />
<path d="M102.5,717.5l721,0" class="g3_2" />
<path d="M823.5,716.5l0,-21" class="g3_2" />
<path d="M823.5,717.5l0,-1" class="g3_2" />
<path d="M823.5,717.5l0,-1" class="g3_2" />
</svg>