<?xml version="1.0" encoding="UTF-8" standalone="no"?>
<!DOCTYPE svg PUBLIC "-//W3C//DTD SVG 1.1//EN"
"http://www.w3.org/Graphics/SVG/1.1/DTD/svg11.dtd">
<svg version="1.1" xmlns="http://www.w3.org/2000/svg" xmlns:xlink="http://www.w3.org/1999/xlink">
<defs>
<style type="text/css"><![CDATA[
.g4_2{
fill: none;
stroke: #000000;
stroke-width: 1;
stroke-linecap: butt;
stroke-linejoin: miter;
}
.g2_2{
fill: #F1F1F1;
}
.g3_2{
}
.g1_2{
fill: #44546A;
}
]]></style>
</defs>
<image x="96" y="54" width="238" height="57" xlink:href="img/1.png" />
<path fill-rule="evenodd" d="M88,1085l129,0l0,-954L88,131l0,954Z" class="g1_2" />
<path fill-rule="evenodd" d="M218,1085l8,0l0,-954l-8,0l0,954Z" class="g2_2" />
<path fill-rule="evenodd" d="M767,1085l7,0l0,-954l-7,0l0,954Z" class="g2_2" />
<path fill-rule="evenodd" d="M226,153l541,0l0,-22l-541,0l0,22Z" class="g2_2" />
<path fill-rule="evenodd" d="M226,176l541,0l0,-23l-541,0l0,23Z" class="g2_2" />
<path fill-rule="evenodd" d="M226,198l541,0l0,-22l-541,0l0,22Z" class="g2_2" />
<path fill-rule="evenodd" d="M226,220l541,0l0,-22l-541,0l0,22Z" class="g2_2" />
<path fill-rule="evenodd" d="M226,252l541,0l0,-32l-541,0l0,32Z" class="g2_2" />
<path fill-rule="evenodd" d="M226,274l541,0l0,-22l-541,0l0,22Z" class="g2_2" />
<path fill-rule="evenodd" d="M245,273l258,0l0,-2l-258,0l0,2Z" class="g3_2" />
<path fill-rule="evenodd" d="M226,297l541,0l0,-23l-541,0l0,23Z" class="g2_2" />
<path fill-rule="evenodd" d="M226,319l541,0l0,-22l-541,0l0,22Z" class="g2_2" />
<path fill-rule="evenodd" d="M226,341l541,0l0,-22l-541,0l0,22Z" class="g2_2" />
<path fill-rule="evenodd" d="M226,364l541,0l0,-23l-541,0l0,23Z" class="g2_2" />
<path fill-rule="evenodd" d="M226,387l541,0l0,-23l-541,0l0,23Z" class="g2_2" />
<path fill-rule="evenodd" d="M226,411l541,0l0,-24l-541,0l0,24Z" class="g2_2" />
<path fill-rule="evenodd" d="M226,433l541,0l0,-22l-541,0l0,22Z" class="g2_2" />
<path fill-rule="evenodd" d="M226,456l541,0l0,-23l-541,0l0,23Z" class="g2_2" />
<path fill-rule="evenodd" d="M226,479l541,0l0,-23l-541,0l0,23Z" class="g2_2" />
<path fill-rule="evenodd" d="M226,502l541,0l0,-23l-541,0l0,23Z" class="g2_2" />
<path fill-rule="evenodd" d="M226,524l541,0l0,-22l-541,0l0,22Z" class="g2_2" />
<path fill-rule="evenodd" d="M226,548l541,0l0,-24l-541,0l0,24Z" class="g2_2" />
<path fill-rule="evenodd" d="M226,570l541,0l0,-22l-541,0l0,22Z" class="g2_2" />
<path fill-rule="evenodd" d="M226,592l541,0l0,-22l-541,0l0,22Z" class="g2_2" />
<path fill-rule="evenodd" d="M226,615l541,0l0,-23l-541,0l0,23Z" class="g2_2" />
<path fill-rule="evenodd" d="M226,637l541,0l0,-22l-541,0l0,22Z" class="g2_2" />
<path fill-rule="evenodd" d="M226,660l541,0l0,-23l-541,0l0,23Z" class="g2_2" />
<path fill-rule="evenodd" d="M226,682l541,0l0,-22l-541,0l0,22Z" class="g2_2" />
<path fill-rule="evenodd" d="M226,704l541,0l0,-22l-541,0l0,22Z" class="g2_2" />
<path fill-rule="evenodd" d="M226,727l541,0l0,-23l-541,0l0,23Z" class="g2_2" />
<path fill-rule="evenodd" d="M245,725l194,0l0,-2l-194,0l0,2Z" class="g3_2" />
<path fill-rule="evenodd" d="M226,749l541,0l0,-22l-541,0l0,22Z" class="g2_2" />
<path fill-rule="evenodd" d="M226,772l541,0l0,-23l-541,0l0,23Z" class="g2_2" />
<path fill-rule="evenodd" d="M226,794l541,0l0,-22l-541,0l0,22Z" class="g2_2" />
<path fill-rule="evenodd" d="M226,816l541,0l0,-22l-541,0l0,22Z" class="g2_2" />
<path fill-rule="evenodd" d="M226,839l541,0l0,-23l-541,0l0,23Z" class="g2_2" />
<path fill-rule="evenodd" d="M226,861l541,0l0,-22l-541,0l0,22Z" class="g2_2" />
<path fill-rule="evenodd" d="M226,883l541,0l0,-22l-541,0l0,22Z" class="g2_2" />
<path fill-rule="evenodd" d="M226,906l541,0l0,-23l-541,0l0,23Z" class="g2_2" />
<path fill-rule="evenodd" d="M226,928l541,0l0,-22l-541,0l0,22Z" class="g2_2" />
<path fill-rule="evenodd" d="M226,951l541,0l0,-23l-541,0l0,23Z" class="g2_2" />
<path fill-rule="evenodd" d="M226,973l541,0l0,-22l-541,0l0,22Z" class="g2_2" />
<path fill-rule="evenodd" d="M226,995l541,0l0,-22l-541,0l0,22Z" class="g2_2" />
<path fill-rule="evenodd" d="M226,1018l541,0l0,-23l-541,0l0,23Z" class="g2_2" />
<path fill-rule="evenodd" d="M226,1040l541,0l0,-22l-541,0l0,22Z" class="g2_2" />
<path fill-rule="evenodd" d="M226,1063l541,0l0,-23l-541,0l0,23Z" class="g2_2" />
<path fill-rule="evenodd" d="M226,1085l541,0l0,-22l-541,0l0,22Z" class="g2_2" />
<path d="M87.5,131.5l0,-1" class="g4_2" />
<path d="M87.5,131.5l0,-1" class="g4_2" />
<path d="M88.5,131.5l129,0" class="g4_2" />
<path d="M217.5,131.5l0,-1" class="g4_2" />
<path d="M218.5,131.5l556,0" class="g4_2" />
<path d="M774.5,131.5l0,-1" class="g4_2" />
<path d="M774.5,131.5l0,-1" class="g4_2" />
<path d="M87.5,1085.5l0,-954" class="g4_2" />
<path d="M87.5,1086.5l0,-1" class="g4_2" />
<path d="M87.5,1086.5l0,-1" class="g4_2" />
<path d="M88.5,1086.5l129,0" class="g4_2" />
<path d="M217.5,1085.5l0,-954" class="g4_2" />
<path d="M217.5,1086.5l0,-1" class="g4_2" />
<path d="M218.5,1086.5l556,0" class="g4_2" />
<path d="M774.5,1085.5l0,-954" class="g4_2" />
<path d="M774.5,1086.5l0,-1" class="g4_2" />
<path d="M774.5,1086.5l0,-1" class="g4_2" />
</svg>