<?xml version="1.0" encoding="UTF-8" standalone="no"?>
<!DOCTYPE svg PUBLIC "-//W3C//DTD SVG 1.1//EN"
"http://www.w3.org/Graphics/SVG/1.1/DTD/svg11.dtd">
<svg version="1.1" xmlns="http://www.w3.org/2000/svg" xmlns:xlink="http://www.w3.org/1999/xlink">
<defs>
<clipPath id="c0_8"><path d="M222.5,1149.5l0,-1019l591,0l0,1019Z" /></clipPath>
<style type="text/css"><![CDATA[
.g2_8{
fill: #F1F1F1;
}
.g3_8{
fill: none;
stroke: #000000;
stroke-width: 1;
stroke-linecap: butt;
stroke-linejoin: miter;
}
.g1_8{
fill: #44546A;
}
]]></style>
</defs>
<image x="111" y="54" width="238" height="56" xlink:href="img/1.png" />
<path fill-rule="evenodd" d="M102,1149l120,0L222,130l-120,0l0,1019Z" class="g1_8" />
<path fill-rule="evenodd" d="M222,1149l8,0L230,130l-8,0l0,1019Z" class="g2_8" />
<path fill-rule="evenodd" d="M805,1149l8,0L813,130l-8,0l0,1019Z" class="g2_8" />
<g clip-path="url(#c0_8)">
<path fill-rule="evenodd" d="M230,150l575,0l0,-20l-575,0l0,20Z" class="g2_8" />
</g>
<path fill-rule="evenodd" d="M230,172l575,0l0,-22l-575,0l0,22Z" class="g2_8" />
<path fill-rule="evenodd" d="M230,192l575,0l0,-20l-575,0l0,20Z" class="g2_8" />
<path fill-rule="evenodd" d="M230,214l575,0l0,-22l-575,0l0,22Z" class="g2_8" />
<path fill-rule="evenodd" d="M230,234l575,0l0,-20l-575,0l0,20Z" class="g2_8" />
<path fill-rule="evenodd" d="M230,256l575,0l0,-22l-575,0l0,22Z" class="g2_8" />
<path fill-rule="evenodd" d="M230,276l575,0l0,-20l-575,0l0,20Z" class="g2_8" />
<path fill-rule="evenodd" d="M230,297l575,0l0,-21l-575,0l0,21Z" class="g2_8" />
<path fill-rule="evenodd" d="M230,339l575,0l0,-42l-575,0l0,42Z" class="g2_8" />
<path fill-rule="evenodd" d="M230,359l575,0l0,-20l-575,0l0,20Z" class="g2_8" />
<path fill-rule="evenodd" d="M230,380l575,0l0,-21l-575,0l0,21Z" class="g2_8" />
<path fill-rule="evenodd" d="M230,401l575,0l0,-21l-575,0l0,21Z" class="g2_8" />
<path fill-rule="evenodd" d="M230,422l575,0l0,-21l-575,0l0,21Z" class="g2_8" />
<path fill-rule="evenodd" d="M230,443l575,0l0,-21l-575,0l0,21Z" class="g2_8" />
<path fill-rule="evenodd" d="M230,464l575,0l0,-21l-575,0l0,21Z" class="g2_8" />
<path fill-rule="evenodd" d="M230,485l575,0l0,-21l-575,0l0,21Z" class="g2_8" />
<path fill-rule="evenodd" d="M230,505l575,0l0,-20l-575,0l0,20Z" class="g2_8" />
<path fill-rule="evenodd" d="M230,526l575,0l0,-21l-575,0l0,21Z" class="g2_8" />
<path fill-rule="evenodd" d="M230,546l575,0l0,-20l-575,0l0,20Z" class="g2_8" />
<path fill-rule="evenodd" d="M230,567l575,0l0,-21l-575,0l0,21Z" class="g2_8" />
<path fill-rule="evenodd" d="M230,588l575,0l0,-21l-575,0l0,21Z" class="g2_8" />
<path fill-rule="evenodd" d="M230,608l575,0l0,-20l-575,0l0,20Z" class="g2_8" />
<path fill-rule="evenodd" d="M230,629l575,0l0,-21l-575,0l0,21Z" class="g2_8" />
<path fill-rule="evenodd" d="M230,649l575,0l0,-20l-575,0l0,20Z" class="g2_8" />
<path fill-rule="evenodd" d="M230,670l575,0l0,-21l-575,0l0,21Z" class="g2_8" />
<path fill-rule="evenodd" d="M230,691l575,0l0,-21l-575,0l0,21Z" class="g2_8" />
<path fill-rule="evenodd" d="M230,712l575,0l0,-21l-575,0l0,21Z" class="g2_8" />
<path fill-rule="evenodd" d="M230,734l575,0l0,-22l-575,0l0,22Z" class="g2_8" />
<path fill-rule="evenodd" d="M230,755l575,0l0,-21l-575,0l0,21Z" class="g2_8" />
<path fill-rule="evenodd" d="M230,819l575,0l0,-64l-575,0l0,64Z" class="g2_8" />
<path fill-rule="evenodd" d="M230,839l575,0l0,-20l-575,0l0,20Z" class="g2_8" />
<path fill-rule="evenodd" d="M230,860l575,0l0,-21l-575,0l0,21Z" class="g2_8" />
<path fill-rule="evenodd" d="M230,901l575,0l0,-41l-575,0l0,41Z" class="g2_8" />
<path fill-rule="evenodd" d="M230,922l575,0l0,-21l-575,0l0,21Z" class="g2_8" />
<path fill-rule="evenodd" d="M230,964l575,0l0,-42l-575,0l0,42Z" class="g2_8" />
<path fill-rule="evenodd" d="M230,985l575,0l0,-21l-575,0l0,21Z" class="g2_8" />
<path fill-rule="evenodd" d="M230,1005l575,0l0,-20l-575,0l0,20Z" class="g2_8" />
<path fill-rule="evenodd" d="M230,1025l575,0l0,-20l-575,0l0,20Z" class="g2_8" />
<path fill-rule="evenodd" d="M230,1046l575,0l0,-21l-575,0l0,21Z" class="g2_8" />
<path fill-rule="evenodd" d="M230,1066l575,0l0,-20l-575,0l0,20Z" class="g2_8" />
<path fill-rule="evenodd" d="M230,1087l575,0l0,-21l-575,0l0,21Z" class="g2_8" />
<path fill-rule="evenodd" d="M230,1129l575,0l0,-42l-575,0l0,42Z" class="g2_8" />
<path fill-rule="evenodd" d="M230,1149l575,0l0,-20l-575,0l0,20Z" class="g2_8" />
<path d="M101.5,130.5l0,-1" class="g3_8" />
<path d="M101.5,130.5l0,-1" class="g3_8" />
<path d="M102.5,130.5l120,0" class="g3_8" />
<path d="M222.5,130.5l0,-1" class="g3_8" />
<path d="M222.5,130.5l591,0" class="g3_8" />
<path d="M813.5,130.5l0,-1" class="g3_8" />
<path d="M813.5,130.5l0,-1" class="g3_8" />
<path d="M101.5,1150.5l0,-1020" class="g3_8" />
<path d="M102.5,1150.5l120,0" class="g3_8" />
<path d="M222.5,1150.5l0,-1020" class="g3_8" />
<path d="M222.5,1150.5l591,0" class="g3_8" />
<path d="M813.5,1150.5l0,-1020" class="g3_8" />
</svg>