<?xml version="1.0" encoding="UTF-8" standalone="no"?>
<!DOCTYPE svg PUBLIC "-//W3C//DTD SVG 1.1//EN"
"http://www.w3.org/Graphics/SVG/1.1/DTD/svg11.dtd">
<svg version="1.1" xmlns="http://www.w3.org/2000/svg" xmlns:xlink="http://www.w3.org/1999/xlink">
<defs>
<clipPath id="c0_1"><path d="M102.5,521.5l0,-112l129,0l0,112Z" /></clipPath>
<clipPath id="c1_1"><path d="M231.5,521.5l0,-112l559,0l0,112Z" /></clipPath>
<style type="text/css"><![CDATA[
.g2_1{
fill: #F1F1F1;
}
.g3_1{
fill: #44546A;
}
.g1_1{
fill: none;
stroke: #000000;
stroke-width: 1;
stroke-linecap: butt;
stroke-linejoin: miter;
}
]]></style>
</defs>
<image x="110" y="54" width="234" height="55" xlink:href="img/1.png" />
<path d="M401.5,151.5l107,0" class="g1_1" />
<path fill-rule="evenodd" d="M101,174l346,0l0,-6l-346,0l0,6Z" class="g2_1" />
<path fill-rule="evenodd" d="M101,195l8,0l0,-21l-8,0l0,21Z" class="g2_1" />
<path fill-rule="evenodd" d="M439,195l8,0l0,-21l-8,0l0,21Z" class="g2_1" />
<path fill-rule="evenodd" d="M101,201l346,0l0,-6l-346,0l0,6Z" class="g2_1" />
<path fill-rule="evenodd" d="M109,195l330,0l0,-21l-330,0l0,21Z" class="g2_1" />
<path fill-rule="evenodd" d="M448,174l343,0l0,-6l-343,0l0,6Z" class="g2_1" />
<path fill-rule="evenodd" d="M448,195l8,0l0,-21l-8,0l0,21Z" class="g2_1" />
<path fill-rule="evenodd" d="M783,195l8,0l0,-21l-8,0l0,21Z" class="g2_1" />
<path fill-rule="evenodd" d="M448,201l343,0l0,-6l-343,0l0,6Z" class="g2_1" />
<path fill-rule="evenodd" d="M456,195l327,0l0,-21l-327,0l0,21Z" class="g2_1" />
<path d="M101.5,168.5l0,-1" class="g1_1" />
<path d="M101.5,168.5l0,-1" class="g1_1" />
<path d="M101.5,168.5l346,0" class="g1_1" />
<path d="M447.5,168.5l0,-1" class="g1_1" />
<path d="M448.5,168.5l343,0" class="g1_1" />
<path d="M791.5,168.5l0,-1" class="g1_1" />
<path d="M791.5,168.5l0,-1" class="g1_1" />
<path d="M101.5,201.5l0,-33" class="g1_1" />
<path d="M447.5,201.5l0,-33" class="g1_1" />
<path d="M791.5,201.5l0,-33" class="g1_1" />
<path d="M101.5,201.5l346,0" class="g1_1" />
<path d="M448.5,201.5l343,0" class="g1_1" />
<path d="M101.5,230.5l0,-29" class="g1_1" />
<path d="M447.5,230.5l0,-29" class="g1_1" />
<path d="M791.5,230.5l0,-29" class="g1_1" />
<path d="M101.5,231.5l0,-1" class="g1_1" />
<path d="M101.5,231.5l346,0" class="g1_1" />
<path d="M447.5,231.5l0,-1" class="g1_1" />
<path d="M448.5,231.5l343,0" class="g1_1" />
<path d="M791.5,231.5l0,-1" class="g1_1" />
<path d="M101.5,260.5l0,-29" class="g1_1" />
<path d="M101.5,261.5l0,-1" class="g1_1" />
<path d="M101.5,261.5l0,-1" class="g1_1" />
<path d="M101.5,261.5l346,0" class="g1_1" />
<path d="M447.5,260.5l0,-29" class="g1_1" />
<path d="M447.5,261.5l0,-1" class="g1_1" />
<path d="M448.5,261.5l343,0" class="g1_1" />
<path d="M791.5,260.5l0,-29" class="g1_1" />
<path d="M791.5,261.5l0,-1" class="g1_1" />
<path d="M791.5,261.5l0,-1" class="g1_1" />
<path fill-rule="evenodd" d="M102,317l8,0l0,-23l-8,0l0,23Z" class="g3_1" />
<path fill-rule="evenodd" d="M223,317l8,0l0,-23l-8,0l0,23Z" class="g3_1" />
<path fill-rule="evenodd" d="M110,317l113,0l0,-23l-113,0l0,23Z" class="g3_1" />
<path fill-rule="evenodd" d="M231,317l8,0l0,-23l-8,0l0,23Z" class="g2_1" />
<path fill-rule="evenodd" d="M782,317l8,0l0,-23l-8,0l0,23Z" class="g2_1" />
<path fill-rule="evenodd" d="M239,317l543,0l0,-23l-543,0l0,23Z" class="g2_1" />
<path d="M102.5,294.5l129,0" class="g1_1" />
<path d="M231.5,294.5l559,0" class="g1_1" />
<path d="M101.5,317.5l0,-23" class="g1_1" />
<path d="M231.5,317.5l0,-23" class="g1_1" />
<path d="M790.5,317.5l0,-23" class="g1_1" />
<path fill-rule="evenodd" d="M102,362l8,0l0,-45l-8,0l0,45Z" class="g3_1" />
<path fill-rule="evenodd" d="M223,362l8,0l0,-45l-8,0l0,45Z" class="g3_1" />
<path fill-rule="evenodd" d="M110,340l113,0l0,-23l-113,0l0,23Z" class="g3_1" />
<path fill-rule="evenodd" d="M110,362l113,0l0,-22l-113,0l0,22Z" class="g3_1" />
<path fill-rule="evenodd" d="M231,340l8,0l0,-23l-8,0l0,23Z" class="g2_1" />
<path fill-rule="evenodd" d="M782,340l8,0l0,-23l-8,0l0,23Z" class="g2_1" />
<path fill-rule="evenodd" d="M231,362l559,0l0,-22l-559,0l0,22Z" class="g2_1" />
<path fill-rule="evenodd" d="M239,340l543,0l0,-23l-543,0l0,23Z" class="g2_1" />
<path d="M102.5,317.5l129,0" class="g1_1" />
<path d="M231.5,317.5l559,0" class="g1_1" />
<path d="M101.5,362.5l0,-45" class="g1_1" />
<path d="M231.5,362.5l0,-45" class="g1_1" />
<path d="M790.5,362.5l0,-45" class="g1_1" />
<path fill-rule="evenodd" d="M102,385l8,0l0,-22l-8,0l0,22Z" class="g3_1" />
<path fill-rule="evenodd" d="M223,385l8,0l0,-22l-8,0l0,22Z" class="g3_1" />
<path fill-rule="evenodd" d="M110,385l113,0l0,-22l-113,0l0,22Z" class="g3_1" />
<path fill-rule="evenodd" d="M231,385l8,0l0,-22l-8,0l0,22Z" class="g2_1" />
<path fill-rule="evenodd" d="M782,385l8,0l0,-22l-8,0l0,22Z" class="g2_1" />
<path fill-rule="evenodd" d="M239,385l543,0l0,-22l-543,0l0,22Z" class="g2_1" />
<path d="M101.5,363.5l0,-1" class="g1_1" />
<path d="M102.5,363.5l129,0" class="g1_1" />
<path d="M231.5,363.5l0,-1" class="g1_1" />
<path d="M231.5,363.5l559,0" class="g1_1" />
<path d="M790.5,363.5l0,-1" class="g1_1" />
<path d="M101.5,385.5l0,-22" class="g1_1" />
<path d="M231.5,385.5l0,-22" class="g1_1" />
<path d="M790.5,385.5l0,-22" class="g1_1" />
<path fill-rule="evenodd" d="M102,409l8,0l0,-23l-8,0l0,23Z" class="g3_1" />
<path fill-rule="evenodd" d="M223,409l8,0l0,-23l-8,0l0,23Z" class="g3_1" />
<path fill-rule="evenodd" d="M110,409l113,0l0,-23l-113,0l0,23Z" class="g3_1" />
<path fill-rule="evenodd" d="M231,409l8,0l0,-23l-8,0l0,23Z" class="g2_1" />
<path fill-rule="evenodd" d="M782,409l8,0l0,-23l-8,0l0,23Z" class="g2_1" />
<path fill-rule="evenodd" d="M239,409l543,0l0,-23l-543,0l0,23Z" class="g2_1" />
<path d="M101.5,386.5l0,-1" class="g1_1" />
<path d="M102.5,386.5l129,0" class="g1_1" />
<path d="M231.5,386.5l0,-1" class="g1_1" />
<path d="M231.5,386.5l559,0" class="g1_1" />
<path d="M790.5,386.5l0,-1" class="g1_1" />
<path d="M101.5,409.5l0,-23" class="g1_1" />
<path d="M231.5,409.5l0,-23" class="g1_1" />
<path d="M790.5,409.5l0,-23" class="g1_1" />
<path fill-rule="evenodd" d="M102,432l8,0l0,-23l-8,0l0,23Z" class="g3_1" />
<path fill-rule="evenodd" d="M223,432l8,0l0,-23l-8,0l0,23Z" class="g3_1" />
<path fill-rule="evenodd" d="M102,521l129,0l0,-89l-129,0l0,89Z" class="g3_1" />
<g clip-path="url(#c0_1)">
<path fill-rule="evenodd" d="M110,432l113,0l0,-23l-113,0l0,23Z" class="g3_1" />
</g>
<path fill-rule="evenodd" d="M231,521l8,0l0,-112l-8,0l0,112Z" class="g2_1" />
<path fill-rule="evenodd" d="M782,521l8,0l0,-112l-8,0l0,112Z" class="g2_1" />
<g clip-path="url(#c1_1)">
<path fill-rule="evenodd" d="M239,432l543,0l0,-23l-543,0l0,23Z" class="g2_1" />
</g>
<path fill-rule="evenodd" d="M239,454l543,0l0,-22l-543,0l0,22Z" class="g2_1" />
<path fill-rule="evenodd" d="M239,476l543,0l0,-22l-543,0l0,22Z" class="g2_1" />
<path fill-rule="evenodd" d="M239,499l543,0l0,-23l-543,0l0,23Z" class="g2_1" />
<path fill-rule="evenodd" d="M239,521l543,0l0,-22l-543,0l0,22Z" class="g2_1" />
<path d="M102.5,409.5l129,0" class="g1_1" />
<path d="M231.5,409.5l559,0" class="g1_1" />
<path d="M101.5,521.5l0,-112" class="g1_1" />
<path d="M231.5,521.5l0,-112" class="g1_1" />
<path d="M790.5,521.5l0,-112" class="g1_1" />
<path fill-rule="evenodd" d="M102,544l8,0l0,-22l-8,0l0,22Z" class="g3_1" />
<path fill-rule="evenodd" d="M223,544l8,0l0,-22l-8,0l0,22Z" class="g3_1" />
<path fill-rule="evenodd" d="M110,544l113,0l0,-22l-113,0l0,22Z" class="g3_1" />
<path fill-rule="evenodd" d="M231,544l8,0l0,-22l-8,0l0,22Z" class="g2_1" />
<path fill-rule="evenodd" d="M782,544l8,0l0,-22l-8,0l0,22Z" class="g2_1" />
<path fill-rule="evenodd" d="M239,544l543,0l0,-22l-543,0l0,22Z" class="g2_1" />
<path d="M101.5,522.5l0,-1" class="g1_1" />
<path d="M102.5,522.5l129,0" class="g1_1" />
<path d="M231.5,522.5l0,-1" class="g1_1" />
<path d="M231.5,522.5l559,0" class="g1_1" />
<path d="M790.5,522.5l0,-1" class="g1_1" />
<path d="M101.5,544.5l0,-22" class="g1_1" />
<path d="M231.5,544.5l0,-22" class="g1_1" />
<path d="M790.5,544.5l0,-22" class="g1_1" />
<path fill-rule="evenodd" d="M102,568l8,0l0,-23l-8,0l0,23Z" class="g3_1" />
<path fill-rule="evenodd" d="M223,568l8,0l0,-23l-8,0l0,23Z" class="g3_1" />
<path fill-rule="evenodd" d="M102,1168l129,0l0,-600l-129,0l0,600Z" class="g3_1" />
<path fill-rule="evenodd" d="M110,568l113,0l0,-23l-113,0l0,23Z" class="g3_1" />
<path fill-rule="evenodd" d="M231,1168l8,0l0,-623l-8,0l0,623Z" class="g2_1" />
<path fill-rule="evenodd" d="M782,1168l8,0l0,-623l-8,0l0,623Z" class="g2_1" />
<path fill-rule="evenodd" d="M239,568l543,0l0,-23l-543,0l0,23Z" class="g2_1" />
<path fill-rule="evenodd" d="M239,590l543,0l0,-22l-543,0l0,22Z" class="g2_1" />
<path fill-rule="evenodd" d="M239,613l543,0l0,-23l-543,0l0,23Z" class="g2_1" />
<path fill-rule="evenodd" d="M239,637l543,0l0,-24l-543,0l0,24Z" class="g2_1" />
<path fill-rule="evenodd" d="M239,660l543,0l0,-23l-543,0l0,23Z" class="g2_1" />
<path fill-rule="evenodd" d="M239,693l543,0l0,-33l-543,0l0,33Z" class="g2_1" />
<path fill-rule="evenodd" d="M239,715l543,0l0,-22l-543,0l0,22Z" class="g2_1" />
<path fill-rule="evenodd" d="M239,747l543,0l0,-32l-543,0l0,32Z" class="g2_1" />
<path fill-rule="evenodd" d="M239,778l543,0l0,-31l-543,0l0,31Z" class="g2_1" />
<path fill-rule="evenodd" d="M239,800l543,0l0,-22l-543,0l0,22Z" class="g2_1" />
<path fill-rule="evenodd" d="M239,823l543,0l0,-23l-543,0l0,23Z" class="g2_1" />
<path fill-rule="evenodd" d="M239,846l543,0l0,-23l-543,0l0,23Z" class="g2_1" />
<path fill-rule="evenodd" d="M239,870l543,0l0,-24l-543,0l0,24Z" class="g2_1" />
<path fill-rule="evenodd" d="M239,893l543,0l0,-23l-543,0l0,23Z" class="g2_1" />
<path fill-rule="evenodd" d="M239,916l543,0l0,-23l-543,0l0,23Z" class="g2_1" />
<path fill-rule="evenodd" d="M239,940l543,0l0,-24l-543,0l0,24Z" class="g2_1" />
<path fill-rule="evenodd" d="M239,963l543,0l0,-23l-543,0l0,23Z" class="g2_1" />
<path fill-rule="evenodd" d="M239,985l543,0l0,-22l-543,0l0,22Z" class="g2_1" />
<path fill-rule="evenodd" d="M239,1008l543,0l0,-23l-543,0l0,23Z" class="g2_1" />
<path fill-rule="evenodd" d="M239,1031l543,0l0,-23l-543,0l0,23Z" class="g2_1" />
<path fill-rule="evenodd" d="M239,1054l543,0l0,-23l-543,0l0,23Z" class="g2_1" />
<path fill-rule="evenodd" d="M239,1078l543,0l0,-24l-543,0l0,24Z" class="g2_1" />
<path fill-rule="evenodd" d="M239,1100l543,0l0,-22l-543,0l0,22Z" class="g2_1" />
<path fill-rule="evenodd" d="M239,1123l543,0l0,-23l-543,0l0,23Z" class="g2_1" />
<path fill-rule="evenodd" d="M239,1146l543,0l0,-23l-543,0l0,23Z" class="g2_1" />
<path fill-rule="evenodd" d="M239,1168l543,0l0,-22l-543,0l0,22Z" class="g2_1" />
<path d="M101.5,545.5l0,-1" class="g1_1" />
<path d="M102.5,545.5l129,0" class="g1_1" />
<path d="M231.5,545.5l0,-1" class="g1_1" />
<path d="M231.5,545.5l559,0" class="g1_1" />
<path d="M790.5,545.5l0,-1" class="g1_1" />
<path d="M101.5,1168.5l0,-623" class="g1_1" />
<path d="M101.5,1169.5l0,-1" class="g1_1" />
<path d="M101.5,1169.5l0,-1" class="g1_1" />
<path d="M102.5,1169.5l129,0" class="g1_1" />
<path d="M231.5,1168.5l0,-623" class="g1_1" />
<path d="M231.5,1169.5l0,-1" class="g1_1" />
<path d="M231.5,1169.5l559,0" class="g1_1" />
<path d="M790.5,1168.5l0,-623" class="g1_1" />
<path d="M790.5,1169.5l0,-1" class="g1_1" />
<path d="M790.5,1169.5l0,-1" class="g1_1" />
</svg>