<?xml version="1.0" encoding="UTF-8" standalone="no"?>
<!DOCTYPE svg PUBLIC "-//W3C//DTD SVG 1.1//EN"
"http://www.w3.org/Graphics/SVG/1.1/DTD/svg11.dtd">
<svg version="1.1" xmlns="http://www.w3.org/2000/svg" xmlns:xlink="http://www.w3.org/1999/xlink">
<defs>
<style type="text/css"><![CDATA[
.g3_6{
fill: none;
stroke: #000000;
stroke-width: 2;
stroke-linecap: round;
stroke-linejoin: miter;
}
.g2_6{
fill: #FFFFFF;
}
.g1_6{
fill: none;
stroke: #000000;
stroke-width: 1;
stroke-linecap: butt;
stroke-linejoin: miter;
}
]]></style>
</defs>
<image x="111" y="54" width="234" height="55" xlink:href="img/1.png" />
<path d="M343.5,426.5l227,0" class="g1_6" />
<path d="M100.5,438.5l0,-1" class="g1_6" />
<path d="M100.5,438.5l0,-1" class="g1_6" />
<path d="M101.5,438.5l168,0" class="g1_6" />
<path d="M269.5,438.5l0,-1" class="g1_6" />
<path d="M270.5,438.5l293,0" class="g1_6" />
<path d="M563.5,438.5l0,-1" class="g1_6" />
<path d="M564.5,438.5l102,0" class="g1_6" />
<path d="M666.5,438.5l0,-1" class="g1_6" />
<path d="M667.5,438.5l145,0" class="g1_6" />
<path d="M812.5,438.5l0,-1" class="g1_6" />
<path d="M812.5,438.5l0,-1" class="g1_6" />
<path d="M100.5,488.5l0,-50" class="g1_6" />
<path d="M269.5,488.5l0,-50" class="g1_6" />
<path d="M563.5,488.5l0,-50" class="g1_6" />
<path d="M666.5,488.5l0,-50" class="g1_6" />
<path d="M812.5,488.5l0,-50" class="g1_6" />
<path d="M100.5,489.5l0,-1" class="g1_6" />
<path d="M101.5,489.5l168,0" class="g1_6" />
<path d="M269.5,489.5l0,-1" class="g1_6" />
<path d="M270.5,489.5l196,0" class="g1_6" />
<path d="M466.5,489.5l0,-1" class="g1_6" />
<path d="M467.5,489.5l96,0" class="g1_6" />
<path d="M563.5,489.5l0,-1" class="g1_6" />
<path d="M564.5,489.5l102,0" class="g1_6" />
<path d="M666.5,489.5l0,-1" class="g1_6" />
<path d="M667.5,489.5l145,0" class="g1_6" />
<path d="M812.5,489.5l0,-1" class="g1_6" />
<path d="M100.5,518.5l0,-29" class="g1_6" />
<path d="M269.5,518.5l0,-29" class="g1_6" />
<path d="M466.5,518.5l0,-29" class="g1_6" />
<path d="M563.5,518.5l0,-29" class="g1_6" />
<path d="M812.5,518.5l0,-29" class="g1_6" />
<path d="M100.5,519.5l0,-1" class="g1_6" />
<path d="M101.5,519.5l168,0" class="g1_6" />
<path d="M269.5,519.5l0,-1" class="g1_6" />
<path d="M270.5,519.5l196,0" class="g1_6" />
<path d="M466.5,519.5l0,-1" class="g1_6" />
<path d="M467.5,519.5l96,0" class="g1_6" />
<path d="M563.5,519.5l0,-1" class="g1_6" />
<path d="M564.5,519.5l248,0" class="g1_6" />
<path d="M812.5,519.5l0,-1" class="g1_6" />
<path d="M100.5,549.5l0,-30" class="g1_6" />
<path d="M269.5,549.5l0,-30" class="g1_6" />
<path d="M466.5,549.5l0,-30" class="g1_6" />
<path d="M563.5,549.5l0,-30" class="g1_6" />
<path d="M812.5,549.5l0,-30" class="g1_6" />
<path d="M101.5,549.5l168,0" class="g1_6" />
<path d="M270.5,549.5l196,0" class="g1_6" />
<path d="M467.5,549.5l96,0" class="g1_6" />
<path d="M564.5,549.5l248,0" class="g1_6" />
<path d="M100.5,600.5l0,-51" class="g1_6" />
<path d="M269.5,600.5l0,-51" class="g1_6" />
<path d="M466.5,600.5l0,-51" class="g1_6" />
<path d="M563.5,600.5l0,-51" class="g1_6" />
<path d="M812.5,600.5l0,-51" class="g1_6" />
<path d="M101.5,600.5l168,0" class="g1_6" />
<path d="M270.5,600.5l196,0" class="g1_6" />
<path d="M467.5,600.5l96,0" class="g1_6" />
<path d="M564.5,600.5l248,0" class="g1_6" />
<path d="M100.5,651.5l0,-51" class="g1_6" />
<path d="M269.5,651.5l0,-51" class="g1_6" />
<path d="M466.5,651.5l0,-51" class="g1_6" />
<path d="M563.5,651.5l0,-51" class="g1_6" />
<path d="M812.5,651.5l0,-51" class="g1_6" />
<path d="M101.5,651.5l168,0" class="g1_6" />
<path d="M270.5,651.5l196,0" class="g1_6" />
<path d="M467.5,651.5l96,0" class="g1_6" />
<path d="M564.5,651.5l248,0" class="g1_6" />
<path d="M100.5,681.5l0,-30" class="g1_6" />
<path d="M269.5,681.5l0,-30" class="g1_6" />
<path d="M812.5,681.5l0,-30" class="g1_6" />
<path d="M100.5,682.5l0,-1" class="g1_6" />
<path d="M101.5,682.5l168,0" class="g1_6" />
<path d="M269.5,682.5l0,-1" class="g1_6" />
<path d="M270.5,682.5l196,0" class="g1_6" />
<path d="M466.5,682.5l0,-1" class="g1_6" />
<path d="M467.5,682.5l150,0" class="g1_6" />
<path d="M617.5,682.5l0,-1" class="g1_6" />
<path d="M618.5,682.5l194,0" class="g1_6" />
<path d="M812.5,682.5l0,-1" class="g1_6" />
<path d="M100.5,712.5l0,-30" class="g1_6" />
<path d="M269.5,712.5l0,-30" class="g1_6" />
<path d="M466.5,712.5l0,-30" class="g1_6" />
<path d="M617.5,712.5l0,-30" class="g1_6" />
<path d="M812.5,712.5l0,-30" class="g1_6" />
<path d="M101.5,712.5l168,0" class="g1_6" />
<path d="M270.5,712.5l196,0" class="g1_6" />
<path d="M467.5,712.5l150,0" class="g1_6" />
<path d="M618.5,712.5l194,0" class="g1_6" />
<path d="M100.5,742.5l0,-30" class="g1_6" />
<path d="M269.5,742.5l0,-30" class="g1_6" />
<path d="M812.5,742.5l0,-30" class="g1_6" />
<path d="M100.5,743.5l0,-1" class="g1_6" />
<path d="M101.5,743.5l168,0" class="g1_6" />
<path d="M269.5,743.5l0,-1" class="g1_6" />
<path d="M270.5,743.5l542,0" class="g1_6" />
<path d="M812.5,743.5l0,-1" class="g1_6" />
<path d="M100.5,802.5l0,-59" class="g1_6" />
<path d="M100.5,803.5l0,-1" class="g1_6" />
<path d="M100.5,803.5l0,-1" class="g1_6" />
<path d="M101.5,803.5l711,0" class="g1_6" />
<path d="M812.5,802.5l0,-59" class="g1_6" />
<path d="M812.5,803.5l0,-1" class="g1_6" />
<path d="M812.5,803.5l0,-1" class="g1_6" />
<path d="M138.5,872.5l33,0" class="g1_6" />
<path d="M102.5,883.5l41,0" class="g1_6" />
<path d="M144.5,883.5l399,0" class="g1_6" />
<path d="M544.5,883.5l247,0" class="g1_6" />
<path d="M101.5,913.5l0,-30" class="g1_6" />
<path d="M143.5,913.5l0,-30" class="g1_6" />
<path d="M543.5,913.5l0,-30" class="g1_6" />
<path d="M791.5,913.5l0,-30" class="g1_6" />
<path d="M101.5,914.5l0,-1" class="g1_6" />
<path d="M102.5,914.5l41,0" class="g1_6" />
<path d="M143.5,914.5l0,-1" class="g1_6" />
<path d="M144.5,914.5l273,0" class="g1_6" />
<path d="M417.5,914.5l0,-1" class="g1_6" />
<path d="M418.5,914.5l125,0" class="g1_6" />
<path d="M543.5,914.5l0,-1" class="g1_6" />
<path d="M544.5,914.5l247,0" class="g1_6" />
<path d="M791.5,914.5l0,-1" class="g1_6" />
<path d="M101.5,964.5l0,-50" class="g1_6" />
<path d="M143.5,964.5l0,-50" class="g1_6" />
<path d="M417.5,964.5l0,-50" class="g1_6" />
<path d="M543.5,964.5l0,-50" class="g1_6" />
<path d="M791.5,964.5l0,-50" class="g1_6" />
<path d="M101.5,965.5l0,-1" class="g1_6" />
<path d="M102.5,965.5l41,0" class="g1_6" />
<path d="M143.5,965.5l0,-1" class="g1_6" />
<path d="M144.5,965.5l273,0" class="g1_6" />
<path d="M417.5,965.5l0,-1" class="g1_6" />
<path d="M418.5,965.5l125,0" class="g1_6" />
<path d="M543.5,965.5l0,-1" class="g1_6" />
<path d="M544.5,965.5l247,0" class="g1_6" />
<path d="M791.5,965.5l0,-1" class="g1_6" />
<path d="M101.5,995.5l0,-30" class="g1_6" />
<path d="M143.5,995.5l0,-30" class="g1_6" />
<path d="M417.5,995.5l0,-30" class="g1_6" />
<path d="M543.5,995.5l0,-30" class="g1_6" />
<path d="M791.5,995.5l0,-30" class="g1_6" />
<path d="M102.5,995.5l41,0" class="g1_6" />
<path d="M144.5,995.5l273,0" class="g1_6" />
<path d="M418.5,995.5l125,0" class="g1_6" />
<path d="M544.5,995.5l247,0" class="g1_6" />
<path d="M101.5,1025.5l0,-30" class="g1_6" />
<path d="M143.5,1025.5l0,-30" class="g1_6" />
<path d="M417.5,1025.5l0,-30" class="g1_6" />
<path d="M543.5,1025.5l0,-30" class="g1_6" />
<path d="M791.5,1025.5l0,-30" class="g1_6" />
<path d="M101.5,1026.5l0,-1" class="g1_6" />
<path d="M102.5,1026.5l41,0" class="g1_6" />
<path d="M143.5,1026.5l0,-1" class="g1_6" />
<path d="M144.5,1026.5l273,0" class="g1_6" />
<path d="M417.5,1026.5l0,-1" class="g1_6" />
<path d="M418.5,1026.5l125,0" class="g1_6" />
<path d="M543.5,1026.5l0,-1" class="g1_6" />
<path d="M544.5,1026.5l247,0" class="g1_6" />
<path d="M791.5,1026.5l0,-1" class="g1_6" />
<path d="M101.5,1056.5l0,-30" class="g1_6" />
<path d="M102.5,1056.5l315,0" class="g1_6" />
<path d="M417.5,1056.5l0,-30" class="g1_6" />
<path d="M418.5,1056.5l125,0" class="g1_6" />
<path d="M543.5,1056.5l0,-30" class="g1_6" />
<path d="M544.5,1056.5l247,0" class="g1_6" />
<path d="M791.5,1056.5l0,-30" class="g1_6" />
<path d="M111.5,1105.5l29,0" class="g1_6" />
<path d="M101.5,1117.5l0,-1" class="g1_6" />
<path d="M101.5,1117.5l0,-1" class="g1_6" />
<path d="M102.5,1117.5l41,0" class="g1_6" />
<path d="M143.5,1117.5l0,-1" class="g1_6" />
<path d="M144.5,1117.5l399,0" class="g1_6" />
<path d="M543.5,1117.5l0,-1" class="g1_6" />
<path d="M544.5,1117.5l247,0" class="g1_6" />
<path d="M791.5,1117.5l0,-1" class="g1_6" />
<path d="M791.5,1117.5l0,-1" class="g1_6" />
<path d="M101.5,1146.5l0,-29" class="g1_6" />
<path d="M101.5,1147.5l0,-1" class="g1_6" />
<path d="M101.5,1147.5l0,-1" class="g1_6" />
<path d="M102.5,1147.5l41,0" class="g1_6" />
<path d="M143.5,1146.5l0,-29" class="g1_6" />
<path d="M143.5,1147.5l0,-1" class="g1_6" />
<path d="M144.5,1147.5l399,0" class="g1_6" />
<path d="M543.5,1146.5l0,-29" class="g1_6" />
<path d="M543.5,1147.5l0,-1" class="g1_6" />
<path d="M544.5,1147.5l247,0" class="g1_6" />
<path d="M791.5,1146.5l0,-29" class="g1_6" />
<path d="M791.5,1147.5l0,-1" class="g1_6" />
<path d="M791.5,1147.5l0,-1" class="g1_6" />
<path fill-rule="evenodd" d="M531,757l14,0l0,-14l-14,0l0,14Z" class="g2_6" />
<path d="M531,757l14,0l0,-14l-14,0l0,14Z" class="g3_6" />
<path fill-rule="evenodd" d="M658,758l14,0l0,-13l-14,0l0,13Z" class="g2_6" />
<path d="M658,758l14,0l0,-13l-14,0l0,13Z" class="g3_6" />
<path fill-rule="evenodd" d="M763,759l14,0l0,-14l-14,0l0,14Z" class="g2_6" />
<path d="M763,759l14,0l0,-14l-14,0l0,14Z" class="g3_6" />
</svg>