<?xml version="1.0" encoding="UTF-8" standalone="no"?>
<!DOCTYPE svg PUBLIC "-//W3C//DTD SVG 1.1//EN"
"http://www.w3.org/Graphics/SVG/1.1/DTD/svg11.dtd">
<svg version="1.1" xmlns="http://www.w3.org/2000/svg" xmlns:xlink="http://www.w3.org/1999/xlink">
<defs>
<style type="text/css"><![CDATA[
.g4_1{
}
.g2_1{
fill: #F1F1F1;
}
.g3_1{
fill: #44546A;
}
.g1_1{
fill: none;
stroke: #000000;
stroke-width: 1;
stroke-linecap: butt;
stroke-linejoin: miter;
}
]]></style>
</defs>
<image x="96" y="54" width="238" height="57" xlink:href="img/1.png" />
<path d="M334.5,152.5l211,0" class="g1_1" />
<path fill-rule="evenodd" d="M87,172l347,0l0,-3L87,169l0,3Z" class="g2_1" />
<path fill-rule="evenodd" d="M87,193l8,0l0,-21l-8,0l0,21Z" class="g2_1" />
<path fill-rule="evenodd" d="M426,193l8,0l0,-21l-8,0l0,21Z" class="g2_1" />
<path fill-rule="evenodd" d="M87,196l347,0l0,-3L87,193l0,3Z" class="g2_1" />
<path fill-rule="evenodd" d="M95,193l331,0l0,-21L95,172l0,21Z" class="g2_1" />
<path fill-rule="evenodd" d="M434,172l340,0l0,-3l-340,0l0,3Z" class="g2_1" />
<path fill-rule="evenodd" d="M434,193l8,0l0,-21l-8,0l0,21Z" class="g2_1" />
<path fill-rule="evenodd" d="M767,193l7,0l0,-21l-7,0l0,21Z" class="g2_1" />
<path fill-rule="evenodd" d="M434,196l340,0l0,-3l-340,0l0,3Z" class="g2_1" />
<path fill-rule="evenodd" d="M442,193l325,0l0,-21l-325,0l0,21Z" class="g2_1" />
<path d="M87.5,169.5l0,-1" class="g1_1" />
<path d="M87.5,169.5l0,-1" class="g1_1" />
<path d="M87.5,169.5l347,0" class="g1_1" />
<path d="M434.5,169.5l0,-1" class="g1_1" />
<path d="M434.5,169.5l340,0" class="g1_1" />
<path d="M774.5,169.5l0,-1" class="g1_1" />
<path d="M774.5,169.5l0,-1" class="g1_1" />
<path d="M87.5,196.5l0,-27" class="g1_1" />
<path d="M434.5,196.5l0,-27" class="g1_1" />
<path d="M774.5,196.5l0,-27" class="g1_1" />
<path d="M87.5,197.5l0,-1" class="g1_1" />
<path d="M87.5,197.5l347,0" class="g1_1" />
<path d="M434.5,197.5l0,-1" class="g1_1" />
<path d="M434.5,197.5l340,0" class="g1_1" />
<path d="M774.5,197.5l0,-1" class="g1_1" />
<path d="M87.5,228.5l0,-31" class="g1_1" />
<path d="M434.5,228.5l0,-31" class="g1_1" />
<path d="M774.5,228.5l0,-31" class="g1_1" />
<path d="M87.5,229.5l0,-1" class="g1_1" />
<path d="M87.5,229.5l347,0" class="g1_1" />
<path d="M434.5,229.5l0,-1" class="g1_1" />
<path d="M434.5,229.5l340,0" class="g1_1" />
<path d="M774.5,229.5l0,-1" class="g1_1" />
<path d="M87.5,251.5l0,-22" class="g1_1" />
<path d="M87.5,252.5l0,-1" class="g1_1" />
<path d="M87.5,252.5l0,-1" class="g1_1" />
<path d="M87.5,252.5l347,0" class="g1_1" />
<path d="M434.5,251.5l0,-22" class="g1_1" />
<path d="M434.5,252.5l0,-1" class="g1_1" />
<path d="M434.5,252.5l340,0" class="g1_1" />
<path d="M774.5,251.5l0,-22" class="g1_1" />
<path d="M774.5,252.5l0,-1" class="g1_1" />
<path d="M774.5,252.5l0,-1" class="g1_1" />
<path fill-rule="evenodd" d="M88,313l8,0l0,-22l-8,0l0,22Z" class="g3_1" />
<path fill-rule="evenodd" d="M209,313l8,0l0,-22l-8,0l0,22Z" class="g3_1" />
<path fill-rule="evenodd" d="M96,313l113,0l0,-22L96,291l0,22Z" class="g3_1" />
<path fill-rule="evenodd" d="M218,313l8,0l0,-22l-8,0l0,22Z" class="g2_1" />
<path fill-rule="evenodd" d="M767,313l7,0l0,-22l-7,0l0,22Z" class="g2_1" />
<path fill-rule="evenodd" d="M226,313l541,0l0,-22l-541,0l0,22Z" class="g2_1" />
<path d="M87.5,291.5l0,-1" class="g1_1" />
<path d="M87.5,291.5l0,-1" class="g1_1" />
<path d="M88.5,291.5l129,0" class="g1_1" />
<path d="M217.5,291.5l0,-1" class="g1_1" />
<path d="M218.5,291.5l556,0" class="g1_1" />
<path d="M774.5,291.5l0,-1" class="g1_1" />
<path d="M774.5,291.5l0,-1" class="g1_1" />
<path d="M87.5,313.5l0,-22" class="g1_1" />
<path d="M217.5,313.5l0,-22" class="g1_1" />
<path d="M774.5,313.5l0,-22" class="g1_1" />
<path fill-rule="evenodd" d="M88,358l8,0l0,-44l-8,0l0,44Z" class="g3_1" />
<path fill-rule="evenodd" d="M209,358l8,0l0,-44l-8,0l0,44Z" class="g3_1" />
<path fill-rule="evenodd" d="M96,336l113,0l0,-22L96,314l0,22Z" class="g3_1" />
<path fill-rule="evenodd" d="M96,358l113,0l0,-22L96,336l0,22Z" class="g3_1" />
<path fill-rule="evenodd" d="M218,336l8,0l0,-22l-8,0l0,22Z" class="g2_1" />
<path fill-rule="evenodd" d="M767,336l7,0l0,-22l-7,0l0,22Z" class="g2_1" />
<path fill-rule="evenodd" d="M218,358l556,0l0,-22l-556,0l0,22Z" class="g2_1" />
<path fill-rule="evenodd" d="M226,336l541,0l0,-22l-541,0l0,22Z" class="g2_1" />
<path d="M87.5,314.5l0,-1" class="g1_1" />
<path d="M88.5,314.5l129,0" class="g1_1" />
<path d="M217.5,314.5l0,-1" class="g1_1" />
<path d="M218.5,314.5l556,0" class="g1_1" />
<path d="M774.5,314.5l0,-1" class="g1_1" />
<path d="M87.5,358.5l0,-44" class="g1_1" />
<path d="M217.5,358.5l0,-44" class="g1_1" />
<path d="M774.5,358.5l0,-44" class="g1_1" />
<path fill-rule="evenodd" d="M88,382l8,0l0,-23l-8,0l0,23Z" class="g3_1" />
<path fill-rule="evenodd" d="M209,382l8,0l0,-23l-8,0l0,23Z" class="g3_1" />
<path fill-rule="evenodd" d="M96,382l113,0l0,-23L96,359l0,23Z" class="g3_1" />
<path fill-rule="evenodd" d="M218,382l8,0l0,-23l-8,0l0,23Z" class="g2_1" />
<path fill-rule="evenodd" d="M767,382l7,0l0,-23l-7,0l0,23Z" class="g2_1" />
<path fill-rule="evenodd" d="M226,382l541,0l0,-23l-541,0l0,23Z" class="g2_1" />
<path d="M87.5,359.5l0,-1" class="g1_1" />
<path d="M88.5,359.5l129,0" class="g1_1" />
<path d="M217.5,359.5l0,-1" class="g1_1" />
<path d="M218.5,359.5l556,0" class="g1_1" />
<path d="M774.5,359.5l0,-1" class="g1_1" />
<path d="M87.5,382.5l0,-23" class="g1_1" />
<path d="M217.5,382.5l0,-23" class="g1_1" />
<path d="M774.5,382.5l0,-23" class="g1_1" />
<path fill-rule="evenodd" d="M88,405l8,0l0,-22l-8,0l0,22Z" class="g3_1" />
<path fill-rule="evenodd" d="M209,405l8,0l0,-22l-8,0l0,22Z" class="g3_1" />
<path fill-rule="evenodd" d="M96,405l113,0l0,-22L96,383l0,22Z" class="g3_1" />
<path fill-rule="evenodd" d="M218,405l8,0l0,-22l-8,0l0,22Z" class="g2_1" />
<path fill-rule="evenodd" d="M767,405l7,0l0,-22l-7,0l0,22Z" class="g2_1" />
<path fill-rule="evenodd" d="M226,405l541,0l0,-22l-541,0l0,22Z" class="g2_1" />
<path d="M88.5,382.5l129,0" class="g1_1" />
<path d="M218.5,382.5l556,0" class="g1_1" />
<path d="M87.5,405.5l0,-23" class="g1_1" />
<path d="M217.5,405.5l0,-23" class="g1_1" />
<path d="M774.5,405.5l0,-23" class="g1_1" />
<path fill-rule="evenodd" d="M88,428l8,0l0,-22l-8,0l0,22Z" class="g3_1" />
<path fill-rule="evenodd" d="M209,428l8,0l0,-22l-8,0l0,22Z" class="g3_1" />
<path fill-rule="evenodd" d="M88,542l129,0l0,-114L88,428l0,114Z" class="g3_1" />
<path fill-rule="evenodd" d="M96,428l113,0l0,-22L96,406l0,22Z" class="g3_1" />
<path fill-rule="evenodd" d="M218,542l8,0l0,-136l-8,0l0,136Z" class="g2_1" />
<path fill-rule="evenodd" d="M767,542l7,0l0,-136l-7,0l0,136Z" class="g2_1" />
<path fill-rule="evenodd" d="M226,428l541,0l0,-22l-541,0l0,22Z" class="g2_1" />
<path fill-rule="evenodd" d="M226,451l541,0l0,-23l-541,0l0,23Z" class="g2_1" />
<path fill-rule="evenodd" d="M226,474l541,0l0,-23l-541,0l0,23Z" class="g2_1" />
<path fill-rule="evenodd" d="M226,497l541,0l0,-23l-541,0l0,23Z" class="g2_1" />
<path fill-rule="evenodd" d="M226,520l541,0l0,-23l-541,0l0,23Z" class="g2_1" />
<path fill-rule="evenodd" d="M226,542l541,0l0,-22l-541,0l0,22Z" class="g2_1" />
<path d="M87.5,406.5l0,-1" class="g1_1" />
<path d="M88.5,406.5l129,0" class="g1_1" />
<path d="M217.5,406.5l0,-1" class="g1_1" />
<path d="M218.5,406.5l556,0" class="g1_1" />
<path d="M774.5,406.5l0,-1" class="g1_1" />
<path d="M87.5,542.5l0,-136" class="g1_1" />
<path d="M217.5,542.5l0,-136" class="g1_1" />
<path d="M774.5,542.5l0,-136" class="g1_1" />
<path fill-rule="evenodd" d="M88,565l8,0l0,-22l-8,0l0,22Z" class="g3_1" />
<path fill-rule="evenodd" d="M209,565l8,0l0,-22l-8,0l0,22Z" class="g3_1" />
<path fill-rule="evenodd" d="M88,610l129,0l0,-45L88,565l0,45Z" class="g3_1" />
<path fill-rule="evenodd" d="M96,565l113,0l0,-22L96,543l0,22Z" class="g3_1" />
<path fill-rule="evenodd" d="M218,610l8,0l0,-67l-8,0l0,67Z" class="g2_1" />
<path fill-rule="evenodd" d="M767,610l7,0l0,-67l-7,0l0,67Z" class="g2_1" />
<path fill-rule="evenodd" d="M226,565l541,0l0,-22l-541,0l0,22Z" class="g2_1" />
<path fill-rule="evenodd" d="M226,587l541,0l0,-22l-541,0l0,22Z" class="g2_1" />
<path fill-rule="evenodd" d="M226,610l541,0l0,-23l-541,0l0,23Z" class="g2_1" />
<path d="M87.5,543.5l0,-1" class="g1_1" />
<path d="M88.5,543.5l129,0" class="g1_1" />
<path d="M217.5,543.5l0,-1" class="g1_1" />
<path d="M218.5,543.5l556,0" class="g1_1" />
<path d="M774.5,543.5l0,-1" class="g1_1" />
<path d="M87.5,610.5l0,-67" class="g1_1" />
<path d="M217.5,610.5l0,-67" class="g1_1" />
<path d="M774.5,610.5l0,-67" class="g1_1" />
<path fill-rule="evenodd" d="M88,655l8,0l0,-44l-8,0l0,44Z" class="g3_1" />
<path fill-rule="evenodd" d="M209,655l8,0l0,-44l-8,0l0,44Z" class="g3_1" />
<path fill-rule="evenodd" d="M88,1094l129,0l0,-439L88,655l0,439Z" class="g3_1" />
<path fill-rule="evenodd" d="M96,633l113,0l0,-22L96,611l0,22Z" class="g3_1" />
<path fill-rule="evenodd" d="M96,655l113,0l0,-22L96,633l0,22Z" class="g3_1" />
<path fill-rule="evenodd" d="M218,1094l8,0l0,-483l-8,0l0,483Z" class="g2_1" />
<path fill-rule="evenodd" d="M767,1094l7,0l0,-483l-7,0l0,483Z" class="g2_1" />
<path fill-rule="evenodd" d="M226,633l541,0l0,-22l-541,0l0,22Z" class="g2_1" />
<path fill-rule="evenodd" d="M226,655l541,0l0,-22l-541,0l0,22Z" class="g2_1" />
<path fill-rule="evenodd" d="M226,678l541,0l0,-23l-541,0l0,23Z" class="g2_1" />
<path fill-rule="evenodd" d="M226,700l541,0l0,-22l-541,0l0,22Z" class="g2_1" />
<path fill-rule="evenodd" d="M245,698l115,0l0,-1l-115,0l0,1Z" class="g4_1" />
<path fill-rule="evenodd" d="M226,722l541,0l0,-22l-541,0l0,22Z" class="g2_1" />
<path fill-rule="evenodd" d="M226,746l541,0l0,-24l-541,0l0,24Z" class="g2_1" />
<path fill-rule="evenodd" d="M226,768l541,0l0,-22l-541,0l0,22Z" class="g2_1" />
<path fill-rule="evenodd" d="M226,792l541,0l0,-24l-541,0l0,24Z" class="g2_1" />
<path fill-rule="evenodd" d="M226,814l541,0l0,-22l-541,0l0,22Z" class="g2_1" />
<path fill-rule="evenodd" d="M226,836l541,0l0,-22l-541,0l0,22Z" class="g2_1" />
<path fill-rule="evenodd" d="M226,859l541,0l0,-23l-541,0l0,23Z" class="g2_1" />
<path fill-rule="evenodd" d="M226,882l541,0l0,-23l-541,0l0,23Z" class="g2_1" />
<path fill-rule="evenodd" d="M226,904l541,0l0,-22l-541,0l0,22Z" class="g2_1" />
<path fill-rule="evenodd" d="M226,927l541,0l0,-23l-541,0l0,23Z" class="g2_1" />
<path fill-rule="evenodd" d="M226,949l541,0l0,-22l-541,0l0,22Z" class="g2_1" />
<path fill-rule="evenodd" d="M226,973l541,0l0,-24l-541,0l0,24Z" class="g2_1" />
<path fill-rule="evenodd" d="M226,995l541,0l0,-22l-541,0l0,22Z" class="g2_1" />
<path fill-rule="evenodd" d="M226,1017l541,0l0,-22l-541,0l0,22Z" class="g2_1" />
<path fill-rule="evenodd" d="M226,1040l541,0l0,-23l-541,0l0,23Z" class="g2_1" />
<path fill-rule="evenodd" d="M226,1071l541,0l0,-31l-541,0l0,31Z" class="g2_1" />
<path fill-rule="evenodd" d="M226,1094l541,0l0,-23l-541,0l0,23Z" class="g2_1" />
<path d="M88.5,610.5l129,0" class="g1_1" />
<path d="M218.5,610.5l556,0" class="g1_1" />
<path d="M87.5,1094.5l0,-484" class="g1_1" />
<path d="M88.5,1094.5l129,0" class="g1_1" />
<path d="M217.5,1094.5l0,-484" class="g1_1" />
<path d="M218.5,1094.5l556,0" class="g1_1" />
<path d="M774.5,1094.5l0,-484" class="g1_1" />
</svg>