<?xml version="1.0" encoding="UTF-8" standalone="no"?>
<!DOCTYPE svg PUBLIC "-//W3C//DTD SVG 1.1//EN"
"http://www.w3.org/Graphics/SVG/1.1/DTD/svg11.dtd">
<svg version="1.1" xmlns="http://www.w3.org/2000/svg" xmlns:xlink="http://www.w3.org/1999/xlink">
<defs>
<clipPath id="c0_9"><path d="M222.5,1165.5l0,-1035l591,0l0,1035Z" /></clipPath>
<style type="text/css"><![CDATA[
.g2_9{
fill: #F1F1F1;
}
.g3_9{
fill: none;
stroke: #000000;
stroke-width: 1;
stroke-linecap: butt;
stroke-linejoin: miter;
}
.g1_9{
fill: #44546A;
}
]]></style>
</defs>
<image x="111" y="54" width="238" height="56" xlink:href="img/1.png" />
<path fill-rule="evenodd" d="M102,1165l120,0L222,130l-120,0l0,1035Z" class="g1_9" />
<path fill-rule="evenodd" d="M222,1165l8,0L230,130l-8,0l0,1035Z" class="g2_9" />
<path fill-rule="evenodd" d="M805,1165l8,0L813,130l-8,0l0,1035Z" class="g2_9" />
<g clip-path="url(#c0_9)">
<path fill-rule="evenodd" d="M230,150l575,0l0,-20l-575,0l0,20Z" class="g2_9" />
</g>
<path fill-rule="evenodd" d="M230,192l575,0l0,-42l-575,0l0,42Z" class="g2_9" />
<path fill-rule="evenodd" d="M230,213l575,0l0,-21l-575,0l0,21Z" class="g2_9" />
<path fill-rule="evenodd" d="M230,233l575,0l0,-20l-575,0l0,20Z" class="g2_9" />
<path fill-rule="evenodd" d="M230,254l575,0l0,-21l-575,0l0,21Z" class="g2_9" />
<path fill-rule="evenodd" d="M230,274l575,0l0,-20l-575,0l0,20Z" class="g2_9" />
<path fill-rule="evenodd" d="M230,295l575,0l0,-21l-575,0l0,21Z" class="g2_9" />
<path fill-rule="evenodd" d="M230,315l575,0l0,-20l-575,0l0,20Z" class="g2_9" />
<path fill-rule="evenodd" d="M230,336l575,0l0,-21l-575,0l0,21Z" class="g2_9" />
<path fill-rule="evenodd" d="M230,356l575,0l0,-20l-575,0l0,20Z" class="g2_9" />
<path fill-rule="evenodd" d="M230,377l575,0l0,-21l-575,0l0,21Z" class="g2_9" />
<path fill-rule="evenodd" d="M230,419l575,0l0,-42l-575,0l0,42Z" class="g2_9" />
<path fill-rule="evenodd" d="M230,461l575,0l0,-42l-575,0l0,42Z" class="g2_9" />
<path fill-rule="evenodd" d="M230,481l575,0l0,-20l-575,0l0,20Z" class="g2_9" />
<path fill-rule="evenodd" d="M230,502l575,0l0,-21l-575,0l0,21Z" class="g2_9" />
<path fill-rule="evenodd" d="M230,544l575,0l0,-42l-575,0l0,42Z" class="g2_9" />
<path fill-rule="evenodd" d="M230,586l575,0l0,-42l-575,0l0,42Z" class="g2_9" />
<path fill-rule="evenodd" d="M230,606l575,0l0,-20l-575,0l0,20Z" class="g2_9" />
<path fill-rule="evenodd" d="M230,627l575,0l0,-21l-575,0l0,21Z" class="g2_9" />
<path fill-rule="evenodd" d="M230,647l575,0l0,-20l-575,0l0,20Z" class="g2_9" />
<path fill-rule="evenodd" d="M230,668l575,0l0,-21l-575,0l0,21Z" class="g2_9" />
<path fill-rule="evenodd" d="M230,688l575,0l0,-20l-575,0l0,20Z" class="g2_9" />
<path fill-rule="evenodd" d="M230,709l575,0l0,-21l-575,0l0,21Z" class="g2_9" />
<path fill-rule="evenodd" d="M230,729l575,0l0,-20l-575,0l0,20Z" class="g2_9" />
<path fill-rule="evenodd" d="M230,750l575,0l0,-21l-575,0l0,21Z" class="g2_9" />
<path fill-rule="evenodd" d="M230,770l575,0l0,-20l-575,0l0,20Z" class="g2_9" />
<path fill-rule="evenodd" d="M230,791l575,0l0,-21l-575,0l0,21Z" class="g2_9" />
<path fill-rule="evenodd" d="M230,854l575,0l0,-63l-575,0l0,63Z" class="g2_9" />
<path fill-rule="evenodd" d="M230,875l575,0l0,-21l-575,0l0,21Z" class="g2_9" />
<path fill-rule="evenodd" d="M230,895l575,0l0,-20l-575,0l0,20Z" class="g2_9" />
<path fill-rule="evenodd" d="M230,916l575,0l0,-21l-575,0l0,21Z" class="g2_9" />
<path fill-rule="evenodd" d="M230,936l575,0l0,-20l-575,0l0,20Z" class="g2_9" />
<path fill-rule="evenodd" d="M230,978l575,0l0,-42l-575,0l0,42Z" class="g2_9" />
<path fill-rule="evenodd" d="M230,1020l575,0l0,-42l-575,0l0,42Z" class="g2_9" />
<path fill-rule="evenodd" d="M230,1040l575,0l0,-20l-575,0l0,20Z" class="g2_9" />
<path fill-rule="evenodd" d="M230,1061l575,0l0,-21l-575,0l0,21Z" class="g2_9" />
<path fill-rule="evenodd" d="M230,1082l575,0l0,-21l-575,0l0,21Z" class="g2_9" />
<path fill-rule="evenodd" d="M230,1123l575,0l0,-41l-575,0l0,41Z" class="g2_9" />
<path fill-rule="evenodd" d="M230,1165l575,0l0,-42l-575,0l0,42Z" class="g2_9" />
<path d="M101.5,130.5l0,-1" class="g3_9" />
<path d="M101.5,130.5l0,-1" class="g3_9" />
<path d="M102.5,130.5l120,0" class="g3_9" />
<path d="M222.5,130.5l0,-1" class="g3_9" />
<path d="M222.5,130.5l591,0" class="g3_9" />
<path d="M813.5,130.5l0,-1" class="g3_9" />
<path d="M813.5,130.5l0,-1" class="g3_9" />
<path d="M101.5,1165.5l0,-1035" class="g3_9" />
<path d="M102.5,1166.5l120,0" class="g3_9" />
<path d="M222.5,1165.5l0,-1035" class="g3_9" />
<path d="M222.5,1166.5l591,0" class="g3_9" />
<path d="M813.5,1165.5l0,-1035" class="g3_9" />
</svg>