<?xml version="1.0" encoding="UTF-8" standalone="no"?>
<!DOCTYPE svg PUBLIC "-//W3C//DTD SVG 1.1//EN"
"http://www.w3.org/Graphics/SVG/1.1/DTD/svg11.dtd">
<svg version="1.1" xmlns="http://www.w3.org/2000/svg" xmlns:xlink="http://www.w3.org/1999/xlink">
<defs>
<clipPath id="c0_1"><path d="M102.5,460.5l0,-52l129,0l0,52Z" /></clipPath>
<clipPath id="c1_1"><path d="M232.5,460.5l0,-52l581,0l0,52Z" /></clipPath>
<clipPath id="c2_1"><path d="M102.5,825.5l0,-264l129,0l0,264Z" /></clipPath>
<clipPath id="c3_1"><path d="M232.5,825.5l0,-264l581,0l0,264Z" /></clipPath>
<style type="text/css"><![CDATA[
.g2_1{
fill: #F1F1F1;
}
.g3_1{
fill: #44546A;
}
.g1_1{
fill: none;
stroke: #000000;
stroke-width: 1;
stroke-linecap: butt;
stroke-linejoin: miter;
}
]]></style>
</defs>
<image x="111" y="54" width="234" height="55" xlink:href="img/1.png" />
<path d="M399.5,151.5l117,0" class="g1_1" />
<path fill-rule="evenodd" d="M101,193l8,0l0,-30l-8,0l0,30Z" class="g2_1" />
<path fill-rule="evenodd" d="M439,193l8,0l0,-30l-8,0l0,30Z" class="g2_1" />
<path fill-rule="evenodd" d="M109,193l330,0l0,-30l-330,0l0,30Z" class="g2_1" />
<path fill-rule="evenodd" d="M448,193l8,0l0,-30l-8,0l0,30Z" class="g2_1" />
<path fill-rule="evenodd" d="M801,193l8,0l0,-30l-8,0l0,30Z" class="g2_1" />
<path fill-rule="evenodd" d="M456,193l345,0l0,-30l-345,0l0,30Z" class="g2_1" />
<path d="M101.5,163.5l0,-1" class="g1_1" />
<path d="M101.5,163.5l0,-1" class="g1_1" />
<path d="M101.5,163.5l346,0" class="g1_1" />
<path d="M447.5,163.5l0,-1" class="g1_1" />
<path d="M448.5,163.5l361,0" class="g1_1" />
<path d="M809.5,163.5l0,-1" class="g1_1" />
<path d="M809.5,163.5l0,-1" class="g1_1" />
<path d="M101.5,193.5l0,-30" class="g1_1" />
<path d="M447.5,193.5l0,-30" class="g1_1" />
<path d="M809.5,193.5l0,-30" class="g1_1" />
<path d="M101.5,193.5l346,0" class="g1_1" />
<path d="M448.5,193.5l361,0" class="g1_1" />
<path d="M101.5,224.5l0,-31" class="g1_1" />
<path d="M447.5,224.5l0,-31" class="g1_1" />
<path d="M809.5,224.5l0,-31" class="g1_1" />
<path d="M101.5,225.5l0,-1" class="g1_1" />
<path d="M101.5,225.5l346,0" class="g1_1" />
<path d="M447.5,225.5l0,-1" class="g1_1" />
<path d="M448.5,225.5l361,0" class="g1_1" />
<path d="M809.5,225.5l0,-1" class="g1_1" />
<path d="M101.5,256.5l0,-31" class="g1_1" />
<path d="M101.5,257.5l0,-1" class="g1_1" />
<path d="M101.5,257.5l0,-1" class="g1_1" />
<path d="M101.5,257.5l346,0" class="g1_1" />
<path d="M447.5,256.5l0,-31" class="g1_1" />
<path d="M447.5,257.5l0,-1" class="g1_1" />
<path d="M448.5,257.5l361,0" class="g1_1" />
<path d="M809.5,256.5l0,-31" class="g1_1" />
<path d="M809.5,257.5l0,-1" class="g1_1" />
<path d="M809.5,257.5l0,-1" class="g1_1" />
<path fill-rule="evenodd" d="M102,316l8,0l0,-23l-8,0l0,23Z" class="g3_1" />
<path fill-rule="evenodd" d="M223,316l8,0l0,-23l-8,0l0,23Z" class="g3_1" />
<path fill-rule="evenodd" d="M110,316l113,0l0,-23l-113,0l0,23Z" class="g3_1" />
<path fill-rule="evenodd" d="M232,316l8,0l0,-23l-8,0l0,23Z" class="g2_1" />
<path fill-rule="evenodd" d="M805,316l8,0l0,-23l-8,0l0,23Z" class="g2_1" />
<path fill-rule="evenodd" d="M240,316l565,0l0,-23l-565,0l0,23Z" class="g2_1" />
<path d="M101.5,293.5l0,-1" class="g1_1" />
<path d="M101.5,293.5l0,-1" class="g1_1" />
<path d="M102.5,293.5l129,0" class="g1_1" />
<path d="M231.5,293.5l0,-1" class="g1_1" />
<path d="M232.5,293.5l581,0" class="g1_1" />
<path d="M813.5,293.5l0,-1" class="g1_1" />
<path d="M813.5,293.5l0,-1" class="g1_1" />
<path d="M101.5,316.5l0,-23" class="g1_1" />
<path d="M231.5,316.5l0,-23" class="g1_1" />
<path d="M813.5,316.5l0,-23" class="g1_1" />
<path fill-rule="evenodd" d="M102,361l8,0l0,-45l-8,0l0,45Z" class="g3_1" />
<path fill-rule="evenodd" d="M223,361l8,0l0,-45l-8,0l0,45Z" class="g3_1" />
<path fill-rule="evenodd" d="M110,339l113,0l0,-23l-113,0l0,23Z" class="g3_1" />
<path fill-rule="evenodd" d="M110,361l113,0l0,-22l-113,0l0,22Z" class="g3_1" />
<path fill-rule="evenodd" d="M232,339l8,0l0,-23l-8,0l0,23Z" class="g2_1" />
<path fill-rule="evenodd" d="M805,339l8,0l0,-23l-8,0l0,23Z" class="g2_1" />
<path fill-rule="evenodd" d="M232,361l581,0l0,-22l-581,0l0,22Z" class="g2_1" />
<path fill-rule="evenodd" d="M240,339l565,0l0,-23l-565,0l0,23Z" class="g2_1" />
<path d="M102.5,316.5l129,0" class="g1_1" />
<path d="M232.5,316.5l581,0" class="g1_1" />
<path d="M101.5,361.5l0,-45" class="g1_1" />
<path d="M231.5,361.5l0,-45" class="g1_1" />
<path d="M813.5,361.5l0,-45" class="g1_1" />
<path fill-rule="evenodd" d="M102,384l8,0l0,-22l-8,0l0,22Z" class="g3_1" />
<path fill-rule="evenodd" d="M223,384l8,0l0,-22l-8,0l0,22Z" class="g3_1" />
<path fill-rule="evenodd" d="M110,384l113,0l0,-22l-113,0l0,22Z" class="g3_1" />
<path fill-rule="evenodd" d="M232,384l8,0l0,-22l-8,0l0,22Z" class="g2_1" />
<path fill-rule="evenodd" d="M805,384l8,0l0,-22l-8,0l0,22Z" class="g2_1" />
<path fill-rule="evenodd" d="M240,384l565,0l0,-22l-565,0l0,22Z" class="g2_1" />
<path d="M101.5,362.5l0,-1" class="g1_1" />
<path d="M102.5,362.5l129,0" class="g1_1" />
<path d="M231.5,362.5l0,-1" class="g1_1" />
<path d="M232.5,362.5l581,0" class="g1_1" />
<path d="M813.5,362.5l0,-1" class="g1_1" />
<path d="M101.5,384.5l0,-22" class="g1_1" />
<path d="M231.5,384.5l0,-22" class="g1_1" />
<path d="M813.5,384.5l0,-22" class="g1_1" />
<path fill-rule="evenodd" d="M102,407l8,0l0,-22l-8,0l0,22Z" class="g3_1" />
<path fill-rule="evenodd" d="M223,407l8,0l0,-22l-8,0l0,22Z" class="g3_1" />
<path fill-rule="evenodd" d="M110,407l113,0l0,-22l-113,0l0,22Z" class="g3_1" />
<path fill-rule="evenodd" d="M232,407l8,0l0,-22l-8,0l0,22Z" class="g2_1" />
<path fill-rule="evenodd" d="M805,407l8,0l0,-22l-8,0l0,22Z" class="g2_1" />
<path fill-rule="evenodd" d="M240,407l565,0l0,-22l-565,0l0,22Z" class="g2_1" />
<path d="M101.5,385.5l0,-1" class="g1_1" />
<path d="M102.5,385.5l129,0" class="g1_1" />
<path d="M231.5,385.5l0,-1" class="g1_1" />
<path d="M232.5,385.5l581,0" class="g1_1" />
<path d="M813.5,385.5l0,-1" class="g1_1" />
<path d="M101.5,407.5l0,-22" class="g1_1" />
<path d="M231.5,407.5l0,-22" class="g1_1" />
<path d="M813.5,407.5l0,-22" class="g1_1" />
<path fill-rule="evenodd" d="M102,431l8,0l0,-23l-8,0l0,23Z" class="g3_1" />
<path fill-rule="evenodd" d="M223,431l8,0l0,-23l-8,0l0,23Z" class="g3_1" />
<path fill-rule="evenodd" d="M102,460l129,0l0,-29l-129,0l0,29Z" class="g3_1" />
<g clip-path="url(#c0_1)">
<path fill-rule="evenodd" d="M110,431l113,0l0,-23l-113,0l0,23Z" class="g3_1" />
</g>
<path fill-rule="evenodd" d="M232,460l8,0l0,-52l-8,0l0,52Z" class="g2_1" />
<path fill-rule="evenodd" d="M805,460l8,0l0,-52l-8,0l0,52Z" class="g2_1" />
<g clip-path="url(#c1_1)">
<path fill-rule="evenodd" d="M240,434l565,0l0,-26l-565,0l0,26Z" class="g2_1" />
</g>
<path fill-rule="evenodd" d="M240,460l565,0l0,-26l-565,0l0,26Z" class="g2_1" />
<path d="M101.5,408.5l0,-1" class="g1_1" />
<path d="M102.5,408.5l129,0" class="g1_1" />
<path d="M231.5,408.5l0,-1" class="g1_1" />
<path d="M232.5,408.5l581,0" class="g1_1" />
<path d="M813.5,408.5l0,-1" class="g1_1" />
<path d="M101.5,460.5l0,-52" class="g1_1" />
<path d="M231.5,460.5l0,-52" class="g1_1" />
<path d="M813.5,460.5l0,-52" class="g1_1" />
<path fill-rule="evenodd" d="M102,483l8,0l0,-23l-8,0l0,23Z" class="g3_1" />
<path fill-rule="evenodd" d="M223,483l8,0l0,-23l-8,0l0,23Z" class="g3_1" />
<path fill-rule="evenodd" d="M110,483l113,0l0,-23l-113,0l0,23Z" class="g3_1" />
<path fill-rule="evenodd" d="M232,483l8,0l0,-23l-8,0l0,23Z" class="g2_1" />
<path fill-rule="evenodd" d="M805,483l8,0l0,-23l-8,0l0,23Z" class="g2_1" />
<path fill-rule="evenodd" d="M240,483l565,0l0,-23l-565,0l0,23Z" class="g2_1" />
<path d="M102.5,460.5l129,0" class="g1_1" />
<path d="M232.5,460.5l581,0" class="g1_1" />
<path d="M101.5,483.5l0,-23" class="g1_1" />
<path d="M231.5,483.5l0,-23" class="g1_1" />
<path d="M813.5,483.5l0,-23" class="g1_1" />
<path fill-rule="evenodd" d="M102,528l8,0l0,-44l-8,0l0,44Z" class="g3_1" />
<path fill-rule="evenodd" d="M223,528l8,0l0,-44l-8,0l0,44Z" class="g3_1" />
<path fill-rule="evenodd" d="M102,560l129,0l0,-32l-129,0l0,32Z" class="g3_1" />
<path fill-rule="evenodd" d="M110,506l113,0l0,-22l-113,0l0,22Z" class="g3_1" />
<path fill-rule="evenodd" d="M110,528l113,0l0,-22l-113,0l0,22Z" class="g3_1" />
<path fill-rule="evenodd" d="M232,560l8,0l0,-76l-8,0l0,76Z" class="g2_1" />
<path fill-rule="evenodd" d="M805,560l8,0l0,-76l-8,0l0,76Z" class="g2_1" />
<path fill-rule="evenodd" d="M240,506l565,0l0,-22l-565,0l0,22Z" class="g2_1" />
<path fill-rule="evenodd" d="M240,528l565,0l0,-22l-565,0l0,22Z" class="g2_1" />
<path fill-rule="evenodd" d="M240,560l565,0l0,-32l-565,0l0,32Z" class="g2_1" />
<path d="M101.5,484.5l0,-1" class="g1_1" />
<path d="M102.5,484.5l129,0" class="g1_1" />
<path d="M231.5,484.5l0,-1" class="g1_1" />
<path d="M232.5,484.5l581,0" class="g1_1" />
<path d="M813.5,484.5l0,-1" class="g1_1" />
<path d="M101.5,560.5l0,-76" class="g1_1" />
<path d="M231.5,560.5l0,-76" class="g1_1" />
<path d="M813.5,560.5l0,-76" class="g1_1" />
<path fill-rule="evenodd" d="M102,583l8,0l0,-22l-8,0l0,22Z" class="g3_1" />
<path fill-rule="evenodd" d="M223,583l8,0l0,-22l-8,0l0,22Z" class="g3_1" />
<path fill-rule="evenodd" d="M102,825l129,0l0,-242l-129,0l0,242Z" class="g3_1" />
<g clip-path="url(#c2_1)">
<path fill-rule="evenodd" d="M110,583l113,0l0,-22l-113,0l0,22Z" class="g3_1" />
</g>
<path fill-rule="evenodd" d="M232,825l8,0l0,-264l-8,0l0,264Z" class="g2_1" />
<path fill-rule="evenodd" d="M805,825l8,0l0,-264l-8,0l0,264Z" class="g2_1" />
<g clip-path="url(#c3_1)">
<path fill-rule="evenodd" d="M240,583l565,0l0,-22l-565,0l0,22Z" class="g2_1" />
</g>
<path fill-rule="evenodd" d="M240,605l565,0l0,-22l-565,0l0,22Z" class="g2_1" />
<path fill-rule="evenodd" d="M240,632l565,0l0,-27l-565,0l0,27Z" class="g2_1" />
<path fill-rule="evenodd" d="M240,655l565,0l0,-23l-565,0l0,23Z" class="g2_1" />
<path fill-rule="evenodd" d="M240,677l565,0l0,-22l-565,0l0,22Z" class="g2_1" />
<path fill-rule="evenodd" d="M240,704l565,0l0,-27l-565,0l0,27Z" class="g2_1" />
<path fill-rule="evenodd" d="M240,727l565,0l0,-23l-565,0l0,23Z" class="g2_1" />
<path fill-rule="evenodd" d="M240,753l565,0l0,-26l-565,0l0,26Z" class="g2_1" />
<path fill-rule="evenodd" d="M240,776l565,0l0,-23l-565,0l0,23Z" class="g2_1" />
<path fill-rule="evenodd" d="M240,798l565,0l0,-22l-565,0l0,22Z" class="g2_1" />
<path fill-rule="evenodd" d="M240,825l565,0l0,-27l-565,0l0,27Z" class="g2_1" />
<path d="M101.5,561.5l0,-1" class="g1_1" />
<path d="M102.5,561.5l129,0" class="g1_1" />
<path d="M231.5,561.5l0,-1" class="g1_1" />
<path d="M232.5,561.5l581,0" class="g1_1" />
<path d="M813.5,561.5l0,-1" class="g1_1" />
<path d="M101.5,825.5l0,-264" class="g1_1" />
<path d="M231.5,825.5l0,-264" class="g1_1" />
<path d="M813.5,825.5l0,-264" class="g1_1" />
<path fill-rule="evenodd" d="M102,848l8,0l0,-22l-8,0l0,22Z" class="g3_1" />
<path fill-rule="evenodd" d="M223,848l8,0l0,-22l-8,0l0,22Z" class="g3_1" />
<path fill-rule="evenodd" d="M102,871l129,0l0,-23l-129,0l0,23Z" class="g3_1" />
<path fill-rule="evenodd" d="M110,848l113,0l0,-22l-113,0l0,22Z" class="g3_1" />
<path fill-rule="evenodd" d="M232,871l8,0l0,-45l-8,0l0,45Z" class="g2_1" />
<path fill-rule="evenodd" d="M805,871l8,0l0,-45l-8,0l0,45Z" class="g2_1" />
<path fill-rule="evenodd" d="M240,848l565,0l0,-22l-565,0l0,22Z" class="g2_1" />
<path fill-rule="evenodd" d="M240,871l565,0l0,-23l-565,0l0,23Z" class="g2_1" />
<path d="M101.5,826.5l0,-1" class="g1_1" />
<path d="M102.5,826.5l129,0" class="g1_1" />
<path d="M231.5,826.5l0,-1" class="g1_1" />
<path d="M232.5,826.5l581,0" class="g1_1" />
<path d="M813.5,826.5l0,-1" class="g1_1" />
<path d="M101.5,871.5l0,-45" class="g1_1" />
<path d="M231.5,871.5l0,-45" class="g1_1" />
<path d="M813.5,871.5l0,-45" class="g1_1" />
<path fill-rule="evenodd" d="M102,894l8,0l0,-23l-8,0l0,23Z" class="g3_1" />
<path fill-rule="evenodd" d="M223,894l8,0l0,-23l-8,0l0,23Z" class="g3_1" />
<path fill-rule="evenodd" d="M102,983l129,0l0,-89l-129,0l0,89Z" class="g3_1" />
<path fill-rule="evenodd" d="M110,894l113,0l0,-23l-113,0l0,23Z" class="g3_1" />
<path fill-rule="evenodd" d="M232,983l8,0l0,-112l-8,0l0,112Z" class="g2_1" />
<path fill-rule="evenodd" d="M805,983l8,0l0,-112l-8,0l0,112Z" class="g2_1" />
<path fill-rule="evenodd" d="M240,894l565,0l0,-23l-565,0l0,23Z" class="g2_1" />
<path fill-rule="evenodd" d="M240,916l565,0l0,-22l-565,0l0,22Z" class="g2_1" />
<path fill-rule="evenodd" d="M240,939l565,0l0,-23l-565,0l0,23Z" class="g2_1" />
<path fill-rule="evenodd" d="M240,961l565,0l0,-22l-565,0l0,22Z" class="g2_1" />
<path fill-rule="evenodd" d="M240,983l565,0l0,-22l-565,0l0,22Z" class="g2_1" />
<path d="M102.5,871.5l129,0" class="g1_1" />
<path d="M232.5,871.5l581,0" class="g1_1" />
<path d="M101.5,983.5l0,-112" class="g1_1" />
<path d="M101.5,984.5l0,-1" class="g1_1" />
<path d="M101.5,984.5l0,-1" class="g1_1" />
<path d="M102.5,984.5l129,0" class="g1_1" />
<path d="M231.5,983.5l0,-112" class="g1_1" />
<path d="M231.5,984.5l0,-1" class="g1_1" />
<path d="M232.5,984.5l581,0" class="g1_1" />
<path d="M813.5,983.5l0,-112" class="g1_1" />
<path d="M813.5,984.5l0,-1" class="g1_1" />
<path d="M813.5,984.5l0,-1" class="g1_1" />
</svg>