<?xml version="1.0" encoding="UTF-8" standalone="no"?>
<!DOCTYPE svg PUBLIC "-//W3C//DTD SVG 1.1//EN"
"http://www.w3.org/Graphics/SVG/1.1/DTD/svg11.dtd">
<svg version="1.1" xmlns="http://www.w3.org/2000/svg" xmlns:xlink="http://www.w3.org/1999/xlink">
<defs>
<clipPath id="c0_1"><path d="M102.5,483.5l0,-67l131,0l0,67Z" /></clipPath>
<clipPath id="c1_1"><path d="M234.5,483.5l0,-67l573,0l0,67Z" /></clipPath>
<style type="text/css"><![CDATA[
.g5_1{
}
.g2_1{
fill: #F1F1F1;
}
.g4_1{
fill: none;
stroke: #F1F1F1;
stroke-width: 1;
stroke-linecap: butt;
stroke-linejoin: miter;
}
.g3_1{
fill: #44546A;
}
.g1_1{
fill: none;
stroke: #000000;
stroke-width: 1;
stroke-linecap: butt;
stroke-linejoin: miter;
}
]]></style>
</defs>
<image x="110" y="54" width="234" height="55" xlink:href="img/1.png" />
<path d="M260.5,151.5l388,0" class="g1_1" />
<path fill-rule="evenodd" d="M101,199l8,0l0,-31l-8,0l0,31Z" class="g2_1" />
<path fill-rule="evenodd" d="M439,199l8,0l0,-31l-8,0l0,31Z" class="g2_1" />
<path fill-rule="evenodd" d="M109,199l330,0l0,-31l-330,0l0,31Z" class="g2_1" />
<path fill-rule="evenodd" d="M448,199l8,0l0,-31l-8,0l0,31Z" class="g2_1" />
<path fill-rule="evenodd" d="M796,199l8,0l0,-31l-8,0l0,31Z" class="g2_1" />
<path fill-rule="evenodd" d="M456,199l340,0l0,-31l-340,0l0,31Z" class="g2_1" />
<path d="M101.5,168.5l0,-1" class="g1_1" />
<path d="M101.5,168.5l0,-1" class="g1_1" />
<path d="M101.5,168.5l346,0" class="g1_1" />
<path d="M447.5,168.5l0,-1" class="g1_1" />
<path d="M448.5,168.5l356,0" class="g1_1" />
<path d="M804.5,168.5l0,-1" class="g1_1" />
<path d="M804.5,168.5l0,-1" class="g1_1" />
<path d="M101.5,199.5l0,-31" class="g1_1" />
<path d="M447.5,199.5l0,-31" class="g1_1" />
<path d="M804.5,199.5l0,-31" class="g1_1" />
<path d="M101.5,200.5l0,-1" class="g1_1" />
<path d="M101.5,200.5l346,0" class="g1_1" />
<path d="M447.5,200.5l0,-1" class="g1_1" />
<path d="M448.5,200.5l356,0" class="g1_1" />
<path d="M804.5,200.5l0,-1" class="g1_1" />
<path d="M101.5,232.5l0,-32" class="g1_1" />
<path d="M447.5,232.5l0,-32" class="g1_1" />
<path d="M804.5,232.5l0,-32" class="g1_1" />
<path d="M101.5,233.5l0,-1" class="g1_1" />
<path d="M101.5,233.5l346,0" class="g1_1" />
<path d="M447.5,233.5l0,-1" class="g1_1" />
<path d="M448.5,233.5l356,0" class="g1_1" />
<path d="M804.5,233.5l0,-1" class="g1_1" />
<path d="M101.5,265.5l0,-32" class="g1_1" />
<path d="M101.5,265.5l346,0" class="g1_1" />
<path d="M447.5,265.5l0,-32" class="g1_1" />
<path d="M448.5,265.5l356,0" class="g1_1" />
<path d="M804.5,265.5l0,-32" class="g1_1" />
<path fill-rule="evenodd" d="M102,323l8,0l0,-22l-8,0l0,22Z" class="g3_1" />
<path fill-rule="evenodd" d="M225,323l8,0l0,-22l-8,0l0,22Z" class="g3_1" />
<path fill-rule="evenodd" d="M110,323l115,0l0,-22l-115,0l0,22Z" class="g3_1" />
<path fill-rule="evenodd" d="M234,323l8,0l0,-22l-8,0l0,22Z" class="g2_1" />
<path fill-rule="evenodd" d="M799,323l8,0l0,-22l-8,0l0,22Z" class="g2_1" />
<path fill-rule="evenodd" d="M242,323l557,0l0,-22l-557,0l0,22Z" class="g2_1" />
<path d="M101.5,301.5l0,-1" class="g1_1" />
<path d="M101.5,301.5l0,-1" class="g1_1" />
<path d="M102.5,301.5l131,0" class="g1_1" />
<path d="M233.5,301.5l0,-1" class="g1_1" />
<path d="M234.5,301.5l573,0" class="g1_1" />
<path d="M807.5,301.5l0,-1" class="g1_1" />
<path d="M807.5,301.5l0,-1" class="g1_1" />
<path d="M101.5,323.5l0,-22" class="g1_1" />
<path d="M233.5,323.5l0,-22" class="g1_1" />
<path d="M807.5,323.5l0,-22" class="g1_1" />
<path fill-rule="evenodd" d="M102,368l8,0l0,-44l-8,0l0,44Z" class="g3_1" />
<path fill-rule="evenodd" d="M225,368l8,0l0,-44l-8,0l0,44Z" class="g3_1" />
<path fill-rule="evenodd" d="M110,346l115,0l0,-22l-115,0l0,22Z" class="g3_1" />
<path fill-rule="evenodd" d="M110,368l115,0l0,-22l-115,0l0,22Z" class="g3_1" />
<path fill-rule="evenodd" d="M234,346l8,0l0,-22l-8,0l0,22Z" class="g2_1" />
<path fill-rule="evenodd" d="M799,346l8,0l0,-22l-8,0l0,22Z" class="g2_1" />
<path fill-rule="evenodd" d="M234,368l573,0l0,-22l-573,0l0,22Z" class="g2_1" />
<path fill-rule="evenodd" d="M242,346l557,0l0,-22l-557,0l0,22Z" class="g2_1" />
<path d="M101.5,324.5l0,-1" class="g1_1" />
<path d="M102.5,324.5l131,0" class="g1_1" />
<path d="M233.5,324.5l0,-1" class="g1_1" />
<path d="M234.5,324.5l573,0" class="g1_1" />
<path d="M807.5,324.5l0,-1" class="g1_1" />
<path d="M101.5,368.5l0,-44" class="g1_1" />
<path d="M233.5,368.5l0,-44" class="g1_1" />
<path d="M807.5,368.5l0,-44" class="g1_1" />
<path fill-rule="evenodd" d="M102,392l8,0l0,-23l-8,0l0,23Z" class="g3_1" />
<path fill-rule="evenodd" d="M225,392l8,0l0,-23l-8,0l0,23Z" class="g3_1" />
<path fill-rule="evenodd" d="M110,392l115,0l0,-23l-115,0l0,23Z" class="g3_1" />
<path fill-rule="evenodd" d="M234,392l8,0l0,-23l-8,0l0,23Z" class="g2_1" />
<path fill-rule="evenodd" d="M799,392l8,0l0,-23l-8,0l0,23Z" class="g2_1" />
<path fill-rule="evenodd" d="M242,392l557,0l0,-23l-557,0l0,23Z" class="g2_1" />
<path d="M101.5,369.5l0,-1" class="g1_1" />
<path d="M102.5,369.5l131,0" class="g1_1" />
<path d="M233.5,369.5l0,-1" class="g1_1" />
<path d="M234.5,369.5l573,0" class="g1_1" />
<path d="M807.5,369.5l0,-1" class="g1_1" />
<path d="M101.5,392.5l0,-23" class="g1_1" />
<path d="M233.5,392.5l0,-23" class="g1_1" />
<path d="M807.5,392.5l0,-23" class="g1_1" />
<path fill-rule="evenodd" d="M102,415l8,0l0,-23l-8,0l0,23Z" class="g3_1" />
<path fill-rule="evenodd" d="M225,415l8,0l0,-23l-8,0l0,23Z" class="g3_1" />
<path fill-rule="evenodd" d="M110,415l115,0l0,-23l-115,0l0,23Z" class="g3_1" />
<path fill-rule="evenodd" d="M234,415l8,0l0,-23l-8,0l0,23Z" class="g2_1" />
<path fill-rule="evenodd" d="M799,415l8,0l0,-23l-8,0l0,23Z" class="g2_1" />
<path fill-rule="evenodd" d="M242,415l557,0l0,-23l-557,0l0,23Z" class="g2_1" />
<path d="M102.5,392.5l131,0" class="g1_1" />
<path d="M234.5,392.5l573,0" class="g1_1" />
<path d="M101.5,415.5l0,-23" class="g1_1" />
<path d="M233.5,415.5l0,-23" class="g1_1" />
<path d="M807.5,415.5l0,-23" class="g1_1" />
<path fill-rule="evenodd" d="M102,438l8,0l0,-22l-8,0l0,22Z" class="g3_1" />
<path fill-rule="evenodd" d="M225,438l8,0l0,-22l-8,0l0,22Z" class="g3_1" />
<path fill-rule="evenodd" d="M102,483l131,0l0,-45l-131,0l0,45Z" class="g3_1" />
<g clip-path="url(#c0_1)">
<path fill-rule="evenodd" d="M110,438l115,0l0,-22l-115,0l0,22Z" class="g3_1" />
</g>
<path fill-rule="evenodd" d="M234,483l8,0l0,-67l-8,0l0,67Z" class="g2_1" />
<path fill-rule="evenodd" d="M799,483l8,0l0,-67l-8,0l0,67Z" class="g2_1" />
<g clip-path="url(#c1_1)">
<path fill-rule="evenodd" d="M242,438l557,0l0,-22l-557,0l0,22Z" class="g2_1" />
</g>
<path fill-rule="evenodd" d="M242,460l557,0l0,-22l-557,0l0,22Z" class="g2_1" />
<path fill-rule="evenodd" d="M242,483l557,0l0,-23l-557,0l0,23Z" class="g2_1" />
<path d="M101.5,416.5l0,-1" class="g1_1" />
<path d="M102.5,416.5l131,0" class="g1_1" />
<path d="M233.5,416.5l0,-1" class="g1_1" />
<path d="M234.5,416.5l573,0" class="g1_1" />
<path d="M807.5,416.5l0,-1" class="g1_1" />
<path d="M101.5,483.5l0,-67" class="g1_1" />
<path d="M233.5,483.5l0,-67" class="g1_1" />
<path d="M807.5,483.5l0,-67" class="g1_1" />
<path fill-rule="evenodd" d="M102,506l8,0l0,-23l-8,0l0,23Z" class="g3_1" />
<path fill-rule="evenodd" d="M225,506l8,0l0,-23l-8,0l0,23Z" class="g3_1" />
<path fill-rule="evenodd" d="M110,506l115,0l0,-23l-115,0l0,23Z" class="g3_1" />
<path fill-rule="evenodd" d="M234,506l8,0l0,-23l-8,0l0,23Z" class="g2_1" />
<path fill-rule="evenodd" d="M799,506l8,0l0,-23l-8,0l0,23Z" class="g2_1" />
<path fill-rule="evenodd" d="M242,506l557,0l0,-23l-557,0l0,23Z" class="g2_1" />
<path d="M102.5,483.5l131,0" class="g1_1" />
<path d="M234.5,483.5l573,0" class="g1_1" />
<path d="M101.5,506.5l0,-23" class="g1_1" />
<path d="M233.5,506.5l0,-23" class="g1_1" />
<path d="M807.5,506.5l0,-23" class="g1_1" />
<path fill-rule="evenodd" d="M102,529l8,0l0,-23l-8,0l0,23Z" class="g3_1" />
<path fill-rule="evenodd" d="M225,529l8,0l0,-23l-8,0l0,23Z" class="g3_1" />
<path fill-rule="evenodd" d="M102,1161l131,0l0,-632l-131,0l0,632Z" class="g3_1" />
<path fill-rule="evenodd" d="M110,529l115,0l0,-23l-115,0l0,23Z" class="g3_1" />
<path fill-rule="evenodd" d="M234,1161l8,0l0,-655l-8,0l0,655Z" class="g2_1" />
<path fill-rule="evenodd" d="M799,1161l8,0l0,-655l-8,0l0,655Z" class="g2_1" />
<path d="M242.5,1161.5l0,-618" class="g4_1" />
<path d="M242.5,543.5l0,-37" class="g4_1" />
<path fill-rule="evenodd" d="M243,543l539,0l0,-37l-539,0l0,37Z" class="g2_1" />
<path fill-rule="evenodd" d="M467,527l91,0l0,-2l-91,0l0,2Z" class="g5_1" />
<path fill-rule="evenodd" d="M243,570l539,0l0,-27l-539,0l0,27Z" class="g2_1" />
<path fill-rule="evenodd" d="M243,595l539,0l0,-25l-539,0l0,25Z" class="g2_1" />
<path fill-rule="evenodd" d="M243,621l539,0l0,-26l-539,0l0,26Z" class="g2_1" />
<path fill-rule="evenodd" d="M243,647l539,0l0,-26l-539,0l0,26Z" class="g2_1" />
<path fill-rule="evenodd" d="M243,673l539,0l0,-26l-539,0l0,26Z" class="g2_1" />
<path fill-rule="evenodd" d="M243,698l539,0l0,-25l-539,0l0,25Z" class="g2_1" />
<path fill-rule="evenodd" d="M243,725l539,0l0,-27l-539,0l0,27Z" class="g2_1" />
<path fill-rule="evenodd" d="M243,751l539,0l0,-26l-539,0l0,26Z" class="g2_1" />
<path fill-rule="evenodd" d="M243,777l539,0l0,-26l-539,0l0,26Z" class="g2_1" />
<path fill-rule="evenodd" d="M243,803l539,0l0,-26l-539,0l0,26Z" class="g2_1" />
<path fill-rule="evenodd" d="M243,830l539,0l0,-27l-539,0l0,27Z" class="g2_1" />
<path fill-rule="evenodd" d="M243,856l539,0l0,-26l-539,0l0,26Z" class="g2_1" />
<path fill-rule="evenodd" d="M243,897l539,0l0,-41l-539,0l0,41Z" class="g2_1" />
<path fill-rule="evenodd" d="M243,923l539,0l0,-26l-539,0l0,26Z" class="g2_1" />
<path fill-rule="evenodd" d="M243,948l539,0l0,-25l-539,0l0,25Z" class="g2_1" />
<path fill-rule="evenodd" d="M243,974l539,0l0,-26l-539,0l0,26Z" class="g2_1" />
<path fill-rule="evenodd" d="M243,1000l539,0l0,-26l-539,0l0,26Z" class="g2_1" />
<path fill-rule="evenodd" d="M243,1022l539,0l0,-22l-539,0l0,22Z" class="g2_1" />
<path fill-rule="evenodd" d="M243,1048l539,0l0,-26l-539,0l0,26Z" class="g2_1" />
<path fill-rule="evenodd" d="M270,1043l132,0l0,-2l-132,0l0,2Z" class="g5_1" />
<path fill-rule="evenodd" d="M243,1071l539,0l0,-23l-539,0l0,23Z" class="g2_1" />
<path fill-rule="evenodd" d="M243,1094l539,0l0,-23l-539,0l0,23Z" class="g2_1" />
<path fill-rule="evenodd" d="M243,1116l539,0l0,-22l-539,0l0,22Z" class="g2_1" />
<path fill-rule="evenodd" d="M243,1138l539,0l0,-22l-539,0l0,22Z" class="g2_1" />
<path fill-rule="evenodd" d="M243,1161l539,0l0,-23l-539,0l0,23Z" class="g2_1" />
<path fill-rule="evenodd" d="M782,1161l9,0l0,-618l-9,0l0,618Z" class="g2_1" />
<path fill-rule="evenodd" d="M782,543l9,0l0,-37l-9,0l0,37Z" class="g2_1" />
<path d="M791.5,1161.5l0,-618" class="g4_1" />
<path d="M791.5,543.5l0,-37" class="g4_1" />
<path d="M792.5,1161.5l0,-618" class="g4_1" />
<path d="M792.5,543.5l0,-37" class="g4_1" />
<path fill-rule="evenodd" d="M793,1161l57,0l0,-618l-57,0l0,618Z" class="g2_1" />
<path fill-rule="evenodd" d="M793,543l57,0l0,-37l-57,0l0,37Z" class="g2_1" />
<path d="M102.5,506.5l131,0" class="g1_1" />
<path d="M234.5,506.5l573,0" class="g1_1" />
<path d="M101.5,1161.5l0,-655" class="g1_1" />
<path d="M102.5,1161.5l131,0" class="g1_1" />
<path d="M233.5,1161.5l0,-655" class="g1_1" />
<path d="M234.5,1161.5l573,0" class="g1_1" />
<path d="M807.5,1161.5l0,-655" class="g1_1" />
</svg>