<?xml version="1.0" encoding="UTF-8" standalone="no"?>
<!DOCTYPE svg PUBLIC "-//W3C//DTD SVG 1.1//EN"
"http://www.w3.org/Graphics/SVG/1.1/DTD/svg11.dtd">
<svg version="1.1" xmlns="http://www.w3.org/2000/svg" xmlns:xlink="http://www.w3.org/1999/xlink">
<defs>
<style type="text/css"><![CDATA[
.g2_1{
fill: #F1F1F1;
}
.g3_1{
fill: #44546A;
}
.g1_1{
fill: none;
stroke: #000000;
stroke-width: 1;
stroke-linecap: butt;
stroke-linejoin: miter;
}
]]></style>
</defs>
<image x="110" y="54" width="234" height="55" xlink:href="img/1.png" />
<path d="M107.5,1188.5l752,0" class="g1_1" />
<path d="M362.5,151.5l185,0" class="g1_1" />
<path fill-rule="evenodd" d="M101,185l368,0l0,-3l-368,0l0,3Z" class="g2_1" />
<path fill-rule="evenodd" d="M101,206l8,0l0,-21l-8,0l0,21Z" class="g2_1" />
<path fill-rule="evenodd" d="M461,206l8,0l0,-21l-8,0l0,21Z" class="g2_1" />
<path fill-rule="evenodd" d="M101,209l368,0l0,-3l-368,0l0,3Z" class="g2_1" />
<path fill-rule="evenodd" d="M109,206l352,0l0,-21l-352,0l0,21Z" class="g2_1" />
<path fill-rule="evenodd" d="M469,185l346,0l0,-3l-346,0l0,3Z" class="g2_1" />
<path fill-rule="evenodd" d="M469,206l8,0l0,-21l-8,0l0,21Z" class="g2_1" />
<path fill-rule="evenodd" d="M807,206l8,0l0,-21l-8,0l0,21Z" class="g2_1" />
<path fill-rule="evenodd" d="M469,209l346,0l0,-3l-346,0l0,3Z" class="g2_1" />
<path fill-rule="evenodd" d="M477,206l330,0l0,-21l-330,0l0,21Z" class="g2_1" />
<path d="M101.5,182.5l0,-1" class="g1_1" />
<path d="M101.5,182.5l0,-1" class="g1_1" />
<path d="M101.5,182.5l368,0" class="g1_1" />
<path d="M469.5,182.5l0,-1" class="g1_1" />
<path d="M469.5,182.5l346,0" class="g1_1" />
<path d="M815.5,182.5l0,-1" class="g1_1" />
<path d="M815.5,182.5l0,-1" class="g1_1" />
<path d="M101.5,209.5l0,-27" class="g1_1" />
<path d="M469.5,209.5l0,-27" class="g1_1" />
<path d="M815.5,209.5l0,-27" class="g1_1" />
<path d="M101.5,210.5l0,-1" class="g1_1" />
<path d="M101.5,210.5l368,0" class="g1_1" />
<path d="M469.5,210.5l0,-1" class="g1_1" />
<path d="M469.5,210.5l346,0" class="g1_1" />
<path d="M815.5,210.5l0,-1" class="g1_1" />
<path d="M101.5,241.5l0,-31" class="g1_1" />
<path d="M469.5,241.5l0,-31" class="g1_1" />
<path d="M815.5,241.5l0,-31" class="g1_1" />
<path d="M101.5,242.5l0,-1" class="g1_1" />
<path d="M101.5,242.5l368,0" class="g1_1" />
<path d="M469.5,242.5l0,-1" class="g1_1" />
<path d="M469.5,242.5l346,0" class="g1_1" />
<path d="M815.5,242.5l0,-1" class="g1_1" />
<path d="M101.5,264.5l0,-22" class="g1_1" />
<path d="M101.5,265.5l0,-1" class="g1_1" />
<path d="M101.5,265.5l0,-1" class="g1_1" />
<path d="M101.5,265.5l368,0" class="g1_1" />
<path d="M469.5,264.5l0,-22" class="g1_1" />
<path d="M469.5,265.5l0,-1" class="g1_1" />
<path d="M469.5,265.5l346,0" class="g1_1" />
<path d="M815.5,264.5l0,-22" class="g1_1" />
<path d="M815.5,265.5l0,-1" class="g1_1" />
<path d="M815.5,265.5l0,-1" class="g1_1" />
<path fill-rule="evenodd" d="M102,310l8,0l0,-21l-8,0l0,21Z" class="g3_1" />
<path fill-rule="evenodd" d="M223,310l8,0l0,-21l-8,0l0,21Z" class="g3_1" />
<path fill-rule="evenodd" d="M110,310l113,0l0,-21l-113,0l0,21Z" class="g3_1" />
<path fill-rule="evenodd" d="M231,310l8,0l0,-21l-8,0l0,21Z" class="g2_1" />
<path fill-rule="evenodd" d="M807,310l8,0l0,-21l-8,0l0,21Z" class="g2_1" />
<path fill-rule="evenodd" d="M239,310l568,0l0,-21l-568,0l0,21Z" class="g2_1" />
<path d="M101.5,289.5l0,-1" class="g1_1" />
<path d="M101.5,289.5l0,-1" class="g1_1" />
<path d="M102.5,289.5l129,0" class="g1_1" />
<path d="M231.5,289.5l0,-1" class="g1_1" />
<path d="M231.5,289.5l584,0" class="g1_1" />
<path d="M815.5,289.5l0,-1" class="g1_1" />
<path d="M815.5,289.5l0,-1" class="g1_1" />
<path d="M101.5,310.5l0,-21" class="g1_1" />
<path d="M231.5,310.5l0,-21" class="g1_1" />
<path d="M815.5,310.5l0,-21" class="g1_1" />
<path fill-rule="evenodd" d="M102,352l8,0l0,-41l-8,0l0,41Z" class="g3_1" />
<path fill-rule="evenodd" d="M223,352l8,0l0,-41l-8,0l0,41Z" class="g3_1" />
<path fill-rule="evenodd" d="M110,331l113,0l0,-20l-113,0l0,20Z" class="g3_1" />
<path fill-rule="evenodd" d="M110,352l113,0l0,-21l-113,0l0,21Z" class="g3_1" />
<path fill-rule="evenodd" d="M231,331l8,0l0,-20l-8,0l0,20Z" class="g2_1" />
<path fill-rule="evenodd" d="M807,331l8,0l0,-20l-8,0l0,20Z" class="g2_1" />
<path fill-rule="evenodd" d="M231,352l584,0l0,-21l-584,0l0,21Z" class="g2_1" />
<path fill-rule="evenodd" d="M239,331l568,0l0,-20l-568,0l0,20Z" class="g2_1" />
<path d="M102.5,310.5l129,0" class="g1_1" />
<path d="M231.5,310.5l584,0" class="g1_1" />
<path d="M101.5,352.5l0,-42" class="g1_1" />
<path d="M231.5,352.5l0,-42" class="g1_1" />
<path d="M815.5,352.5l0,-42" class="g1_1" />
<path fill-rule="evenodd" d="M102,373l8,0l0,-21l-8,0l0,21Z" class="g3_1" />
<path fill-rule="evenodd" d="M223,373l8,0l0,-21l-8,0l0,21Z" class="g3_1" />
<path fill-rule="evenodd" d="M110,373l113,0l0,-21l-113,0l0,21Z" class="g3_1" />
<path fill-rule="evenodd" d="M231,373l8,0l0,-21l-8,0l0,21Z" class="g2_1" />
<path fill-rule="evenodd" d="M807,373l8,0l0,-21l-8,0l0,21Z" class="g2_1" />
<path fill-rule="evenodd" d="M239,373l568,0l0,-21l-568,0l0,21Z" class="g2_1" />
<path d="M102.5,352.5l129,0" class="g1_1" />
<path d="M231.5,352.5l584,0" class="g1_1" />
<path d="M101.5,373.5l0,-21" class="g1_1" />
<path d="M231.5,373.5l0,-21" class="g1_1" />
<path d="M815.5,373.5l0,-21" class="g1_1" />
<path fill-rule="evenodd" d="M102,394l8,0l0,-20l-8,0l0,20Z" class="g3_1" />
<path fill-rule="evenodd" d="M223,394l8,0l0,-20l-8,0l0,20Z" class="g3_1" />
<path fill-rule="evenodd" d="M110,394l113,0l0,-20l-113,0l0,20Z" class="g3_1" />
<path fill-rule="evenodd" d="M231,394l8,0l0,-20l-8,0l0,20Z" class="g2_1" />
<path fill-rule="evenodd" d="M807,394l8,0l0,-20l-8,0l0,20Z" class="g2_1" />
<path fill-rule="evenodd" d="M239,394l568,0l0,-20l-568,0l0,20Z" class="g2_1" />
<path d="M101.5,374.5l0,-1" class="g1_1" />
<path d="M102.5,374.5l129,0" class="g1_1" />
<path d="M231.5,374.5l0,-1" class="g1_1" />
<path d="M231.5,374.5l584,0" class="g1_1" />
<path d="M815.5,374.5l0,-1" class="g1_1" />
<path d="M101.5,394.5l0,-20" class="g1_1" />
<path d="M231.5,394.5l0,-20" class="g1_1" />
<path d="M815.5,394.5l0,-20" class="g1_1" />
<path fill-rule="evenodd" d="M102,415l8,0l0,-20l-8,0l0,20Z" class="g3_1" />
<path fill-rule="evenodd" d="M223,415l8,0l0,-20l-8,0l0,20Z" class="g3_1" />
<path fill-rule="evenodd" d="M102,442l129,0l0,-27l-129,0l0,27Z" class="g3_1" />
<path fill-rule="evenodd" d="M110,415l113,0l0,-20l-113,0l0,20Z" class="g3_1" />
<path fill-rule="evenodd" d="M231,442l8,0l0,-47l-8,0l0,47Z" class="g2_1" />
<path fill-rule="evenodd" d="M807,442l8,0l0,-47l-8,0l0,47Z" class="g2_1" />
<path fill-rule="evenodd" d="M239,418l568,0l0,-23l-568,0l0,23Z" class="g2_1" />
<path fill-rule="evenodd" d="M239,442l568,0l0,-24l-568,0l0,24Z" class="g2_1" />
<path d="M101.5,395.5l0,-1" class="g1_1" />
<path d="M102.5,395.5l129,0" class="g1_1" />
<path d="M231.5,395.5l0,-1" class="g1_1" />
<path d="M231.5,395.5l584,0" class="g1_1" />
<path d="M815.5,395.5l0,-1" class="g1_1" />
<path d="M101.5,442.5l0,-47" class="g1_1" />
<path d="M231.5,442.5l0,-47" class="g1_1" />
<path d="M815.5,442.5l0,-47" class="g1_1" />
<path fill-rule="evenodd" d="M102,463l8,0l0,-20l-8,0l0,20Z" class="g3_1" />
<path fill-rule="evenodd" d="M223,463l8,0l0,-20l-8,0l0,20Z" class="g3_1" />
<path fill-rule="evenodd" d="M110,463l113,0l0,-20l-113,0l0,20Z" class="g3_1" />
<path fill-rule="evenodd" d="M231,463l8,0l0,-20l-8,0l0,20Z" class="g2_1" />
<path fill-rule="evenodd" d="M807,463l8,0l0,-20l-8,0l0,20Z" class="g2_1" />
<path fill-rule="evenodd" d="M239,463l568,0l0,-20l-568,0l0,20Z" class="g2_1" />
<path d="M101.5,443.5l0,-1" class="g1_1" />
<path d="M102.5,443.5l129,0" class="g1_1" />
<path d="M231.5,443.5l0,-1" class="g1_1" />
<path d="M231.5,443.5l584,0" class="g1_1" />
<path d="M815.5,443.5l0,-1" class="g1_1" />
<path d="M101.5,463.5l0,-20" class="g1_1" />
<path d="M231.5,463.5l0,-20" class="g1_1" />
<path d="M815.5,463.5l0,-20" class="g1_1" />
<path fill-rule="evenodd" d="M102,485l8,0l0,-21l-8,0l0,21Z" class="g3_1" />
<path fill-rule="evenodd" d="M223,485l8,0l0,-21l-8,0l0,21Z" class="g3_1" />
<path fill-rule="evenodd" d="M102,694l129,0l0,-209l-129,0l0,209Z" class="g3_1" />
<path fill-rule="evenodd" d="M110,485l113,0l0,-21l-113,0l0,21Z" class="g3_1" />
<path fill-rule="evenodd" d="M231,694l8,0l0,-230l-8,0l0,230Z" class="g2_1" />
<path fill-rule="evenodd" d="M807,694l8,0l0,-230l-8,0l0,230Z" class="g2_1" />
<path fill-rule="evenodd" d="M239,488l568,0l0,-24l-568,0l0,24Z" class="g2_1" />
<path d="M265.5,483.5l97,0" class="g1_1" />
<path fill-rule="evenodd" d="M239,528l568,0l0,-40l-568,0l0,40Z" class="g2_1" />
<path fill-rule="evenodd" d="M239,552l568,0l0,-24l-568,0l0,24Z" class="g2_1" />
<path fill-rule="evenodd" d="M239,591l568,0l0,-39l-568,0l0,39Z" class="g2_1" />
<path fill-rule="evenodd" d="M239,615l568,0l0,-24l-568,0l0,24Z" class="g2_1" />
<path fill-rule="evenodd" d="M239,654l568,0l0,-39l-568,0l0,39Z" class="g2_1" />
<path fill-rule="evenodd" d="M239,694l568,0l0,-40l-568,0l0,40Z" class="g2_1" />
<path d="M101.5,464.5l0,-1" class="g1_1" />
<path d="M102.5,464.5l129,0" class="g1_1" />
<path d="M231.5,464.5l0,-1" class="g1_1" />
<path d="M231.5,464.5l584,0" class="g1_1" />
<path d="M815.5,464.5l0,-1" class="g1_1" />
<path d="M101.5,694.5l0,-230" class="g1_1" />
<path d="M231.5,694.5l0,-230" class="g1_1" />
<path d="M815.5,694.5l0,-230" class="g1_1" />
<path fill-rule="evenodd" d="M102,715l8,0l0,-20l-8,0l0,20Z" class="g3_1" />
<path fill-rule="evenodd" d="M223,715l8,0l0,-20l-8,0l0,20Z" class="g3_1" />
<path fill-rule="evenodd" d="M110,715l113,0l0,-20l-113,0l0,20Z" class="g3_1" />
<path fill-rule="evenodd" d="M231,715l8,0l0,-20l-8,0l0,20Z" class="g2_1" />
<path fill-rule="evenodd" d="M807,715l8,0l0,-20l-8,0l0,20Z" class="g2_1" />
<path fill-rule="evenodd" d="M239,715l568,0l0,-20l-568,0l0,20Z" class="g2_1" />
<path d="M101.5,695.5l0,-1" class="g1_1" />
<path d="M102.5,695.5l129,0" class="g1_1" />
<path d="M231.5,695.5l0,-1" class="g1_1" />
<path d="M231.5,695.5l584,0" class="g1_1" />
<path d="M815.5,695.5l0,-1" class="g1_1" />
<path d="M101.5,715.5l0,-20" class="g1_1" />
<path d="M231.5,715.5l0,-20" class="g1_1" />
<path d="M815.5,715.5l0,-20" class="g1_1" />
<path fill-rule="evenodd" d="M102,737l8,0l0,-21l-8,0l0,21Z" class="g3_1" />
<path fill-rule="evenodd" d="M223,737l8,0l0,-21l-8,0l0,21Z" class="g3_1" />
<path fill-rule="evenodd" d="M102,819l129,0l0,-82l-129,0l0,82Z" class="g3_1" />
<path fill-rule="evenodd" d="M110,737l113,0l0,-21l-113,0l0,21Z" class="g3_1" />
<path fill-rule="evenodd" d="M231,819l8,0l0,-103l-8,0l0,103Z" class="g2_1" />
<path fill-rule="evenodd" d="M807,819l8,0l0,-103l-8,0l0,103Z" class="g2_1" />
<path fill-rule="evenodd" d="M239,737l568,0l0,-21l-568,0l0,21Z" class="g2_1" />
<path fill-rule="evenodd" d="M239,757l568,0l0,-20l-568,0l0,20Z" class="g2_1" />
<path fill-rule="evenodd" d="M239,778l568,0l0,-21l-568,0l0,21Z" class="g2_1" />
<path fill-rule="evenodd" d="M239,798l568,0l0,-20l-568,0l0,20Z" class="g2_1" />
<path fill-rule="evenodd" d="M239,819l568,0l0,-21l-568,0l0,21Z" class="g2_1" />
<path d="M101.5,716.5l0,-1" class="g1_1" />
<path d="M102.5,716.5l129,0" class="g1_1" />
<path d="M231.5,716.5l0,-1" class="g1_1" />
<path d="M231.5,716.5l584,0" class="g1_1" />
<path d="M815.5,716.5l0,-1" class="g1_1" />
<path d="M101.5,819.5l0,-103" class="g1_1" />
<path d="M102.5,819.5l129,0" class="g1_1" />
<path d="M231.5,819.5l0,-103" class="g1_1" />
<path d="M231.5,819.5l584,0" class="g1_1" />
<path d="M815.5,819.5l0,-103" class="g1_1" />
</svg>