<?xml version="1.0" encoding="UTF-8" standalone="no"?>
<!DOCTYPE svg PUBLIC "-//W3C//DTD SVG 1.1//EN"
"http://www.w3.org/Graphics/SVG/1.1/DTD/svg11.dtd">
<svg version="1.1" xmlns="http://www.w3.org/2000/svg" xmlns:xlink="http://www.w3.org/1999/xlink">
<defs>
<style type="text/css"><![CDATA[
.g5_1{
}
.g2_1{
fill: #F1F1F1;
}
.g4_1{
fill: none;
stroke: #44546A;
stroke-width: 1;
stroke-linecap: butt;
stroke-linejoin: miter;
}
.g3_1{
fill: #44546A;
}
.g1_1{
fill: none;
stroke: #000000;
stroke-width: 1;
stroke-linecap: butt;
stroke-linejoin: miter;
}
]]></style>
</defs>
<image x="111" y="54" width="234" height="55" xlink:href="img/1.png" />
<path d="M342.5,151.5l231,0" class="g1_1" />
<path fill-rule="evenodd" d="M101,191l8,0l0,-28l-8,0l0,28Z" class="g2_1" />
<path fill-rule="evenodd" d="M439,191l8,0l0,-28l-8,0l0,28Z" class="g2_1" />
<path fill-rule="evenodd" d="M109,191l330,0l0,-28l-330,0l0,28Z" class="g2_1" />
<path fill-rule="evenodd" d="M448,191l8,0l0,-28l-8,0l0,28Z" class="g2_1" />
<path fill-rule="evenodd" d="M801,191l8,0l0,-28l-8,0l0,28Z" class="g2_1" />
<path fill-rule="evenodd" d="M456,191l345,0l0,-28l-345,0l0,28Z" class="g2_1" />
<path d="M101.5,163.5l0,-1" class="g1_1" />
<path d="M101.5,163.5l0,-1" class="g1_1" />
<path d="M101.5,163.5l346,0" class="g1_1" />
<path d="M447.5,163.5l0,-1" class="g1_1" />
<path d="M448.5,163.5l361,0" class="g1_1" />
<path d="M809.5,163.5l0,-1" class="g1_1" />
<path d="M809.5,163.5l0,-1" class="g1_1" />
<path d="M101.5,191.5l0,-28" class="g1_1" />
<path d="M447.5,191.5l0,-28" class="g1_1" />
<path d="M809.5,191.5l0,-28" class="g1_1" />
<path d="M101.5,191.5l346,0" class="g1_1" />
<path d="M448.5,191.5l361,0" class="g1_1" />
<path d="M101.5,223.5l0,-32" class="g1_1" />
<path d="M447.5,223.5l0,-32" class="g1_1" />
<path d="M809.5,223.5l0,-32" class="g1_1" />
<path d="M101.5,223.5l346,0" class="g1_1" />
<path d="M448.5,223.5l361,0" class="g1_1" />
<path d="M101.5,253.5l0,-30" class="g1_1" />
<path d="M101.5,253.5l346,0" class="g1_1" />
<path d="M447.5,253.5l0,-30" class="g1_1" />
<path d="M448.5,253.5l361,0" class="g1_1" />
<path d="M809.5,253.5l0,-30" class="g1_1" />
<path fill-rule="evenodd" d="M102,309l8,0l0,-21l-8,0l0,21Z" class="g3_1" />
<path fill-rule="evenodd" d="M225,309l8,0l0,-21l-8,0l0,21Z" class="g3_1" />
<path fill-rule="evenodd" d="M110,309l115,0l0,-21l-115,0l0,21Z" class="g3_1" />
<path fill-rule="evenodd" d="M234,309l8,0l0,-21l-8,0l0,21Z" class="g2_1" />
<path fill-rule="evenodd" d="M805,309l8,0l0,-21l-8,0l0,21Z" class="g2_1" />
<path fill-rule="evenodd" d="M242,309l563,0l0,-21l-563,0l0,21Z" class="g2_1" />
<path d="M101.5,288.5l0,-1" class="g1_1" />
<path d="M101.5,288.5l0,-1" class="g1_1" />
<path d="M102.5,288.5l131,0" class="g1_1" />
<path d="M233.5,288.5l0,-1" class="g1_1" />
<path d="M234.5,288.5l579,0" class="g1_1" />
<path d="M813.5,288.5l0,-1" class="g1_1" />
<path d="M813.5,288.5l0,-1" class="g1_1" />
<path d="M101.5,309.5l0,-21" class="g1_1" />
<path d="M233.5,309.5l0,-21" class="g1_1" />
<path d="M813.5,309.5l0,-21" class="g1_1" />
<path fill-rule="evenodd" d="M102,353l8,0l0,-43l-8,0l0,43Z" class="g3_1" />
<path fill-rule="evenodd" d="M225,353l8,0l0,-43l-8,0l0,43Z" class="g3_1" />
<path fill-rule="evenodd" d="M110,331l115,0l0,-21l-115,0l0,21Z" class="g3_1" />
<path fill-rule="evenodd" d="M110,353l115,0l0,-22l-115,0l0,22Z" class="g3_1" />
<path fill-rule="evenodd" d="M234,331l8,0l0,-21l-8,0l0,21Z" class="g2_1" />
<path fill-rule="evenodd" d="M805,331l8,0l0,-21l-8,0l0,21Z" class="g2_1" />
<path fill-rule="evenodd" d="M234,353l579,0l0,-22l-579,0l0,22Z" class="g2_1" />
<path fill-rule="evenodd" d="M242,331l563,0l0,-21l-563,0l0,21Z" class="g2_1" />
<path d="M101.5,310.5l0,-1" class="g1_1" />
<path d="M102.5,310.5l131,0" class="g1_1" />
<path d="M233.5,310.5l0,-1" class="g1_1" />
<path d="M234.5,310.5l579,0" class="g1_1" />
<path d="M813.5,310.5l0,-1" class="g1_1" />
<path d="M101.5,353.5l0,-43" class="g1_1" />
<path d="M233.5,353.5l0,-43" class="g1_1" />
<path d="M813.5,353.5l0,-43" class="g1_1" />
<path fill-rule="evenodd" d="M102,375l8,0l0,-21l-8,0l0,21Z" class="g3_1" />
<path fill-rule="evenodd" d="M225,375l8,0l0,-21l-8,0l0,21Z" class="g3_1" />
<path fill-rule="evenodd" d="M110,375l115,0l0,-21l-115,0l0,21Z" class="g3_1" />
<path fill-rule="evenodd" d="M234,375l8,0l0,-21l-8,0l0,21Z" class="g2_1" />
<path fill-rule="evenodd" d="M805,375l8,0l0,-21l-8,0l0,21Z" class="g2_1" />
<path fill-rule="evenodd" d="M242,375l563,0l0,-21l-563,0l0,21Z" class="g2_1" />
<path d="M102.5,353.5l131,0" class="g1_1" />
<path d="M234.5,353.5l579,0" class="g1_1" />
<path d="M101.5,375.5l0,-22" class="g1_1" />
<path d="M233.5,375.5l0,-22" class="g1_1" />
<path d="M813.5,375.5l0,-22" class="g1_1" />
<path fill-rule="evenodd" d="M102,397l8,0l0,-21l-8,0l0,21Z" class="g3_1" />
<path fill-rule="evenodd" d="M225,397l8,0l0,-21l-8,0l0,21Z" class="g3_1" />
<path fill-rule="evenodd" d="M110,397l115,0l0,-21l-115,0l0,21Z" class="g3_1" />
<path fill-rule="evenodd" d="M234,397l8,0l0,-21l-8,0l0,21Z" class="g2_1" />
<path fill-rule="evenodd" d="M805,397l8,0l0,-21l-8,0l0,21Z" class="g2_1" />
<path fill-rule="evenodd" d="M242,397l563,0l0,-21l-563,0l0,21Z" class="g2_1" />
<path d="M101.5,376.5l0,-1" class="g1_1" />
<path d="M102.5,376.5l131,0" class="g1_1" />
<path d="M233.5,376.5l0,-1" class="g1_1" />
<path d="M234.5,376.5l579,0" class="g1_1" />
<path d="M813.5,376.5l0,-1" class="g1_1" />
<path d="M101.5,397.5l0,-21" class="g1_1" />
<path d="M233.5,397.5l0,-21" class="g1_1" />
<path d="M813.5,397.5l0,-21" class="g1_1" />
<path fill-rule="evenodd" d="M102,419l8,0l0,-21l-8,0l0,21Z" class="g3_1" />
<path fill-rule="evenodd" d="M225,419l8,0l0,-21l-8,0l0,21Z" class="g3_1" />
<path fill-rule="evenodd" d="M102,473l131,0l0,-54l-131,0l0,54Z" class="g3_1" />
<path fill-rule="evenodd" d="M110,419l115,0l0,-21l-115,0l0,21Z" class="g3_1" />
<path fill-rule="evenodd" d="M234,473l8,0l0,-75l-8,0l0,75Z" class="g2_1" />
<path fill-rule="evenodd" d="M805,473l8,0l0,-75l-8,0l0,75Z" class="g2_1" />
<path fill-rule="evenodd" d="M242,424l563,0l0,-26l-563,0l0,26Z" class="g2_1" />
<path fill-rule="evenodd" d="M242,448l563,0l0,-24l-563,0l0,24Z" class="g2_1" />
<path fill-rule="evenodd" d="M242,473l563,0l0,-25l-563,0l0,25Z" class="g2_1" />
<path d="M101.5,398.5l0,-1" class="g1_1" />
<path d="M102.5,398.5l131,0" class="g1_1" />
<path d="M233.5,398.5l0,-1" class="g1_1" />
<path d="M234.5,398.5l579,0" class="g1_1" />
<path d="M813.5,398.5l0,-1" class="g1_1" />
<path d="M101.5,473.5l0,-75" class="g1_1" />
<path d="M233.5,473.5l0,-75" class="g1_1" />
<path d="M813.5,473.5l0,-75" class="g1_1" />
<path fill-rule="evenodd" d="M102,495l8,0l0,-21l-8,0l0,21Z" class="g3_1" />
<path fill-rule="evenodd" d="M225,495l8,0l0,-21l-8,0l0,21Z" class="g3_1" />
<path d="M102.5,496.5l131,0" class="g4_1" />
<path fill-rule="evenodd" d="M110,495l115,0l0,-21l-115,0l0,21Z" class="g3_1" />
<path fill-rule="evenodd" d="M234,496l8,0l0,-22l-8,0l0,22Z" class="g2_1" />
<path fill-rule="evenodd" d="M805,496l8,0l0,-22l-8,0l0,22Z" class="g2_1" />
<path fill-rule="evenodd" d="M242,496l563,0l0,-22l-563,0l0,22Z" class="g2_1" />
<path d="M101.5,474.5l0,-1" class="g1_1" />
<path d="M102.5,474.5l131,0" class="g1_1" />
<path d="M233.5,474.5l0,-1" class="g1_1" />
<path d="M234.5,474.5l579,0" class="g1_1" />
<path d="M813.5,474.5l0,-1" class="g1_1" />
<path d="M101.5,496.5l0,-22" class="g1_1" />
<path d="M233.5,496.5l0,-22" class="g1_1" />
<path d="M813.5,496.5l0,-22" class="g1_1" />
<path fill-rule="evenodd" d="M102,518l8,0l0,-21l-8,0l0,21Z" class="g3_1" />
<path fill-rule="evenodd" d="M225,518l8,0l0,-21l-8,0l0,21Z" class="g3_1" />
<path fill-rule="evenodd" d="M102,984l131,0l0,-466l-131,0l0,466Z" class="g3_1" />
<path fill-rule="evenodd" d="M110,518l115,0l0,-21l-115,0l0,21Z" class="g3_1" />
<path fill-rule="evenodd" d="M234,984l8,0l0,-487l-8,0l0,487Z" class="g2_1" />
<path fill-rule="evenodd" d="M805,984l8,0l0,-487l-8,0l0,487Z" class="g2_1" />
<path fill-rule="evenodd" d="M242,518l563,0l0,-21l-563,0l0,21Z" class="g2_1" />
<path fill-rule="evenodd" d="M242,540l563,0l0,-22l-563,0l0,22Z" class="g2_1" />
<path fill-rule="evenodd" d="M242,560l563,0l0,-20l-563,0l0,20Z" class="g2_1" />
<path fill-rule="evenodd" d="M242,581l563,0l0,-21l-563,0l0,21Z" class="g2_1" />
<path fill-rule="evenodd" d="M242,602l563,0l0,-21l-563,0l0,21Z" class="g2_1" />
<path fill-rule="evenodd" d="M242,623l563,0l0,-21l-563,0l0,21Z" class="g2_1" />
<path fill-rule="evenodd" d="M242,644l563,0l0,-21l-563,0l0,21Z" class="g2_1" />
<path fill-rule="evenodd" d="M242,665l563,0l0,-21l-563,0l0,21Z" class="g2_1" />
<path fill-rule="evenodd" d="M242,686l563,0l0,-21l-563,0l0,21Z" class="g2_1" />
<path fill-rule="evenodd" d="M242,707l563,0l0,-21l-563,0l0,21Z" class="g2_1" />
<path fill-rule="evenodd" d="M242,749l563,0l0,-42l-563,0l0,42Z" class="g2_1" />
<path fill-rule="evenodd" d="M270,726l155,0l0,-1l-155,0l0,1Z" class="g5_1" />
<path fill-rule="evenodd" d="M242,772l563,0l0,-23l-563,0l0,23Z" class="g2_1" />
<path fill-rule="evenodd" d="M242,793l563,0l0,-21l-563,0l0,21Z" class="g2_1" />
<path fill-rule="evenodd" d="M242,815l563,0l0,-22l-563,0l0,22Z" class="g2_1" />
<path fill-rule="evenodd" d="M242,858l563,0l0,-43l-563,0l0,43Z" class="g2_1" />
<path fill-rule="evenodd" d="M242,880l563,0l0,-22l-563,0l0,22Z" class="g2_1" />
<path fill-rule="evenodd" d="M242,901l563,0l0,-21l-563,0l0,21Z" class="g2_1" />
<path fill-rule="evenodd" d="M242,922l563,0l0,-21l-563,0l0,21Z" class="g2_1" />
<path fill-rule="evenodd" d="M242,943l563,0l0,-21l-563,0l0,21Z" class="g2_1" />
<path fill-rule="evenodd" d="M242,964l563,0l0,-21l-563,0l0,21Z" class="g2_1" />
<path fill-rule="evenodd" d="M242,984l563,0l0,-20l-563,0l0,20Z" class="g2_1" />
<path d="M101.5,497.5l0,-1" class="g1_1" />
<path d="M102.5,497.5l131,0" class="g1_1" />
<path d="M233.5,497.5l0,-1" class="g1_1" />
<path d="M234.5,497.5l579,0" class="g1_1" />
<path d="M813.5,497.5l0,-1" class="g1_1" />
<path d="M101.5,984.5l0,-487" class="g1_1" />
<path d="M233.5,984.5l0,-487" class="g1_1" />
<path d="M813.5,984.5l0,-487" class="g1_1" />
<path fill-rule="evenodd" d="M102,1006l8,0l0,-21l-8,0l0,21Z" class="g3_1" />
<path fill-rule="evenodd" d="M225,1006l8,0l0,-21l-8,0l0,21Z" class="g3_1" />
<path fill-rule="evenodd" d="M102,1157l131,0l0,-151l-131,0l0,151Z" class="g3_1" />
<path fill-rule="evenodd" d="M110,1006l115,0l0,-21l-115,0l0,21Z" class="g3_1" />
<path fill-rule="evenodd" d="M234,1157l8,0l0,-172l-8,0l0,172Z" class="g2_1" />
<path fill-rule="evenodd" d="M805,1157l8,0l0,-172l-8,0l0,172Z" class="g2_1" />
<path fill-rule="evenodd" d="M242,1006l563,0l0,-21l-563,0l0,21Z" class="g2_1" />
<path fill-rule="evenodd" d="M263,1005l234,0l0,-2l-234,0l0,2Z" class="g5_1" />
<path fill-rule="evenodd" d="M242,1049l563,0l0,-43l-563,0l0,43Z" class="g2_1" />
<path fill-rule="evenodd" d="M242,1071l563,0l0,-22l-563,0l0,22Z" class="g2_1" />
<path fill-rule="evenodd" d="M242,1092l563,0l0,-21l-563,0l0,21Z" class="g2_1" />
<path fill-rule="evenodd" d="M242,1114l563,0l0,-22l-563,0l0,22Z" class="g2_1" />
<path fill-rule="evenodd" d="M242,1157l563,0l0,-43l-563,0l0,43Z" class="g2_1" />
<path d="M101.5,985.5l0,-1" class="g1_1" />
<path d="M102.5,985.5l131,0" class="g1_1" />
<path d="M233.5,985.5l0,-1" class="g1_1" />
<path d="M234.5,985.5l579,0" class="g1_1" />
<path d="M813.5,985.5l0,-1" class="g1_1" />
<path d="M101.5,1157.5l0,-172" class="g1_1" />
<path d="M102.5,1157.5l131,0" class="g1_1" />
<path d="M233.5,1157.5l0,-172" class="g1_1" />
<path d="M234.5,1157.5l579,0" class="g1_1" />
<path d="M813.5,1157.5l0,-172" class="g1_1" />
</svg>