<?xml version="1.0" encoding="UTF-8" standalone="no"?>
<!DOCTYPE svg PUBLIC "-//W3C//DTD SVG 1.1//EN"
"http://www.w3.org/Graphics/SVG/1.1/DTD/svg11.dtd">
<svg version="1.1" xmlns="http://www.w3.org/2000/svg" xmlns:xlink="http://www.w3.org/1999/xlink">
<defs>
<style type="text/css"><![CDATA[
.g2_7{
fill: #F1F1F1;
}
.g3_7{
fill: none;
stroke: #000000;
stroke-width: 1;
stroke-linecap: butt;
stroke-linejoin: miter;
}
.g1_7{
fill: #44546A;
}
]]></style>
</defs>
<image x="111" y="54" width="238" height="56" xlink:href="img/1.png" />
<path fill-rule="evenodd" d="M102,1167l120,0L222,130l-120,0l0,1037Z" class="g1_7" />
<path fill-rule="evenodd" d="M222,1167l8,0L230,130l-8,0l0,1037Z" class="g2_7" />
<path fill-rule="evenodd" d="M805,1167l8,0L813,130l-8,0l0,1037Z" class="g2_7" />
<path fill-rule="evenodd" d="M230,172l575,0l0,-42l-575,0l0,42Z" class="g2_7" />
<path fill-rule="evenodd" d="M230,193l575,0l0,-21l-575,0l0,21Z" class="g2_7" />
<path fill-rule="evenodd" d="M230,215l575,0l0,-22l-575,0l0,22Z" class="g2_7" />
<path fill-rule="evenodd" d="M230,235l575,0l0,-20l-575,0l0,20Z" class="g2_7" />
<path fill-rule="evenodd" d="M230,257l575,0l0,-22l-575,0l0,22Z" class="g2_7" />
<path fill-rule="evenodd" d="M230,278l575,0l0,-21l-575,0l0,21Z" class="g2_7" />
<path fill-rule="evenodd" d="M230,299l575,0l0,-21l-575,0l0,21Z" class="g2_7" />
<path fill-rule="evenodd" d="M230,362l575,0l0,-63l-575,0l0,63Z" class="g2_7" />
<path fill-rule="evenodd" d="M230,382l575,0l0,-20l-575,0l0,20Z" class="g2_7" />
<path fill-rule="evenodd" d="M230,424l575,0l0,-42l-575,0l0,42Z" class="g2_7" />
<path fill-rule="evenodd" d="M230,445l575,0l0,-21l-575,0l0,21Z" class="g2_7" />
<path fill-rule="evenodd" d="M230,465l575,0l0,-20l-575,0l0,20Z" class="g2_7" />
<path fill-rule="evenodd" d="M230,486l575,0l0,-21l-575,0l0,21Z" class="g2_7" />
<path fill-rule="evenodd" d="M230,528l575,0l0,-42l-575,0l0,42Z" class="g2_7" />
<path fill-rule="evenodd" d="M230,548l575,0l0,-20l-575,0l0,20Z" class="g2_7" />
<path fill-rule="evenodd" d="M230,569l575,0l0,-21l-575,0l0,21Z" class="g2_7" />
<path fill-rule="evenodd" d="M230,589l575,0l0,-20l-575,0l0,20Z" class="g2_7" />
<path fill-rule="evenodd" d="M230,631l575,0l0,-42l-575,0l0,42Z" class="g2_7" />
<path fill-rule="evenodd" d="M230,652l575,0l0,-21l-575,0l0,21Z" class="g2_7" />
<path fill-rule="evenodd" d="M230,672l575,0l0,-20l-575,0l0,20Z" class="g2_7" />
<path fill-rule="evenodd" d="M230,714l575,0l0,-42l-575,0l0,42Z" class="g2_7" />
<path fill-rule="evenodd" d="M230,735l575,0l0,-21l-575,0l0,21Z" class="g2_7" />
<path fill-rule="evenodd" d="M230,755l575,0l0,-20l-575,0l0,20Z" class="g2_7" />
<path fill-rule="evenodd" d="M230,797l575,0l0,-42l-575,0l0,42Z" class="g2_7" />
<path fill-rule="evenodd" d="M230,817l575,0l0,-20l-575,0l0,20Z" class="g2_7" />
<path fill-rule="evenodd" d="M230,838l575,0l0,-21l-575,0l0,21Z" class="g2_7" />
<path fill-rule="evenodd" d="M230,859l575,0l0,-21l-575,0l0,21Z" class="g2_7" />
<path fill-rule="evenodd" d="M230,879l575,0l0,-20l-575,0l0,20Z" class="g2_7" />
<path fill-rule="evenodd" d="M230,900l575,0l0,-21l-575,0l0,21Z" class="g2_7" />
<path fill-rule="evenodd" d="M230,920l575,0l0,-20l-575,0l0,20Z" class="g2_7" />
<path fill-rule="evenodd" d="M230,941l575,0l0,-21l-575,0l0,21Z" class="g2_7" />
<path fill-rule="evenodd" d="M230,961l575,0l0,-20l-575,0l0,20Z" class="g2_7" />
<path fill-rule="evenodd" d="M230,982l575,0l0,-21l-575,0l0,21Z" class="g2_7" />
<path fill-rule="evenodd" d="M230,1002l575,0l0,-20l-575,0l0,20Z" class="g2_7" />
<path fill-rule="evenodd" d="M230,1023l575,0l0,-21l-575,0l0,21Z" class="g2_7" />
<path fill-rule="evenodd" d="M230,1043l575,0l0,-20l-575,0l0,20Z" class="g2_7" />
<path fill-rule="evenodd" d="M230,1064l575,0l0,-21l-575,0l0,21Z" class="g2_7" />
<path fill-rule="evenodd" d="M230,1084l575,0l0,-20l-575,0l0,20Z" class="g2_7" />
<path fill-rule="evenodd" d="M230,1105l575,0l0,-21l-575,0l0,21Z" class="g2_7" />
<path fill-rule="evenodd" d="M230,1125l575,0l0,-20l-575,0l0,20Z" class="g2_7" />
<path fill-rule="evenodd" d="M230,1146l575,0l0,-21l-575,0l0,21Z" class="g2_7" />
<path fill-rule="evenodd" d="M230,1167l575,0l0,-21l-575,0l0,21Z" class="g2_7" />
<path d="M101.5,130.5l0,-1" class="g3_7" />
<path d="M101.5,130.5l0,-1" class="g3_7" />
<path d="M102.5,130.5l120,0" class="g3_7" />
<path d="M222.5,130.5l0,-1" class="g3_7" />
<path d="M222.5,130.5l591,0" class="g3_7" />
<path d="M813.5,130.5l0,-1" class="g3_7" />
<path d="M813.5,130.5l0,-1" class="g3_7" />
<path d="M101.5,1167.5l0,-1037" class="g3_7" />
<path d="M101.5,1168.5l0,-1" class="g3_7" />
<path d="M101.5,1168.5l0,-1" class="g3_7" />
<path d="M102.5,1168.5l120,0" class="g3_7" />
<path d="M222.5,1167.5l0,-1037" class="g3_7" />
<path d="M222.5,1168.5l0,-1" class="g3_7" />
<path d="M222.5,1168.5l591,0" class="g3_7" />
<path d="M813.5,1167.5l0,-1037" class="g3_7" />
<path d="M813.5,1168.5l0,-1" class="g3_7" />
<path d="M813.5,1168.5l0,-1" class="g3_7" />
</svg>