<?xml version="1.0" encoding="UTF-8" standalone="no"?>
<!DOCTYPE svg PUBLIC "-//W3C//DTD SVG 1.1//EN"
"http://www.w3.org/Graphics/SVG/1.1/DTD/svg11.dtd">
<svg version="1.1" xmlns="http://www.w3.org/2000/svg" xmlns:xlink="http://www.w3.org/1999/xlink">
<defs>
<style type="text/css"><![CDATA[
.g1_3{
fill: none;
stroke: #000000;
stroke-width: 1;
stroke-linecap: butt;
stroke-linejoin: miter;
}
]]></style>
</defs>
<image x="111" y="54" width="234" height="55" xlink:href="img/1.png" />
<path d="M344.5,355.5l225,0" class="g1_3" />
<path d="M101.5,438.5l0,-1" class="g1_3" />
<path d="M101.5,438.5l0,-1" class="g1_3" />
<path d="M102.5,438.5l268,0" class="g1_3" />
<path d="M370.5,438.5l0,-1" class="g1_3" />
<path d="M371.5,438.5l407,0" class="g1_3" />
<path d="M778.5,438.5l0,-1" class="g1_3" />
<path d="M778.5,438.5l0,-1" class="g1_3" />
<path d="M101.5,467.5l0,-29" class="g1_3" />
<path d="M370.5,467.5l0,-29" class="g1_3" />
<path d="M778.5,467.5l0,-29" class="g1_3" />
<path d="M101.5,468.5l0,-1" class="g1_3" />
<path d="M102.5,468.5l268,0" class="g1_3" />
<path d="M370.5,468.5l0,-1" class="g1_3" />
<path d="M371.5,468.5l407,0" class="g1_3" />
<path d="M778.5,468.5l0,-1" class="g1_3" />
<path d="M101.5,498.5l0,-30" class="g1_3" />
<path d="M370.5,498.5l0,-30" class="g1_3" />
<path d="M778.5,498.5l0,-30" class="g1_3" />
<path d="M101.5,499.5l0,-1" class="g1_3" />
<path d="M102.5,499.5l268,0" class="g1_3" />
<path d="M370.5,499.5l0,-1" class="g1_3" />
<path d="M371.5,499.5l407,0" class="g1_3" />
<path d="M778.5,499.5l0,-1" class="g1_3" />
<path d="M101.5,528.5l0,-29" class="g1_3" />
<path d="M370.5,528.5l0,-29" class="g1_3" />
<path d="M778.5,528.5l0,-29" class="g1_3" />
<path d="M101.5,529.5l0,-1" class="g1_3" />
<path d="M102.5,529.5l268,0" class="g1_3" />
<path d="M370.5,529.5l0,-1" class="g1_3" />
<path d="M371.5,529.5l407,0" class="g1_3" />
<path d="M778.5,529.5l0,-1" class="g1_3" />
<path d="M101.5,559.5l0,-30" class="g1_3" />
<path d="M370.5,559.5l0,-30" class="g1_3" />
<path d="M778.5,559.5l0,-30" class="g1_3" />
<path d="M102.5,559.5l268,0" class="g1_3" />
<path d="M371.5,559.5l407,0" class="g1_3" />
<path d="M101.5,589.5l0,-30" class="g1_3" />
<path d="M370.5,589.5l0,-30" class="g1_3" />
<path d="M778.5,589.5l0,-30" class="g1_3" />
<path d="M101.5,590.5l0,-1" class="g1_3" />
<path d="M102.5,590.5l268,0" class="g1_3" />
<path d="M370.5,590.5l0,-1" class="g1_3" />
<path d="M371.5,590.5l407,0" class="g1_3" />
<path d="M778.5,590.5l0,-1" class="g1_3" />
<path d="M101.5,620.5l0,-30" class="g1_3" />
<path d="M370.5,620.5l0,-30" class="g1_3" />
<path d="M778.5,620.5l0,-30" class="g1_3" />
<path d="M102.5,620.5l268,0" class="g1_3" />
<path d="M371.5,620.5l407,0" class="g1_3" />
<path d="M101.5,650.5l0,-30" class="g1_3" />
<path d="M370.5,650.5l0,-30" class="g1_3" />
<path d="M778.5,650.5l0,-30" class="g1_3" />
<path d="M101.5,651.5l0,-1" class="g1_3" />
<path d="M102.5,651.5l268,0" class="g1_3" />
<path d="M370.5,651.5l0,-1" class="g1_3" />
<path d="M371.5,651.5l407,0" class="g1_3" />
<path d="M778.5,651.5l0,-1" class="g1_3" />
<path d="M101.5,681.5l0,-30" class="g1_3" />
<path d="M102.5,681.5l268,0" class="g1_3" />
<path d="M370.5,681.5l0,-30" class="g1_3" />
<path d="M371.5,681.5l407,0" class="g1_3" />
<path d="M778.5,681.5l0,-30" class="g1_3" />
<path d="M103.5,741.5l39,0" class="g1_3" />
<path d="M143.5,741.5l563,0" class="g1_3" />
<path d="M706.5,741.5l75,0" class="g1_3" />
<path d="M102.5,762.5l0,-21" class="g1_3" />
<path d="M142.5,762.5l0,-21" class="g1_3" />
<path d="M706.5,762.5l0,-21" class="g1_3" />
<path d="M781.5,762.5l0,-21" class="g1_3" />
<path d="M102.5,763.5l0,-1" class="g1_3" />
<path d="M103.5,763.5l39,0" class="g1_3" />
<path d="M142.5,763.5l0,-1" class="g1_3" />
<path d="M143.5,763.5l563,0" class="g1_3" />
<path d="M706.5,763.5l0,-1" class="g1_3" />
<path d="M706.5,763.5l75,0" class="g1_3" />
<path d="M781.5,763.5l0,-1" class="g1_3" />
<path d="M102.5,783.5l0,-20" class="g1_3" />
<path d="M142.5,783.5l0,-20" class="g1_3" />
<path d="M706.5,783.5l0,-20" class="g1_3" />
<path d="M781.5,783.5l0,-20" class="g1_3" />
<path d="M102.5,784.5l0,-1" class="g1_3" />
<path d="M103.5,784.5l39,0" class="g1_3" />
<path d="M142.5,784.5l0,-1" class="g1_3" />
<path d="M143.5,784.5l563,0" class="g1_3" />
<path d="M706.5,784.5l0,-1" class="g1_3" />
<path d="M706.5,784.5l75,0" class="g1_3" />
<path d="M781.5,784.5l0,-1" class="g1_3" />
<path d="M102.5,804.5l0,-20" class="g1_3" />
<path d="M142.5,804.5l0,-20" class="g1_3" />
<path d="M706.5,804.5l0,-20" class="g1_3" />
<path d="M781.5,804.5l0,-20" class="g1_3" />
<path d="M102.5,805.5l0,-1" class="g1_3" />
<path d="M103.5,805.5l39,0" class="g1_3" />
<path d="M142.5,805.5l0,-1" class="g1_3" />
<path d="M143.5,805.5l563,0" class="g1_3" />
<path d="M706.5,805.5l0,-1" class="g1_3" />
<path d="M706.5,805.5l75,0" class="g1_3" />
<path d="M781.5,805.5l0,-1" class="g1_3" />
<path d="M102.5,826.5l0,-21" class="g1_3" />
<path d="M142.5,826.5l0,-21" class="g1_3" />
<path d="M706.5,826.5l0,-21" class="g1_3" />
<path d="M781.5,826.5l0,-21" class="g1_3" />
<path d="M103.5,826.5l39,0" class="g1_3" />
<path d="M143.5,826.5l563,0" class="g1_3" />
<path d="M706.5,826.5l75,0" class="g1_3" />
<path d="M102.5,847.5l0,-21" class="g1_3" />
<path d="M142.5,847.5l0,-21" class="g1_3" />
<path d="M706.5,847.5l0,-21" class="g1_3" />
<path d="M781.5,847.5l0,-21" class="g1_3" />
<path d="M102.5,848.5l0,-1" class="g1_3" />
<path d="M103.5,848.5l39,0" class="g1_3" />
<path d="M142.5,848.5l0,-1" class="g1_3" />
<path d="M143.5,848.5l563,0" class="g1_3" />
<path d="M706.5,848.5l0,-1" class="g1_3" />
<path d="M706.5,848.5l75,0" class="g1_3" />
<path d="M781.5,848.5l0,-1" class="g1_3" />
<path d="M102.5,868.5l0,-20" class="g1_3" />
<path d="M142.5,868.5l0,-20" class="g1_3" />
<path d="M706.5,868.5l0,-20" class="g1_3" />
<path d="M781.5,868.5l0,-20" class="g1_3" />
<path d="M102.5,869.5l0,-1" class="g1_3" />
<path d="M103.5,869.5l39,0" class="g1_3" />
<path d="M142.5,869.5l0,-1" class="g1_3" />
<path d="M143.5,869.5l563,0" class="g1_3" />
<path d="M706.5,869.5l0,-1" class="g1_3" />
<path d="M706.5,869.5l75,0" class="g1_3" />
<path d="M781.5,869.5l0,-1" class="g1_3" />
<path d="M102.5,890.5l0,-21" class="g1_3" />
<path d="M142.5,890.5l0,-21" class="g1_3" />
<path d="M706.5,890.5l0,-21" class="g1_3" />
<path d="M781.5,890.5l0,-21" class="g1_3" />
<path d="M103.5,890.5l39,0" class="g1_3" />
<path d="M143.5,890.5l563,0" class="g1_3" />
<path d="M706.5,890.5l75,0" class="g1_3" />
<path d="M102.5,911.5l0,-21" class="g1_3" />
<path d="M142.5,911.5l0,-21" class="g1_3" />
<path d="M706.5,911.5l0,-21" class="g1_3" />
<path d="M781.5,911.5l0,-21" class="g1_3" />
<path d="M102.5,912.5l0,-1" class="g1_3" />
<path d="M103.5,912.5l39,0" class="g1_3" />
<path d="M142.5,912.5l0,-1" class="g1_3" />
<path d="M143.5,912.5l563,0" class="g1_3" />
<path d="M706.5,912.5l0,-1" class="g1_3" />
<path d="M706.5,912.5l75,0" class="g1_3" />
<path d="M781.5,912.5l0,-1" class="g1_3" />
<path d="M102.5,932.5l0,-20" class="g1_3" />
<path d="M142.5,932.5l0,-20" class="g1_3" />
<path d="M706.5,932.5l0,-20" class="g1_3" />
<path d="M781.5,932.5l0,-20" class="g1_3" />
<path d="M102.5,933.5l0,-1" class="g1_3" />
<path d="M103.5,933.5l39,0" class="g1_3" />
<path d="M142.5,933.5l0,-1" class="g1_3" />
<path d="M143.5,933.5l563,0" class="g1_3" />
<path d="M706.5,933.5l0,-1" class="g1_3" />
<path d="M706.5,933.5l75,0" class="g1_3" />
<path d="M781.5,933.5l0,-1" class="g1_3" />
<path d="M102.5,953.5l0,-20" class="g1_3" />
<path d="M142.5,953.5l0,-20" class="g1_3" />
<path d="M706.5,953.5l0,-20" class="g1_3" />
<path d="M781.5,953.5l0,-20" class="g1_3" />
<path d="M102.5,954.5l0,-1" class="g1_3" />
<path d="M103.5,954.5l39,0" class="g1_3" />
<path d="M142.5,954.5l0,-1" class="g1_3" />
<path d="M143.5,954.5l563,0" class="g1_3" />
<path d="M706.5,954.5l0,-1" class="g1_3" />
<path d="M706.5,954.5l75,0" class="g1_3" />
<path d="M781.5,954.5l0,-1" class="g1_3" />
<path d="M102.5,975.5l0,-21" class="g1_3" />
<path d="M142.5,975.5l0,-21" class="g1_3" />
<path d="M706.5,975.5l0,-21" class="g1_3" />
<path d="M781.5,975.5l0,-21" class="g1_3" />
<path d="M102.5,976.5l0,-1" class="g1_3" />
<path d="M103.5,976.5l39,0" class="g1_3" />
<path d="M142.5,976.5l0,-1" class="g1_3" />
<path d="M143.5,976.5l563,0" class="g1_3" />
<path d="M706.5,976.5l0,-1" class="g1_3" />
<path d="M706.5,976.5l75,0" class="g1_3" />
<path d="M781.5,976.5l0,-1" class="g1_3" />
<path d="M102.5,996.5l0,-20" class="g1_3" />
<path d="M142.5,996.5l0,-20" class="g1_3" />
<path d="M706.5,996.5l0,-20" class="g1_3" />
<path d="M781.5,996.5l0,-20" class="g1_3" />
<path d="M102.5,997.5l0,-1" class="g1_3" />
<path d="M103.5,997.5l39,0" class="g1_3" />
<path d="M142.5,997.5l0,-1" class="g1_3" />
<path d="M143.5,997.5l563,0" class="g1_3" />
<path d="M706.5,997.5l0,-1" class="g1_3" />
<path d="M706.5,997.5l75,0" class="g1_3" />
<path d="M781.5,997.5l0,-1" class="g1_3" />
<path d="M102.5,1017.5l0,-20" class="g1_3" />
<path d="M142.5,1017.5l0,-20" class="g1_3" />
<path d="M706.5,1017.5l0,-20" class="g1_3" />
<path d="M781.5,1017.5l0,-20" class="g1_3" />
<path d="M102.5,1018.5l0,-1" class="g1_3" />
<path d="M103.5,1018.5l39,0" class="g1_3" />
<path d="M142.5,1018.5l0,-1" class="g1_3" />
<path d="M143.5,1018.5l563,0" class="g1_3" />
<path d="M706.5,1018.5l0,-1" class="g1_3" />
<path d="M706.5,1018.5l75,0" class="g1_3" />
<path d="M781.5,1018.5l0,-1" class="g1_3" />
<path d="M102.5,1039.5l0,-21" class="g1_3" />
<path d="M142.5,1039.5l0,-21" class="g1_3" />
<path d="M706.5,1039.5l0,-21" class="g1_3" />
<path d="M781.5,1039.5l0,-21" class="g1_3" />
<path d="M103.5,1039.5l39,0" class="g1_3" />
<path d="M143.5,1039.5l563,0" class="g1_3" />
<path d="M706.5,1039.5l75,0" class="g1_3" />
<path d="M102.5,1060.5l0,-21" class="g1_3" />
<path d="M142.5,1060.5l0,-21" class="g1_3" />
<path d="M706.5,1060.5l0,-21" class="g1_3" />
<path d="M781.5,1060.5l0,-21" class="g1_3" />
<path d="M102.5,1061.5l0,-1" class="g1_3" />
<path d="M103.5,1061.5l39,0" class="g1_3" />
<path d="M142.5,1061.5l0,-1" class="g1_3" />
<path d="M143.5,1061.5l563,0" class="g1_3" />
<path d="M706.5,1061.5l0,-1" class="g1_3" />
<path d="M706.5,1061.5l75,0" class="g1_3" />
<path d="M781.5,1061.5l0,-1" class="g1_3" />
<path d="M102.5,1081.5l0,-20" class="g1_3" />
<path d="M142.5,1081.5l0,-20" class="g1_3" />
<path d="M706.5,1081.5l0,-20" class="g1_3" />
<path d="M781.5,1081.5l0,-20" class="g1_3" />
<path d="M102.5,1082.5l0,-1" class="g1_3" />
<path d="M103.5,1082.5l39,0" class="g1_3" />
<path d="M142.5,1082.5l0,-1" class="g1_3" />
<path d="M143.5,1082.5l563,0" class="g1_3" />
<path d="M706.5,1082.5l0,-1" class="g1_3" />
<path d="M706.5,1082.5l75,0" class="g1_3" />
<path d="M781.5,1082.5l0,-1" class="g1_3" />
<path d="M102.5,1102.5l0,-20" class="g1_3" />
<path d="M142.5,1102.5l0,-20" class="g1_3" />
<path d="M706.5,1102.5l0,-20" class="g1_3" />
<path d="M781.5,1102.5l0,-20" class="g1_3" />
<path d="M102.5,1103.5l0,-1" class="g1_3" />
<path d="M103.5,1103.5l39,0" class="g1_3" />
<path d="M142.5,1103.5l0,-1" class="g1_3" />
<path d="M143.5,1103.5l563,0" class="g1_3" />
<path d="M706.5,1103.5l0,-1" class="g1_3" />
<path d="M706.5,1103.5l75,0" class="g1_3" />
<path d="M781.5,1103.5l0,-1" class="g1_3" />
<path d="M102.5,1124.5l0,-21" class="g1_3" />
<path d="M142.5,1124.5l0,-21" class="g1_3" />
<path d="M706.5,1124.5l0,-21" class="g1_3" />
<path d="M781.5,1124.5l0,-21" class="g1_3" />
<path d="M706.5,1124.5l75,0" class="g1_3" />
<path d="M102.5,1165.5l0,-41" class="g1_3" />
<path d="M103.5,1165.5l39,0" class="g1_3" />
<path d="M142.5,1165.5l0,-41" class="g1_3" />
<path d="M143.5,1165.5l563,0" class="g1_3" />
<path d="M706.5,1165.5l0,-41" class="g1_3" />
<path d="M706.5,1165.5l75,0" class="g1_3" />
<path d="M781.5,1165.5l0,-41" class="g1_3" />
</svg>