<?xml version="1.0" encoding="UTF-8" standalone="no"?>
<!DOCTYPE svg PUBLIC "-//W3C//DTD SVG 1.1//EN"
"http://www.w3.org/Graphics/SVG/1.1/DTD/svg11.dtd">
<svg version="1.1" xmlns="http://www.w3.org/2000/svg" xmlns:xlink="http://www.w3.org/1999/xlink">
<defs>
<style type="text/css"><![CDATA[
.g2_4{
fill: #8B8B8B;
}
.g1_4{
fill: none;
stroke: #000000;
stroke-width: 1;
stroke-linecap: butt;
stroke-linejoin: miter;
}
]]></style>
</defs>
<image x="111" y="54" width="234" height="55" xlink:href="img/1.png" />
<path d="M103.5,129.5l39,0" class="g1_4" />
<path d="M143.5,129.5l563,0" class="g1_4" />
<path d="M706.5,129.5l75,0" class="g1_4" />
<path d="M102.5,150.5l0,-21" class="g1_4" />
<path d="M102.5,151.5l0,-1" class="g1_4" />
<path d="M102.5,151.5l0,-1" class="g1_4" />
<path d="M103.5,151.5l39,0" class="g1_4" />
<path d="M142.5,150.5l0,-21" class="g1_4" />
<path d="M142.5,151.5l0,-1" class="g1_4" />
<path d="M143.5,151.5l563,0" class="g1_4" />
<path d="M706.5,150.5l0,-21" class="g1_4" />
<path d="M706.5,151.5l0,-1" class="g1_4" />
<path d="M706.5,151.5l75,0" class="g1_4" />
<path d="M781.5,150.5l0,-21" class="g1_4" />
<path d="M781.5,151.5l0,-1" class="g1_4" />
<path d="M781.5,151.5l0,-1" class="g1_4" />
<path fill-rule="evenodd" d="M103,538l708,0l0,-5l-708,0l0,5Z" class="g2_4" />
<path fill-rule="evenodd" d="M103,568l8,0l0,-30l-8,0l0,30Z" class="g2_4" />
<path fill-rule="evenodd" d="M803,568l8,0l0,-30l-8,0l0,30Z" class="g2_4" />
<path fill-rule="evenodd" d="M103,574l708,0l0,-6l-708,0l0,6Z" class="g2_4" />
<path fill-rule="evenodd" d="M111,568l692,0l0,-30l-692,0l0,30Z" class="g2_4" />
<path d="M102.5,533.5l0,-1" class="g1_4" />
<path d="M102.5,533.5l0,-1" class="g1_4" />
<path d="M103.5,533.5l708,0" class="g1_4" />
<path d="M811.5,533.5l0,-1" class="g1_4" />
<path d="M811.5,533.5l0,-1" class="g1_4" />
<path d="M102.5,574.5l0,-41" class="g1_4" />
<path d="M811.5,574.5l0,-41" class="g1_4" />
<path fill-rule="evenodd" d="M103,585l244,0l0,-10l-244,0l0,10Z" class="g2_4" />
<path fill-rule="evenodd" d="M103,605l8,0l0,-20l-8,0l0,20Z" class="g2_4" />
<path fill-rule="evenodd" d="M339,605l8,0l0,-20l-8,0l0,20Z" class="g2_4" />
<path fill-rule="evenodd" d="M103,616l244,0l0,-11l-244,0l0,11Z" class="g2_4" />
<path fill-rule="evenodd" d="M111,605l228,0l0,-20l-228,0l0,20Z" class="g2_4" />
<path fill-rule="evenodd" d="M347,585l124,0l0,-10l-124,0l0,10Z" class="g2_4" />
<path fill-rule="evenodd" d="M347,605l8,0l0,-20l-8,0l0,20Z" class="g2_4" />
<path fill-rule="evenodd" d="M463,605l8,0l0,-20l-8,0l0,20Z" class="g2_4" />
<path fill-rule="evenodd" d="M347,616l124,0l0,-11l-124,0l0,11Z" class="g2_4" />
<path fill-rule="evenodd" d="M355,605l108,0l0,-20l-108,0l0,20Z" class="g2_4" />
<path fill-rule="evenodd" d="M471,585l110,0l0,-10l-110,0l0,10Z" class="g2_4" />
<path fill-rule="evenodd" d="M471,605l8,0l0,-20l-8,0l0,20Z" class="g2_4" />
<path fill-rule="evenodd" d="M573,605l8,0l0,-20l-8,0l0,20Z" class="g2_4" />
<path fill-rule="evenodd" d="M471,616l110,0l0,-11l-110,0l0,11Z" class="g2_4" />
<path fill-rule="evenodd" d="M479,605l94,0l0,-20l-94,0l0,20Z" class="g2_4" />
<path fill-rule="evenodd" d="M581,585l110,0l0,-10l-110,0l0,10Z" class="g2_4" />
<path fill-rule="evenodd" d="M581,605l8,0l0,-20l-8,0l0,20Z" class="g2_4" />
<path fill-rule="evenodd" d="M683,605l8,0l0,-20l-8,0l0,20Z" class="g2_4" />
<path fill-rule="evenodd" d="M581,616l110,0l0,-11l-110,0l0,11Z" class="g2_4" />
<path fill-rule="evenodd" d="M589,605l94,0l0,-20l-94,0l0,20Z" class="g2_4" />
<path fill-rule="evenodd" d="M691,616l8,0l0,-41l-8,0l0,41Z" class="g2_4" />
<path fill-rule="evenodd" d="M803,616l8,0l0,-41l-8,0l0,41Z" class="g2_4" />
<path fill-rule="evenodd" d="M699,595l104,0l0,-20l-104,0l0,20Z" class="g2_4" />
<path fill-rule="evenodd" d="M699,616l104,0l0,-21l-104,0l0,21Z" class="g2_4" />
<path d="M102.5,575.5l0,-1" class="g1_4" />
<path d="M103.5,575.5l244,0" class="g1_4" />
<path d="M347.5,575.5l0,-1" class="g1_4" />
<path d="M347.5,575.5l124,0" class="g1_4" />
<path d="M471.5,575.5l0,-1" class="g1_4" />
<path d="M472.5,575.5l109,0" class="g1_4" />
<path d="M581.5,575.5l0,-1" class="g1_4" />
<path d="M582.5,575.5l109,0" class="g1_4" />
<path d="M691.5,575.5l0,-1" class="g1_4" />
<path d="M692.5,575.5l119,0" class="g1_4" />
<path d="M811.5,575.5l0,-1" class="g1_4" />
<path d="M102.5,616.5l0,-41" class="g1_4" />
<path d="M347.5,616.5l0,-41" class="g1_4" />
<path d="M811.5,616.5l0,-41" class="g1_4" />
<path d="M102.5,617.5l0,-1" class="g1_4" />
<path d="M103.5,617.5l244,0" class="g1_4" />
<path d="M347.5,617.5l0,-1" class="g1_4" />
<path d="M347.5,617.5l124,0" class="g1_4" />
<path d="M471.5,617.5l0,-1" class="g1_4" />
<path d="M472.5,617.5l109,0" class="g1_4" />
<path d="M581.5,617.5l0,-1" class="g1_4" />
<path d="M582.5,617.5l109,0" class="g1_4" />
<path d="M691.5,617.5l0,-1" class="g1_4" />
<path d="M692.5,617.5l119,0" class="g1_4" />
<path d="M811.5,617.5l0,-1" class="g1_4" />
<path d="M102.5,650.5l0,-33" class="g1_4" />
<path d="M347.5,650.5l0,-33" class="g1_4" />
<path d="M811.5,650.5l0,-33" class="g1_4" />
<path d="M103.5,650.5l244,0" class="g1_4" />
<path d="M347.5,650.5l124,0" class="g1_4" />
<path d="M472.5,650.5l109,0" class="g1_4" />
<path d="M582.5,650.5l109,0" class="g1_4" />
<path d="M692.5,650.5l119,0" class="g1_4" />
<path d="M102.5,692.5l0,-42" class="g1_4" />
<path d="M347.5,692.5l0,-42" class="g1_4" />
<path d="M811.5,692.5l0,-42" class="g1_4" />
<path d="M103.5,692.5l244,0" class="g1_4" />
<path d="M347.5,692.5l124,0" class="g1_4" />
<path d="M472.5,692.5l109,0" class="g1_4" />
<path d="M582.5,692.5l109,0" class="g1_4" />
<path d="M692.5,692.5l119,0" class="g1_4" />
<path d="M102.5,725.5l0,-33" class="g1_4" />
<path d="M347.5,725.5l0,-33" class="g1_4" />
<path d="M811.5,725.5l0,-33" class="g1_4" />
<path d="M102.5,726.5l0,-1" class="g1_4" />
<path d="M103.5,726.5l244,0" class="g1_4" />
<path d="M347.5,726.5l0,-1" class="g1_4" />
<path d="M347.5,726.5l124,0" class="g1_4" />
<path d="M471.5,726.5l0,-1" class="g1_4" />
<path d="M472.5,726.5l109,0" class="g1_4" />
<path d="M581.5,726.5l0,-1" class="g1_4" />
<path d="M582.5,726.5l109,0" class="g1_4" />
<path d="M691.5,726.5l0,-1" class="g1_4" />
<path d="M692.5,726.5l119,0" class="g1_4" />
<path d="M811.5,726.5l0,-1" class="g1_4" />
<path d="M102.5,759.5l0,-33" class="g1_4" />
<path d="M347.5,759.5l0,-33" class="g1_4" />
<path d="M811.5,759.5l0,-33" class="g1_4" />
<path d="M102.5,760.5l0,-1" class="g1_4" />
<path d="M103.5,760.5l244,0" class="g1_4" />
<path d="M347.5,760.5l0,-1" class="g1_4" />
<path d="M347.5,760.5l124,0" class="g1_4" />
<path d="M471.5,760.5l0,-1" class="g1_4" />
<path d="M472.5,760.5l109,0" class="g1_4" />
<path d="M581.5,760.5l0,-1" class="g1_4" />
<path d="M582.5,760.5l109,0" class="g1_4" />
<path d="M691.5,760.5l0,-1" class="g1_4" />
<path d="M692.5,760.5l119,0" class="g1_4" />
<path d="M811.5,760.5l0,-1" class="g1_4" />
<path d="M102.5,793.5l0,-33" class="g1_4" />
<path d="M347.5,793.5l0,-33" class="g1_4" />
<path d="M811.5,793.5l0,-33" class="g1_4" />
<path d="M103.5,793.5l244,0" class="g1_4" />
<path d="M347.5,793.5l124,0" class="g1_4" />
<path d="M472.5,793.5l109,0" class="g1_4" />
<path d="M582.5,793.5l109,0" class="g1_4" />
<path d="M692.5,793.5l119,0" class="g1_4" />
<path d="M102.5,826.5l0,-33" class="g1_4" />
<path d="M347.5,826.5l0,-33" class="g1_4" />
<path d="M811.5,826.5l0,-33" class="g1_4" />
<path d="M102.5,827.5l0,-1" class="g1_4" />
<path d="M103.5,827.5l244,0" class="g1_4" />
<path d="M347.5,827.5l0,-1" class="g1_4" />
<path d="M347.5,827.5l124,0" class="g1_4" />
<path d="M471.5,827.5l0,-1" class="g1_4" />
<path d="M472.5,827.5l109,0" class="g1_4" />
<path d="M581.5,827.5l0,-1" class="g1_4" />
<path d="M582.5,827.5l109,0" class="g1_4" />
<path d="M691.5,827.5l0,-1" class="g1_4" />
<path d="M692.5,827.5l119,0" class="g1_4" />
<path d="M811.5,827.5l0,-1" class="g1_4" />
<path d="M102.5,860.5l0,-33" class="g1_4" />
<path d="M347.5,860.5l0,-33" class="g1_4" />
<path d="M811.5,860.5l0,-33" class="g1_4" />
<path d="M102.5,861.5l0,-1" class="g1_4" />
<path d="M103.5,861.5l244,0" class="g1_4" />
<path d="M347.5,861.5l0,-1" class="g1_4" />
<path d="M347.5,861.5l124,0" class="g1_4" />
<path d="M471.5,861.5l0,-1" class="g1_4" />
<path d="M472.5,861.5l109,0" class="g1_4" />
<path d="M581.5,861.5l0,-1" class="g1_4" />
<path d="M582.5,861.5l109,0" class="g1_4" />
<path d="M691.5,861.5l0,-1" class="g1_4" />
<path d="M692.5,861.5l119,0" class="g1_4" />
<path d="M811.5,861.5l0,-1" class="g1_4" />
<path d="M102.5,894.5l0,-33" class="g1_4" />
<path d="M347.5,894.5l0,-33" class="g1_4" />
<path d="M811.5,894.5l0,-33" class="g1_4" />
<path d="M102.5,895.5l0,-1" class="g1_4" />
<path d="M103.5,895.5l244,0" class="g1_4" />
<path d="M347.5,895.5l0,-1" class="g1_4" />
<path d="M347.5,895.5l124,0" class="g1_4" />
<path d="M471.5,895.5l0,-1" class="g1_4" />
<path d="M472.5,895.5l109,0" class="g1_4" />
<path d="M581.5,895.5l0,-1" class="g1_4" />
<path d="M582.5,895.5l109,0" class="g1_4" />
<path d="M691.5,895.5l0,-1" class="g1_4" />
<path d="M692.5,895.5l119,0" class="g1_4" />
<path d="M811.5,895.5l0,-1" class="g1_4" />
<path d="M102.5,928.5l0,-33" class="g1_4" />
<path d="M102.5,929.5l0,-1" class="g1_4" />
<path d="M102.5,929.5l0,-1" class="g1_4" />
<path d="M103.5,929.5l244,0" class="g1_4" />
<path d="M347.5,928.5l0,-33" class="g1_4" />
<path d="M347.5,929.5l0,-1" class="g1_4" />
<path d="M347.5,929.5l124,0" class="g1_4" />
<path d="M470.5,929.5l0,-1" class="g1_4" />
<path d="M470.5,929.5l111,0" class="g1_4" />
<path d="M580.5,929.5l0,-1" class="g1_4" />
<path d="M580.5,929.5l111,0" class="g1_4" />
<path d="M690.5,929.5l0,-1" class="g1_4" />
<path d="M690.5,929.5l121,0" class="g1_4" />
<path d="M811.5,928.5l0,-33" class="g1_4" />
<path d="M811.5,929.5l0,-1" class="g1_4" />
<path d="M811.5,929.5l0,-1" class="g1_4" />
</svg>