<?xml version="1.0" encoding="UTF-8" standalone="no"?>
<!DOCTYPE svg PUBLIC "-//W3C//DTD SVG 1.1//EN"
"http://www.w3.org/Graphics/SVG/1.1/DTD/svg11.dtd">
<svg version="1.1" xmlns="http://www.w3.org/2000/svg" xmlns:xlink="http://www.w3.org/1999/xlink">
<defs>
<style type="text/css"><![CDATA[
.g1_4{
fill: none;
stroke: #000000;
stroke-width: 1;
stroke-linecap: butt;
stroke-linejoin: miter;
}
]]></style>
</defs>
<image x="111" y="54" width="234" height="55" xlink:href="img/1.png" />
<path d="M102.5,168.5l40,0" class="g1_4" />
<path d="M143.5,168.5l446,0" class="g1_4" />
<path d="M589.5,168.5l110,0" class="g1_4" />
<path d="M699.5,168.5l89,0" class="g1_4" />
<path d="M101.5,239.5l0,-71" class="g1_4" />
<path d="M142.5,239.5l0,-71" class="g1_4" />
<path d="M589.5,239.5l0,-71" class="g1_4" />
<path d="M699.5,239.5l0,-71" class="g1_4" />
<path d="M788.5,239.5l0,-71" class="g1_4" />
<path d="M101.5,240.5l0,-1" class="g1_4" />
<path d="M102.5,240.5l40,0" class="g1_4" />
<path d="M142.5,240.5l0,-1" class="g1_4" />
<path d="M143.5,240.5l446,0" class="g1_4" />
<path d="M589.5,240.5l0,-1" class="g1_4" />
<path d="M589.5,240.5l110,0" class="g1_4" />
<path d="M699.5,240.5l0,-1" class="g1_4" />
<path d="M699.5,240.5l89,0" class="g1_4" />
<path d="M788.5,240.5l0,-1" class="g1_4" />
<path d="M101.5,260.5l0,-20" class="g1_4" />
<path d="M788.5,260.5l0,-20" class="g1_4" />
<path d="M101.5,261.5l0,-1" class="g1_4" />
<path d="M102.5,261.5l40,0" class="g1_4" />
<path d="M142.5,261.5l0,-1" class="g1_4" />
<path d="M143.5,261.5l446,0" class="g1_4" />
<path d="M589.5,261.5l0,-1" class="g1_4" />
<path d="M589.5,261.5l110,0" class="g1_4" />
<path d="M699.5,261.5l0,-1" class="g1_4" />
<path d="M699.5,261.5l89,0" class="g1_4" />
<path d="M788.5,261.5l0,-1" class="g1_4" />
<path d="M101.5,291.5l0,-30" class="g1_4" />
<path d="M142.5,291.5l0,-30" class="g1_4" />
<path d="M589.5,291.5l0,-30" class="g1_4" />
<path d="M699.5,291.5l0,-30" class="g1_4" />
<path d="M788.5,291.5l0,-30" class="g1_4" />
<path d="M101.5,292.5l0,-1" class="g1_4" />
<path d="M102.5,292.5l40,0" class="g1_4" />
<path d="M142.5,292.5l0,-1" class="g1_4" />
<path d="M143.5,292.5l446,0" class="g1_4" />
<path d="M589.5,292.5l0,-1" class="g1_4" />
<path d="M589.5,292.5l110,0" class="g1_4" />
<path d="M699.5,292.5l0,-1" class="g1_4" />
<path d="M699.5,292.5l89,0" class="g1_4" />
<path d="M788.5,292.5l0,-1" class="g1_4" />
<path d="M101.5,321.5l0,-29" class="g1_4" />
<path d="M142.5,321.5l0,-29" class="g1_4" />
<path d="M589.5,321.5l0,-29" class="g1_4" />
<path d="M699.5,321.5l0,-29" class="g1_4" />
<path d="M788.5,321.5l0,-29" class="g1_4" />
<path d="M101.5,322.5l0,-1" class="g1_4" />
<path d="M102.5,322.5l40,0" class="g1_4" />
<path d="M142.5,322.5l0,-1" class="g1_4" />
<path d="M143.5,322.5l446,0" class="g1_4" />
<path d="M589.5,322.5l0,-1" class="g1_4" />
<path d="M589.5,322.5l110,0" class="g1_4" />
<path d="M699.5,322.5l0,-1" class="g1_4" />
<path d="M699.5,322.5l89,0" class="g1_4" />
<path d="M788.5,322.5l0,-1" class="g1_4" />
<path d="M101.5,352.5l0,-30" class="g1_4" />
<path d="M142.5,352.5l0,-30" class="g1_4" />
<path d="M589.5,352.5l0,-30" class="g1_4" />
<path d="M699.5,352.5l0,-30" class="g1_4" />
<path d="M788.5,352.5l0,-30" class="g1_4" />
<path d="M102.5,352.5l40,0" class="g1_4" />
<path d="M143.5,352.5l446,0" class="g1_4" />
<path d="M589.5,352.5l110,0" class="g1_4" />
<path d="M699.5,352.5l89,0" class="g1_4" />
<path d="M101.5,382.5l0,-30" class="g1_4" />
<path d="M142.5,382.5l0,-30" class="g1_4" />
<path d="M589.5,382.5l0,-30" class="g1_4" />
<path d="M699.5,382.5l0,-30" class="g1_4" />
<path d="M788.5,382.5l0,-30" class="g1_4" />
<path d="M101.5,383.5l0,-1" class="g1_4" />
<path d="M102.5,383.5l40,0" class="g1_4" />
<path d="M142.5,383.5l0,-1" class="g1_4" />
<path d="M143.5,383.5l446,0" class="g1_4" />
<path d="M589.5,383.5l0,-1" class="g1_4" />
<path d="M589.5,383.5l110,0" class="g1_4" />
<path d="M699.5,383.5l0,-1" class="g1_4" />
<path d="M699.5,383.5l89,0" class="g1_4" />
<path d="M788.5,383.5l0,-1" class="g1_4" />
<path d="M101.5,413.5l0,-30" class="g1_4" />
<path d="M142.5,413.5l0,-30" class="g1_4" />
<path d="M589.5,413.5l0,-30" class="g1_4" />
<path d="M699.5,413.5l0,-30" class="g1_4" />
<path d="M788.5,413.5l0,-30" class="g1_4" />
<path d="M101.5,414.5l0,-1" class="g1_4" />
<path d="M102.5,414.5l40,0" class="g1_4" />
<path d="M142.5,414.5l0,-1" class="g1_4" />
<path d="M143.5,414.5l446,0" class="g1_4" />
<path d="M589.5,414.5l0,-1" class="g1_4" />
<path d="M589.5,414.5l110,0" class="g1_4" />
<path d="M699.5,414.5l0,-1" class="g1_4" />
<path d="M699.5,414.5l89,0" class="g1_4" />
<path d="M788.5,414.5l0,-1" class="g1_4" />
<path d="M101.5,443.5l0,-29" class="g1_4" />
<path d="M788.5,443.5l0,-29" class="g1_4" />
<path d="M101.5,444.5l0,-1" class="g1_4" />
<path d="M102.5,444.5l40,0" class="g1_4" />
<path d="M142.5,444.5l0,-1" class="g1_4" />
<path d="M143.5,444.5l446,0" class="g1_4" />
<path d="M589.5,444.5l0,-1" class="g1_4" />
<path d="M589.5,444.5l110,0" class="g1_4" />
<path d="M699.5,444.5l0,-1" class="g1_4" />
<path d="M699.5,444.5l89,0" class="g1_4" />
<path d="M788.5,444.5l0,-1" class="g1_4" />
<path d="M101.5,474.5l0,-30" class="g1_4" />
<path d="M142.5,474.5l0,-30" class="g1_4" />
<path d="M589.5,474.5l0,-30" class="g1_4" />
<path d="M699.5,474.5l0,-30" class="g1_4" />
<path d="M788.5,474.5l0,-30" class="g1_4" />
<path d="M102.5,474.5l40,0" class="g1_4" />
<path d="M143.5,474.5l446,0" class="g1_4" />
<path d="M589.5,474.5l110,0" class="g1_4" />
<path d="M699.5,474.5l89,0" class="g1_4" />
<path d="M101.5,504.5l0,-30" class="g1_4" />
<path d="M142.5,504.5l0,-30" class="g1_4" />
<path d="M589.5,504.5l0,-30" class="g1_4" />
<path d="M699.5,504.5l0,-30" class="g1_4" />
<path d="M788.5,504.5l0,-30" class="g1_4" />
<path d="M101.5,505.5l0,-1" class="g1_4" />
<path d="M102.5,505.5l40,0" class="g1_4" />
<path d="M142.5,505.5l0,-1" class="g1_4" />
<path d="M143.5,505.5l446,0" class="g1_4" />
<path d="M589.5,505.5l0,-1" class="g1_4" />
<path d="M589.5,505.5l110,0" class="g1_4" />
<path d="M699.5,505.5l0,-1" class="g1_4" />
<path d="M699.5,505.5l89,0" class="g1_4" />
<path d="M788.5,505.5l0,-1" class="g1_4" />
<path d="M101.5,535.5l0,-30" class="g1_4" />
<path d="M142.5,535.5l0,-30" class="g1_4" />
<path d="M589.5,535.5l0,-30" class="g1_4" />
<path d="M699.5,535.5l0,-30" class="g1_4" />
<path d="M788.5,535.5l0,-30" class="g1_4" />
<path d="M102.5,535.5l40,0" class="g1_4" />
<path d="M143.5,535.5l446,0" class="g1_4" />
<path d="M589.5,535.5l110,0" class="g1_4" />
<path d="M699.5,535.5l89,0" class="g1_4" />
<path d="M101.5,565.5l0,-30" class="g1_4" />
<path d="M142.5,565.5l0,-30" class="g1_4" />
<path d="M589.5,565.5l0,-30" class="g1_4" />
<path d="M699.5,565.5l0,-30" class="g1_4" />
<path d="M788.5,565.5l0,-30" class="g1_4" />
<path d="M101.5,566.5l0,-1" class="g1_4" />
<path d="M102.5,566.5l40,0" class="g1_4" />
<path d="M142.5,566.5l0,-1" class="g1_4" />
<path d="M143.5,566.5l446,0" class="g1_4" />
<path d="M589.5,566.5l0,-1" class="g1_4" />
<path d="M589.5,566.5l110,0" class="g1_4" />
<path d="M699.5,566.5l0,-1" class="g1_4" />
<path d="M699.5,566.5l89,0" class="g1_4" />
<path d="M788.5,566.5l0,-1" class="g1_4" />
<path d="M101.5,595.5l0,-29" class="g1_4" />
<path d="M788.5,595.5l0,-29" class="g1_4" />
<path d="M101.5,596.5l0,-1" class="g1_4" />
<path d="M102.5,596.5l40,0" class="g1_4" />
<path d="M142.5,596.5l0,-1" class="g1_4" />
<path d="M143.5,596.5l446,0" class="g1_4" />
<path d="M589.5,596.5l0,-1" class="g1_4" />
<path d="M589.5,596.5l110,0" class="g1_4" />
<path d="M699.5,596.5l0,-1" class="g1_4" />
<path d="M699.5,596.5l89,0" class="g1_4" />
<path d="M788.5,596.5l0,-1" class="g1_4" />
<path d="M101.5,626.5l0,-30" class="g1_4" />
<path d="M142.5,626.5l0,-30" class="g1_4" />
<path d="M589.5,626.5l0,-30" class="g1_4" />
<path d="M699.5,626.5l0,-30" class="g1_4" />
<path d="M788.5,626.5l0,-30" class="g1_4" />
<path d="M101.5,627.5l0,-1" class="g1_4" />
<path d="M102.5,627.5l40,0" class="g1_4" />
<path d="M142.5,627.5l0,-1" class="g1_4" />
<path d="M143.5,627.5l446,0" class="g1_4" />
<path d="M589.5,627.5l0,-1" class="g1_4" />
<path d="M589.5,627.5l110,0" class="g1_4" />
<path d="M699.5,627.5l0,-1" class="g1_4" />
<path d="M699.5,627.5l89,0" class="g1_4" />
<path d="M788.5,627.5l0,-1" class="g1_4" />
<path d="M101.5,656.5l0,-29" class="g1_4" />
<path d="M142.5,656.5l0,-29" class="g1_4" />
<path d="M589.5,656.5l0,-29" class="g1_4" />
<path d="M699.5,656.5l0,-29" class="g1_4" />
<path d="M788.5,656.5l0,-29" class="g1_4" />
<path d="M101.5,657.5l0,-1" class="g1_4" />
<path d="M102.5,657.5l40,0" class="g1_4" />
<path d="M142.5,657.5l0,-1" class="g1_4" />
<path d="M143.5,657.5l446,0" class="g1_4" />
<path d="M589.5,657.5l0,-1" class="g1_4" />
<path d="M589.5,657.5l110,0" class="g1_4" />
<path d="M699.5,657.5l0,-1" class="g1_4" />
<path d="M699.5,657.5l89,0" class="g1_4" />
<path d="M788.5,657.5l0,-1" class="g1_4" />
<path d="M101.5,687.5l0,-30" class="g1_4" />
<path d="M102.5,687.5l40,0" class="g1_4" />
<path d="M142.5,687.5l0,-30" class="g1_4" />
<path d="M143.5,687.5l446,0" class="g1_4" />
<path d="M589.5,687.5l0,-30" class="g1_4" />
<path d="M589.5,687.5l110,0" class="g1_4" />
<path d="M699.5,687.5l0,-30" class="g1_4" />
<path d="M699.5,687.5l89,0" class="g1_4" />
<path d="M788.5,687.5l0,-30" class="g1_4" />
<path d="M102.5,905.5l710,0" class="g1_4" />
<path d="M102.5,928.5l0,-23" class="g1_4" />
<path d="M812.5,928.5l0,-23" class="g1_4" />
<path d="M102.5,950.5l710,0" class="g1_4" />
<path d="M102.5,950.5l0,-22" class="g1_4" />
<path d="M812.5,950.5l0,-22" class="g1_4" />
</svg>