<?xml version="1.0" encoding="UTF-8" standalone="no"?>
<!DOCTYPE svg PUBLIC "-//W3C//DTD SVG 1.1//EN"
"http://www.w3.org/Graphics/SVG/1.1/DTD/svg11.dtd">
<svg version="1.1" xmlns="http://www.w3.org/2000/svg" xmlns:xlink="http://www.w3.org/1999/xlink">
<defs>
<clipPath id="c0_1"><path d="M102.5,411.5l0,-43l109,0l0,43Z" /></clipPath>
<clipPath id="c1_1"><path d="M211.5,411.5l0,-43l584,0l0,43Z" /></clipPath>
<clipPath id="c2_1"><path d="M102.5,1157.5l0,-627l109,0l0,627Z" /></clipPath>
<clipPath id="c3_1"><path d="M211.5,1157.5l0,-627l584,0l0,627Z" /></clipPath>
<style type="text/css"><![CDATA[
.g5_1{
}
.g2_1{
fill: #F1F1F1;
}
.g4_1{
fill: none;
stroke: #44546A;
stroke-width: 1;
stroke-linecap: butt;
stroke-linejoin: miter;
}
.g3_1{
fill: #44546A;
}
.g1_1{
fill: none;
stroke: #000000;
stroke-width: 1;
stroke-linecap: butt;
stroke-linejoin: miter;
}
]]></style>
</defs>
<image x="111" y="54" width="238" height="56" xlink:href="img/1.png" />
<path d="M402.5,151.5l110,0" class="g1_1" />
<path fill-rule="evenodd" d="M101,168l346,0l0,-5l-346,0l0,5Z" class="g2_1" />
<path fill-rule="evenodd" d="M101,186l8,0l0,-18l-8,0l0,18Z" class="g2_1" />
<path fill-rule="evenodd" d="M439,186l8,0l0,-18l-8,0l0,18Z" class="g2_1" />
<path fill-rule="evenodd" d="M101,191l346,0l0,-5l-346,0l0,5Z" class="g2_1" />
<path fill-rule="evenodd" d="M109,186l330,0l0,-18l-330,0l0,18Z" class="g2_1" />
<path fill-rule="evenodd" d="M448,168l343,0l0,-5l-343,0l0,5Z" class="g2_1" />
<path fill-rule="evenodd" d="M448,186l8,0l0,-18l-8,0l0,18Z" class="g2_1" />
<path fill-rule="evenodd" d="M783,186l8,0l0,-18l-8,0l0,18Z" class="g2_1" />
<path fill-rule="evenodd" d="M448,191l343,0l0,-5l-343,0l0,5Z" class="g2_1" />
<path fill-rule="evenodd" d="M456,186l327,0l0,-18l-327,0l0,18Z" class="g2_1" />
<path d="M101.5,163.5l346,0" class="g1_1" />
<path d="M448.5,163.5l343,0" class="g1_1" />
<path d="M101.5,191.5l0,-28" class="g1_1" />
<path d="M447.5,191.5l0,-28" class="g1_1" />
<path d="M791.5,191.5l0,-28" class="g1_1" />
<path d="M101.5,191.5l346,0" class="g1_1" />
<path d="M448.5,191.5l343,0" class="g1_1" />
<path d="M101.5,222.5l0,-31" class="g1_1" />
<path d="M447.5,222.5l0,-31" class="g1_1" />
<path d="M791.5,222.5l0,-31" class="g1_1" />
<path d="M101.5,223.5l0,-1" class="g1_1" />
<path d="M101.5,223.5l346,0" class="g1_1" />
<path d="M447.5,223.5l0,-1" class="g1_1" />
<path d="M448.5,223.5l343,0" class="g1_1" />
<path d="M791.5,223.5l0,-1" class="g1_1" />
<path d="M101.5,246.5l0,-23" class="g1_1" />
<path d="M101.5,247.5l0,-1" class="g1_1" />
<path d="M101.5,247.5l0,-1" class="g1_1" />
<path d="M101.5,247.5l346,0" class="g1_1" />
<path d="M447.5,246.5l0,-23" class="g1_1" />
<path d="M447.5,247.5l0,-1" class="g1_1" />
<path d="M448.5,247.5l343,0" class="g1_1" />
<path d="M791.5,246.5l0,-23" class="g1_1" />
<path d="M791.5,247.5l0,-1" class="g1_1" />
<path d="M791.5,247.5l0,-1" class="g1_1" />
<path fill-rule="evenodd" d="M102,324l8,0l0,-43l-8,0l0,43Z" class="g3_1" />
<path fill-rule="evenodd" d="M203,324l8,0l0,-43l-8,0l0,43Z" class="g3_1" />
<path fill-rule="evenodd" d="M110,303l93,0l0,-22l-93,0l0,22Z" class="g3_1" />
<path fill-rule="evenodd" d="M110,324l93,0l0,-21l-93,0l0,21Z" class="g3_1" />
<path fill-rule="evenodd" d="M211,303l8,0l0,-22l-8,0l0,22Z" class="g2_1" />
<path fill-rule="evenodd" d="M787,303l8,0l0,-22l-8,0l0,22Z" class="g2_1" />
<path fill-rule="evenodd" d="M211,324l584,0l0,-21l-584,0l0,21Z" class="g2_1" />
<path fill-rule="evenodd" d="M219,303l568,0l0,-22l-568,0l0,22Z" class="g2_1" />
<path d="M101.5,281.5l0,-1" class="g1_1" />
<path d="M101.5,281.5l0,-1" class="g1_1" />
<path d="M102.5,281.5l109,0" class="g1_1" />
<path d="M211.5,281.5l0,-1" class="g1_1" />
<path d="M211.5,281.5l584,0" class="g1_1" />
<path d="M795.5,281.5l0,-1" class="g1_1" />
<path d="M795.5,281.5l0,-1" class="g1_1" />
<path d="M101.5,324.5l0,-43" class="g1_1" />
<path d="M211.5,324.5l0,-43" class="g1_1" />
<path d="M795.5,324.5l0,-43" class="g1_1" />
<path fill-rule="evenodd" d="M102,368l8,0l0,-43l-8,0l0,43Z" class="g3_1" />
<path fill-rule="evenodd" d="M203,368l8,0l0,-43l-8,0l0,43Z" class="g3_1" />
<path fill-rule="evenodd" d="M110,346l93,0l0,-21l-93,0l0,21Z" class="g3_1" />
<path fill-rule="evenodd" d="M110,368l93,0l0,-22l-93,0l0,22Z" class="g3_1" />
<path fill-rule="evenodd" d="M211,346l8,0l0,-21l-8,0l0,21Z" class="g2_1" />
<path fill-rule="evenodd" d="M787,346l8,0l0,-21l-8,0l0,21Z" class="g2_1" />
<path fill-rule="evenodd" d="M211,368l584,0l0,-22l-584,0l0,22Z" class="g2_1" />
<path fill-rule="evenodd" d="M219,346l568,0l0,-21l-568,0l0,21Z" class="g2_1" />
<path d="M101.5,325.5l0,-1" class="g1_1" />
<path d="M102.5,325.5l109,0" class="g1_1" />
<path d="M211.5,325.5l0,-1" class="g1_1" />
<path d="M211.5,325.5l584,0" class="g1_1" />
<path d="M795.5,325.5l0,-1" class="g1_1" />
<path d="M101.5,368.5l0,-43" class="g1_1" />
<path d="M211.5,368.5l0,-43" class="g1_1" />
<path d="M795.5,368.5l0,-43" class="g1_1" />
<path fill-rule="evenodd" d="M102,411l8,0l0,-43l-8,0l0,43Z" class="g3_1" />
<path fill-rule="evenodd" d="M203,411l8,0l0,-43l-8,0l0,43Z" class="g3_1" />
<g clip-path="url(#c0_1)">
<path fill-rule="evenodd" d="M110,390l93,0l0,-22l-93,0l0,22Z" class="g3_1" />
</g>
<path fill-rule="evenodd" d="M110,411l93,0l0,-21l-93,0l0,21Z" class="g3_1" />
<path fill-rule="evenodd" d="M211,390l8,0l0,-22l-8,0l0,22Z" class="g2_1" />
<path fill-rule="evenodd" d="M787,390l8,0l0,-22l-8,0l0,22Z" class="g2_1" />
<path fill-rule="evenodd" d="M211,411l584,0l0,-21l-584,0l0,21Z" class="g2_1" />
<g clip-path="url(#c1_1)">
<path fill-rule="evenodd" d="M219,390l568,0l0,-22l-568,0l0,22Z" class="g2_1" />
</g>
<path d="M102.5,368.5l109,0" class="g1_1" />
<path d="M211.5,368.5l584,0" class="g1_1" />
<path d="M101.5,411.5l0,-43" class="g1_1" />
<path d="M211.5,411.5l0,-43" class="g1_1" />
<path d="M795.5,411.5l0,-43" class="g1_1" />
<path fill-rule="evenodd" d="M102,455l8,0l0,-43l-8,0l0,43Z" class="g3_1" />
<path fill-rule="evenodd" d="M203,455l8,0l0,-43l-8,0l0,43Z" class="g3_1" />
<path fill-rule="evenodd" d="M110,434l93,0l0,-22l-93,0l0,22Z" class="g3_1" />
<path fill-rule="evenodd" d="M110,455l93,0l0,-21l-93,0l0,21Z" class="g3_1" />
<path fill-rule="evenodd" d="M211,434l8,0l0,-22l-8,0l0,22Z" class="g2_1" />
<path fill-rule="evenodd" d="M787,434l8,0l0,-22l-8,0l0,22Z" class="g2_1" />
<path fill-rule="evenodd" d="M211,455l584,0l0,-21l-584,0l0,21Z" class="g2_1" />
<path fill-rule="evenodd" d="M219,434l568,0l0,-22l-568,0l0,22Z" class="g2_1" />
<path d="M101.5,412.5l0,-1" class="g1_1" />
<path d="M102.5,412.5l109,0" class="g1_1" />
<path d="M211.5,412.5l0,-1" class="g1_1" />
<path d="M211.5,412.5l584,0" class="g1_1" />
<path d="M795.5,412.5l0,-1" class="g1_1" />
<path d="M101.5,455.5l0,-43" class="g1_1" />
<path d="M211.5,455.5l0,-43" class="g1_1" />
<path d="M795.5,455.5l0,-43" class="g1_1" />
<path fill-rule="evenodd" d="M102,477l8,0l0,-21l-8,0l0,21Z" class="g3_1" />
<path fill-rule="evenodd" d="M203,477l8,0l0,-21l-8,0l0,21Z" class="g3_1" />
<path fill-rule="evenodd" d="M102,506l109,0l0,-29l-109,0l0,29Z" class="g3_1" />
<path fill-rule="evenodd" d="M110,477l93,0l0,-21l-93,0l0,21Z" class="g3_1" />
<path fill-rule="evenodd" d="M211,506l8,0l0,-50l-8,0l0,50Z" class="g2_1" />
<path fill-rule="evenodd" d="M787,506l8,0l0,-50l-8,0l0,50Z" class="g2_1" />
<path fill-rule="evenodd" d="M219,481l568,0l0,-25l-568,0l0,25Z" class="g2_1" />
<path fill-rule="evenodd" d="M219,506l568,0l0,-25l-568,0l0,25Z" class="g2_1" />
<path d="M101.5,456.5l0,-1" class="g1_1" />
<path d="M102.5,456.5l109,0" class="g1_1" />
<path d="M211.5,456.5l0,-1" class="g1_1" />
<path d="M211.5,456.5l584,0" class="g1_1" />
<path d="M795.5,456.5l0,-1" class="g1_1" />
<path d="M101.5,506.5l0,-50" class="g1_1" />
<path d="M211.5,506.5l0,-50" class="g1_1" />
<path d="M795.5,506.5l0,-50" class="g1_1" />
<path fill-rule="evenodd" d="M102,528l8,0l0,-21l-8,0l0,21Z" class="g3_1" />
<path fill-rule="evenodd" d="M203,528l8,0l0,-21l-8,0l0,21Z" class="g3_1" />
<path d="M102.5,529.5l109,0" class="g4_1" />
<path fill-rule="evenodd" d="M110,528l93,0l0,-21l-93,0l0,21Z" class="g3_1" />
<path fill-rule="evenodd" d="M211,529l8,0l0,-22l-8,0l0,22Z" class="g2_1" />
<path fill-rule="evenodd" d="M787,529l8,0l0,-22l-8,0l0,22Z" class="g2_1" />
<path fill-rule="evenodd" d="M219,529l568,0l0,-22l-568,0l0,22Z" class="g2_1" />
<path d="M101.5,507.5l0,-1" class="g1_1" />
<path d="M102.5,507.5l109,0" class="g1_1" />
<path d="M211.5,507.5l0,-1" class="g1_1" />
<path d="M211.5,507.5l584,0" class="g1_1" />
<path d="M795.5,507.5l0,-1" class="g1_1" />
<path d="M101.5,529.5l0,-22" class="g1_1" />
<path d="M211.5,529.5l0,-22" class="g1_1" />
<path d="M795.5,529.5l0,-22" class="g1_1" />
<path fill-rule="evenodd" d="M102,573l8,0l0,-43l-8,0l0,43Z" class="g3_1" />
<path fill-rule="evenodd" d="M203,573l8,0l0,-43l-8,0l0,43Z" class="g3_1" />
<path fill-rule="evenodd" d="M102,1157l109,0l0,-584l-109,0l0,584Z" class="g3_1" />
<g clip-path="url(#c2_1)">
<path fill-rule="evenodd" d="M110,551l93,0l0,-21l-93,0l0,21Z" class="g3_1" />
</g>
<path fill-rule="evenodd" d="M110,573l93,0l0,-22l-93,0l0,22Z" class="g3_1" />
<path fill-rule="evenodd" d="M211,1157l8,0l0,-627l-8,0l0,627Z" class="g2_1" />
<path fill-rule="evenodd" d="M787,1157l8,0l0,-627l-8,0l0,627Z" class="g2_1" />
<g clip-path="url(#c3_1)">
<path fill-rule="evenodd" d="M219,561l568,0l0,-31l-568,0l0,31Z" class="g2_1" />
</g>
<path fill-rule="evenodd" d="M240,550l123,0l0,-2l-123,0l0,2Z" class="g5_1" />
<path fill-rule="evenodd" d="M219,583l568,0l0,-22l-568,0l0,22Z" class="g2_1" />
<path fill-rule="evenodd" d="M219,604l568,0l0,-21l-568,0l0,21Z" class="g2_1" />
<path fill-rule="evenodd" d="M219,626l568,0l0,-22l-568,0l0,22Z" class="g2_1" />
<path fill-rule="evenodd" d="M219,648l568,0l0,-22l-568,0l0,22Z" class="g2_1" />
<path fill-rule="evenodd" d="M219,670l568,0l0,-22l-568,0l0,22Z" class="g2_1" />
<path fill-rule="evenodd" d="M219,691l568,0l0,-21l-568,0l0,21Z" class="g2_1" />
<path fill-rule="evenodd" d="M219,713l568,0l0,-22l-568,0l0,22Z" class="g2_1" />
<path fill-rule="evenodd" d="M219,734l568,0l0,-21l-568,0l0,21Z" class="g2_1" />
<path fill-rule="evenodd" d="M240,732l96,0l0,-1l-96,0l0,1Z" class="g5_1" />
<path fill-rule="evenodd" d="M219,756l568,0l0,-22l-568,0l0,22Z" class="g2_1" />
<path fill-rule="evenodd" d="M219,787l568,0l0,-31l-568,0l0,31Z" class="g2_1" />
<path fill-rule="evenodd" d="M219,808l568,0l0,-21l-568,0l0,21Z" class="g2_1" />
<path fill-rule="evenodd" d="M240,807l102,0l0,-2l-102,0l0,2Z" class="g5_1" />
<path fill-rule="evenodd" d="M219,831l568,0l0,-23l-568,0l0,23Z" class="g2_1" />
<path fill-rule="evenodd" d="M219,852l568,0l0,-21l-568,0l0,21Z" class="g2_1" />
<path fill-rule="evenodd" d="M219,875l568,0l0,-23l-568,0l0,23Z" class="g2_1" />
<path fill-rule="evenodd" d="M219,896l568,0l0,-21l-568,0l0,21Z" class="g2_1" />
<path fill-rule="evenodd" d="M219,918l568,0l0,-22l-568,0l0,22Z" class="g2_1" />
<path fill-rule="evenodd" d="M219,940l568,0l0,-22l-568,0l0,22Z" class="g2_1" />
<path fill-rule="evenodd" d="M219,962l568,0l0,-22l-568,0l0,22Z" class="g2_1" />
<path fill-rule="evenodd" d="M219,983l568,0l0,-21l-568,0l0,21Z" class="g2_1" />
<path fill-rule="evenodd" d="M219,1005l568,0l0,-22l-568,0l0,22Z" class="g2_1" />
<path fill-rule="evenodd" d="M219,1026l568,0l0,-21l-568,0l0,21Z" class="g2_1" />
<path fill-rule="evenodd" d="M219,1048l568,0l0,-22l-568,0l0,22Z" class="g2_1" />
<path fill-rule="evenodd" d="M219,1070l568,0l0,-22l-568,0l0,22Z" class="g2_1" />
<path fill-rule="evenodd" d="M219,1091l568,0l0,-21l-568,0l0,21Z" class="g2_1" />
<path fill-rule="evenodd" d="M219,1113l568,0l0,-22l-568,0l0,22Z" class="g2_1" />
<path fill-rule="evenodd" d="M219,1135l568,0l0,-22l-568,0l0,22Z" class="g2_1" />
<path fill-rule="evenodd" d="M219,1157l568,0l0,-22l-568,0l0,22Z" class="g2_1" />
<path d="M101.5,530.5l0,-1" class="g1_1" />
<path d="M102.5,530.5l109,0" class="g1_1" />
<path d="M211.5,530.5l0,-1" class="g1_1" />
<path d="M211.5,530.5l584,0" class="g1_1" />
<path d="M795.5,530.5l0,-1" class="g1_1" />
<path d="M101.5,1157.5l0,-627" class="g1_1" />
<path d="M102.5,1157.5l109,0" class="g1_1" />
<path d="M211.5,1157.5l0,-627" class="g1_1" />
<path d="M211.5,1157.5l584,0" class="g1_1" />
<path d="M795.5,1157.5l0,-627" class="g1_1" />
</svg>