<?xml version="1.0" encoding="UTF-8" standalone="no"?>
<!DOCTYPE svg PUBLIC "-//W3C//DTD SVG 1.1//EN"
"http://www.w3.org/Graphics/SVG/1.1/DTD/svg11.dtd">
<svg version="1.1" xmlns="http://www.w3.org/2000/svg" xmlns:xlink="http://www.w3.org/1999/xlink">
<defs>
<clipPath id="c0_1"><path d="M102.5,521.5l0,-112l129,0l0,112Z" /></clipPath>
<clipPath id="c1_1"><path d="M231.5,521.5l0,-112l559,0l0,112Z" /></clipPath>
<clipPath id="c2_1"><path d="M102.5,1155.5l0,-206l129,0l0,206Z" /></clipPath>
<clipPath id="c3_1"><path d="M231.5,1155.5l0,-206l559,0l0,206Z" /></clipPath>
<style type="text/css"><![CDATA[
.g2_1{
fill: #F1F1F1;
}
.g3_1{
fill: #44546A;
}
.g1_1{
fill: none;
stroke: #000000;
stroke-width: 1;
stroke-linecap: butt;
stroke-linejoin: miter;
}
]]></style>
</defs>
<image x="110" y="54" width="238" height="56" xlink:href="img/1.png" />
<path d="M376.5,151.5l157,0" class="g1_1" />
<path fill-rule="evenodd" d="M101,173l346,0l0,-5l-346,0l0,5Z" class="g2_1" />
<path fill-rule="evenodd" d="M101,194l8,0l0,-21l-8,0l0,21Z" class="g2_1" />
<path fill-rule="evenodd" d="M439,194l8,0l0,-21l-8,0l0,21Z" class="g2_1" />
<path fill-rule="evenodd" d="M101,199l346,0l0,-5l-346,0l0,5Z" class="g2_1" />
<path fill-rule="evenodd" d="M109,194l330,0l0,-21l-330,0l0,21Z" class="g2_1" />
<path fill-rule="evenodd" d="M447,173l343,0l0,-5l-343,0l0,5Z" class="g2_1" />
<path fill-rule="evenodd" d="M447,194l8,0l0,-21l-8,0l0,21Z" class="g2_1" />
<path fill-rule="evenodd" d="M782,194l8,0l0,-21l-8,0l0,21Z" class="g2_1" />
<path fill-rule="evenodd" d="M447,199l343,0l0,-5l-343,0l0,5Z" class="g2_1" />
<path fill-rule="evenodd" d="M455,194l327,0l0,-21l-327,0l0,21Z" class="g2_1" />
<path d="M101.5,168.5l346,0" class="g1_1" />
<path d="M447.5,168.5l343,0" class="g1_1" />
<path d="M101.5,199.5l0,-31" class="g1_1" />
<path d="M447.5,199.5l0,-31" class="g1_1" />
<path d="M790.5,199.5l0,-31" class="g1_1" />
<path d="M101.5,199.5l346,0" class="g1_1" />
<path d="M447.5,199.5l343,0" class="g1_1" />
<path d="M101.5,226.5l0,-27" class="g1_1" />
<path d="M447.5,226.5l0,-27" class="g1_1" />
<path d="M790.5,226.5l0,-27" class="g1_1" />
<path d="M101.5,227.5l0,-1" class="g1_1" />
<path d="M101.5,227.5l346,0" class="g1_1" />
<path d="M447.5,227.5l0,-1" class="g1_1" />
<path d="M447.5,227.5l343,0" class="g1_1" />
<path d="M790.5,227.5l0,-1" class="g1_1" />
<path d="M101.5,254.5l0,-27" class="g1_1" />
<path d="M101.5,254.5l346,0" class="g1_1" />
<path d="M447.5,254.5l0,-27" class="g1_1" />
<path d="M447.5,254.5l343,0" class="g1_1" />
<path d="M790.5,254.5l0,-27" class="g1_1" />
<path fill-rule="evenodd" d="M102,316l8,0l0,-22l-8,0l0,22Z" class="g3_1" />
<path fill-rule="evenodd" d="M223,316l8,0l0,-22l-8,0l0,22Z" class="g3_1" />
<path fill-rule="evenodd" d="M110,316l113,0l0,-22l-113,0l0,22Z" class="g3_1" />
<path fill-rule="evenodd" d="M231,316l8,0l0,-22l-8,0l0,22Z" class="g2_1" />
<path fill-rule="evenodd" d="M782,316l8,0l0,-22l-8,0l0,22Z" class="g2_1" />
<path fill-rule="evenodd" d="M239,316l543,0l0,-22l-543,0l0,22Z" class="g2_1" />
<path d="M101.5,294.5l0,-1" class="g1_1" />
<path d="M101.5,294.5l0,-1" class="g1_1" />
<path d="M102.5,294.5l129,0" class="g1_1" />
<path d="M231.5,294.5l0,-1" class="g1_1" />
<path d="M231.5,294.5l559,0" class="g1_1" />
<path d="M790.5,294.5l0,-1" class="g1_1" />
<path d="M790.5,294.5l0,-1" class="g1_1" />
<path d="M101.5,316.5l0,-22" class="g1_1" />
<path d="M231.5,316.5l0,-22" class="g1_1" />
<path d="M790.5,316.5l0,-22" class="g1_1" />
<path fill-rule="evenodd" d="M102,362l8,0l0,-45l-8,0l0,45Z" class="g3_1" />
<path fill-rule="evenodd" d="M223,362l8,0l0,-45l-8,0l0,45Z" class="g3_1" />
<path fill-rule="evenodd" d="M110,339l113,0l0,-22l-113,0l0,22Z" class="g3_1" />
<path fill-rule="evenodd" d="M110,362l113,0l0,-23l-113,0l0,23Z" class="g3_1" />
<path fill-rule="evenodd" d="M231,339l8,0l0,-22l-8,0l0,22Z" class="g2_1" />
<path fill-rule="evenodd" d="M782,339l8,0l0,-22l-8,0l0,22Z" class="g2_1" />
<path fill-rule="evenodd" d="M231,362l559,0l0,-23l-559,0l0,23Z" class="g2_1" />
<path fill-rule="evenodd" d="M239,339l543,0l0,-22l-543,0l0,22Z" class="g2_1" />
<path d="M101.5,317.5l0,-1" class="g1_1" />
<path d="M102.5,317.5l129,0" class="g1_1" />
<path d="M231.5,317.5l0,-1" class="g1_1" />
<path d="M231.5,317.5l559,0" class="g1_1" />
<path d="M790.5,317.5l0,-1" class="g1_1" />
<path d="M101.5,362.5l0,-45" class="g1_1" />
<path d="M231.5,362.5l0,-45" class="g1_1" />
<path d="M790.5,362.5l0,-45" class="g1_1" />
<path fill-rule="evenodd" d="M102,385l8,0l0,-23l-8,0l0,23Z" class="g3_1" />
<path fill-rule="evenodd" d="M223,385l8,0l0,-23l-8,0l0,23Z" class="g3_1" />
<path fill-rule="evenodd" d="M110,385l113,0l0,-23l-113,0l0,23Z" class="g3_1" />
<path fill-rule="evenodd" d="M231,385l8,0l0,-23l-8,0l0,23Z" class="g2_1" />
<path fill-rule="evenodd" d="M782,385l8,0l0,-23l-8,0l0,23Z" class="g2_1" />
<path fill-rule="evenodd" d="M239,385l543,0l0,-23l-543,0l0,23Z" class="g2_1" />
<path d="M102.5,362.5l129,0" class="g1_1" />
<path d="M231.5,362.5l559,0" class="g1_1" />
<path d="M101.5,385.5l0,-23" class="g1_1" />
<path d="M231.5,385.5l0,-23" class="g1_1" />
<path d="M790.5,385.5l0,-23" class="g1_1" />
<path fill-rule="evenodd" d="M102,408l8,0l0,-23l-8,0l0,23Z" class="g3_1" />
<path fill-rule="evenodd" d="M223,408l8,0l0,-23l-8,0l0,23Z" class="g3_1" />
<path fill-rule="evenodd" d="M110,408l113,0l0,-23l-113,0l0,23Z" class="g3_1" />
<path fill-rule="evenodd" d="M231,408l8,0l0,-23l-8,0l0,23Z" class="g2_1" />
<path fill-rule="evenodd" d="M782,408l8,0l0,-23l-8,0l0,23Z" class="g2_1" />
<path fill-rule="evenodd" d="M239,408l543,0l0,-23l-543,0l0,23Z" class="g2_1" />
<path d="M102.5,385.5l129,0" class="g1_1" />
<path d="M231.5,385.5l559,0" class="g1_1" />
<path d="M101.5,408.5l0,-23" class="g1_1" />
<path d="M231.5,408.5l0,-23" class="g1_1" />
<path d="M790.5,408.5l0,-23" class="g1_1" />
<path fill-rule="evenodd" d="M102,431l8,0l0,-22l-8,0l0,22Z" class="g3_1" />
<path fill-rule="evenodd" d="M223,431l8,0l0,-22l-8,0l0,22Z" class="g3_1" />
<path fill-rule="evenodd" d="M102,521l129,0l0,-90l-129,0l0,90Z" class="g3_1" />
<g clip-path="url(#c0_1)">
<path fill-rule="evenodd" d="M110,431l113,0l0,-22l-113,0l0,22Z" class="g3_1" />
</g>
<path fill-rule="evenodd" d="M231,521l8,0l0,-112l-8,0l0,112Z" class="g2_1" />
<path fill-rule="evenodd" d="M782,521l8,0l0,-112l-8,0l0,112Z" class="g2_1" />
<g clip-path="url(#c1_1)">
<path fill-rule="evenodd" d="M239,431l543,0l0,-22l-543,0l0,22Z" class="g2_1" />
</g>
<path fill-rule="evenodd" d="M239,454l543,0l0,-23l-543,0l0,23Z" class="g2_1" />
<path fill-rule="evenodd" d="M239,476l543,0l0,-22l-543,0l0,22Z" class="g2_1" />
<path fill-rule="evenodd" d="M239,498l543,0l0,-22l-543,0l0,22Z" class="g2_1" />
<path fill-rule="evenodd" d="M239,521l543,0l0,-23l-543,0l0,23Z" class="g2_1" />
<path d="M101.5,409.5l0,-1" class="g1_1" />
<path d="M102.5,409.5l129,0" class="g1_1" />
<path d="M231.5,409.5l0,-1" class="g1_1" />
<path d="M231.5,409.5l559,0" class="g1_1" />
<path d="M790.5,409.5l0,-1" class="g1_1" />
<path d="M101.5,521.5l0,-112" class="g1_1" />
<path d="M231.5,521.5l0,-112" class="g1_1" />
<path d="M790.5,521.5l0,-112" class="g1_1" />
<path fill-rule="evenodd" d="M102,544l8,0l0,-23l-8,0l0,23Z" class="g3_1" />
<path fill-rule="evenodd" d="M223,544l8,0l0,-23l-8,0l0,23Z" class="g3_1" />
<path fill-rule="evenodd" d="M110,544l113,0l0,-23l-113,0l0,23Z" class="g3_1" />
<path fill-rule="evenodd" d="M231,544l8,0l0,-23l-8,0l0,23Z" class="g2_1" />
<path fill-rule="evenodd" d="M782,544l8,0l0,-23l-8,0l0,23Z" class="g2_1" />
<path fill-rule="evenodd" d="M239,544l543,0l0,-23l-543,0l0,23Z" class="g2_1" />
<path d="M102.5,521.5l129,0" class="g1_1" />
<path d="M231.5,521.5l559,0" class="g1_1" />
<path d="M101.5,544.5l0,-23" class="g1_1" />
<path d="M231.5,544.5l0,-23" class="g1_1" />
<path d="M790.5,544.5l0,-23" class="g1_1" />
<path fill-rule="evenodd" d="M102,567l8,0l0,-23l-8,0l0,23Z" class="g3_1" />
<path fill-rule="evenodd" d="M223,567l8,0l0,-23l-8,0l0,23Z" class="g3_1" />
<path fill-rule="evenodd" d="M102,948l129,0l0,-381l-129,0l0,381Z" class="g3_1" />
<path fill-rule="evenodd" d="M110,567l113,0l0,-23l-113,0l0,23Z" class="g3_1" />
<path fill-rule="evenodd" d="M231,948l8,0l0,-404l-8,0l0,404Z" class="g2_1" />
<path fill-rule="evenodd" d="M782,948l8,0l0,-404l-8,0l0,404Z" class="g2_1" />
<path fill-rule="evenodd" d="M239,567l543,0l0,-23l-543,0l0,23Z" class="g2_1" />
<path fill-rule="evenodd" d="M239,589l543,0l0,-22l-543,0l0,22Z" class="g2_1" />
<path fill-rule="evenodd" d="M239,612l543,0l0,-23l-543,0l0,23Z" class="g2_1" />
<path fill-rule="evenodd" d="M239,637l543,0l0,-25l-543,0l0,25Z" class="g2_1" />
<path fill-rule="evenodd" d="M239,663l543,0l0,-26l-543,0l0,26Z" class="g2_1" />
<path fill-rule="evenodd" d="M239,689l543,0l0,-26l-543,0l0,26Z" class="g2_1" />
<path fill-rule="evenodd" d="M239,730l543,0l0,-41l-543,0l0,41Z" class="g2_1" />
<path fill-rule="evenodd" d="M239,752l543,0l0,-22l-543,0l0,22Z" class="g2_1" />
<path fill-rule="evenodd" d="M239,778l543,0l0,-26l-543,0l0,26Z" class="g2_1" />
<path fill-rule="evenodd" d="M239,804l543,0l0,-26l-543,0l0,26Z" class="g2_1" />
<path fill-rule="evenodd" d="M239,830l543,0l0,-26l-543,0l0,26Z" class="g2_1" />
<path fill-rule="evenodd" d="M239,855l543,0l0,-25l-543,0l0,25Z" class="g2_1" />
<path fill-rule="evenodd" d="M239,881l543,0l0,-26l-543,0l0,26Z" class="g2_1" />
<path fill-rule="evenodd" d="M239,903l543,0l0,-22l-543,0l0,22Z" class="g2_1" />
<path fill-rule="evenodd" d="M239,926l543,0l0,-23l-543,0l0,23Z" class="g2_1" />
<path fill-rule="evenodd" d="M239,948l543,0l0,-22l-543,0l0,22Z" class="g2_1" />
<path d="M102.5,544.5l129,0" class="g1_1" />
<path d="M231.5,544.5l559,0" class="g1_1" />
<path d="M101.5,948.5l0,-404" class="g1_1" />
<path d="M231.5,948.5l0,-404" class="g1_1" />
<path d="M790.5,948.5l0,-404" class="g1_1" />
<path fill-rule="evenodd" d="M102,994l8,0l0,-45l-8,0l0,45Z" class="g3_1" />
<path fill-rule="evenodd" d="M223,994l8,0l0,-45l-8,0l0,45Z" class="g3_1" />
<path fill-rule="evenodd" d="M102,1155l129,0l0,-161l-129,0l0,161Z" class="g3_1" />
<g clip-path="url(#c2_1)">
<path fill-rule="evenodd" d="M110,971l113,0l0,-22l-113,0l0,22Z" class="g3_1" />
</g>
<path fill-rule="evenodd" d="M110,994l113,0l0,-23l-113,0l0,23Z" class="g3_1" />
<path fill-rule="evenodd" d="M231,1155l8,0l0,-206l-8,0l0,206Z" class="g2_1" />
<path fill-rule="evenodd" d="M782,1155l8,0l0,-206l-8,0l0,206Z" class="g2_1" />
<g clip-path="url(#c3_1)">
<path fill-rule="evenodd" d="M239,975l543,0l0,-26l-543,0l0,26Z" class="g2_1" />
</g>
<path fill-rule="evenodd" d="M239,1000l543,0l0,-25l-543,0l0,25Z" class="g2_1" />
<path fill-rule="evenodd" d="M239,1026l543,0l0,-26l-543,0l0,26Z" class="g2_1" />
<path fill-rule="evenodd" d="M239,1052l543,0l0,-26l-543,0l0,26Z" class="g2_1" />
<path fill-rule="evenodd" d="M239,1078l543,0l0,-26l-543,0l0,26Z" class="g2_1" />
<path fill-rule="evenodd" d="M239,1103l543,0l0,-25l-543,0l0,25Z" class="g2_1" />
<path fill-rule="evenodd" d="M239,1129l543,0l0,-26l-543,0l0,26Z" class="g2_1" />
<path fill-rule="evenodd" d="M239,1155l543,0l0,-26l-543,0l0,26Z" class="g2_1" />
<path d="M101.5,949.5l0,-1" class="g1_1" />
<path d="M102.5,949.5l129,0" class="g1_1" />
<path d="M231.5,949.5l0,-1" class="g1_1" />
<path d="M231.5,949.5l559,0" class="g1_1" />
<path d="M790.5,949.5l0,-1" class="g1_1" />
<path d="M101.5,1155.5l0,-206" class="g1_1" />
<path d="M101.5,1156.5l0,-1" class="g1_1" />
<path d="M101.5,1156.5l0,-1" class="g1_1" />
<path d="M102.5,1156.5l129,0" class="g1_1" />
<path d="M231.5,1155.5l0,-206" class="g1_1" />
<path d="M231.5,1156.5l0,-1" class="g1_1" />
<path d="M231.5,1156.5l559,0" class="g1_1" />
<path d="M790.5,1155.5l0,-206" class="g1_1" />
<path d="M790.5,1156.5l0,-1" class="g1_1" />
<path d="M790.5,1156.5l0,-1" class="g1_1" />
</svg>